<svg xmlns="http://www.w3.org/2000/svg" width="56" height="90" fill="none" viewBox="0 0 56 90">
  <path fill="#262A40" fill-rule="evenodd" d="M0 27.17C0 9.34 13.152 0 28 0v90L2.97 38.632C1.98 36.368 0 30.906 0 27.17Zm56 0C56 9.34 42.85 0 28 0v90l25.03-51.368C54.02 36.368 56 30.906 56 27.17Z" clip-rule="evenodd"/>
  <path fill="#EEF3F8" fill-rule="evenodd" d="M18.338 26.395h14.558c-.07-.471-.242-.782-.445-.984-.27-.268-.667-.411-1.17-.411H20.014c-.717 0-1.125.306-1.374.677-.15.224-.247.48-.302.718ZM33.408 25c.267.374.434.842.496 1.395h3.758a2.172 2.172 0 0 0-.302-.718c-.249-.37-.657-.677-1.374-.677h-2.578Zm4.675 2.395h.64v-.5c0-.473-.13-1.175-.533-1.776-.422-.627-1.132-1.119-2.204-1.119H20.014c-1.072 0-1.782.492-2.204 1.12a3.308 3.308 0 0 0-.532 1.775v.5h.639V39H16.5a.5.5 0 0 0 0 1h23a.5.5 0 0 0 0-1h-1.417V27.395Zm-1 0h-3.472V39h3.472V27.395ZM32.611 39v-4.079h-2.434l-.691.987.532 3.092h2.593Zm-3.607 0-.538-3.126-.035-.203.118-.168.868-1.24v-2.328L28.7 31.4l-.201-.15V30c0-.21-.071-.318-.142-.38A.544.544 0 0 0 28 29.5a.51.51 0 0 0-.334.166.51.51 0 0 0-.166.334v1.257l-.21.15-.748.535v2.537l-.013.056-.297 1.27.55 3.195h2.222Zm-3.236 0-.538-3.126-.018-.1.023-.098.177-.755h-1.384V39h1.74Zm-2.74 0v-4.079h-2.459a.5.5 0 0 1 0-1h2.459v-6.526h-4.111V39h4.11Zm1-11.605v6.526h1.514v-2.494l.21-.15.748-.534V30c0-.413.201-.783.459-1.041.258-.258.628-.459 1.041-.459.35 0 .724.11 1.017.367.304.267.483.658.483 1.133v.749l.716.535.2.15v2.487h2.195v-6.526h-8.583Z" clip-rule="evenodd"/>
</svg>
