<svg xmlns="http://www.w3.org/2000/svg" width="56" height="90" fill="none" viewBox="0 0 56 90">
  <path fill="#262A40" fill-rule="evenodd" d="M0 27.17C0 9.34 13.152 0 28 0v90L2.97 38.632C1.98 36.368 0 30.906 0 27.17Zm56 0C56 9.34 42.85 0 28 0v90l25.03-51.368C54.02 36.368 56 30.906 56 27.17Z" clip-rule="evenodd"/>
  <path fill="#EEF3F8" fill-rule="evenodd" d="M36.257 25.517c.416.2.852.3 1.271.271.642-.05 1.185-.297 1.63-.791.986-1.089 1.233-3.166.049-4.255A3.309 3.309 0 0 0 37.134 20h-.148c-.84.05-1.63.346-2.073.89-.685.756-.8 1.845-.393 2.821-2.479-1.704-6.23-1.504-6.52-1.489h-.709c-1.15 0-3.807.2-5.696 1.666.302-.92.17-1.913-.436-2.616-.444-.544-1.234-.84-2.073-.89h-.148c-.839 0-1.58.297-2.122.791-1.184 1.089-.987 3.166 0 4.255.444.445.987.742 1.629.742.495.03.974-.08 1.415-.296-2.11 3.239-2.735 7.718-2.735 8.914C17.224 39.933 21.073 43 27.439 43h1.481c6.367 0 10.167-3.067 10.315-8.212 0-1.196-.673-6.005-2.978-9.27Zm-.57-3.994c.199-.243.66-.478 1.33-.523h.117a2.31 2.31 0 0 1 1.416.497c.307.295.474.76.447 1.326-.027.584-.259 1.147-.58 1.502l-.004.003c-.26.29-.556.43-.956.463-.39.024-.92-.164-1.42-.627l-.002-.001c-.924-.852-.92-2.007-.382-2.6l.018-.02.016-.02Zm2.548 13.252c-.003-.565-.194-2.251-.756-4.192-.568-1.959-1.474-4.031-2.818-5.445l-.004-.004c-.977-1.04-2.54-1.55-4.012-1.774-1.294-.197-2.336-.151-2.602-.14l-.06.003h-.691c-.588 0-1.608.057-2.684.338-1.084.283-2.145.772-2.908 1.576v.001c-1.346 1.415-2.252 3.476-2.819 5.427-.564 1.939-.754 3.629-.756 4.214.047 2.3.917 4.057 2.43 5.262 1.54 1.227 3.85 1.959 6.884 1.959h1.481c3.035 0 5.33-.732 6.865-1.958 1.507-1.204 2.38-2.963 2.45-5.267Zm-5.382-1.273c0 .05-.04.088-.086.088a.087.087 0 0 1-.086-.089c0-.05.041-.088.086-.088.045 0 .086.037.086.089Zm1 0a1.087 1.087 0 1 1-2.172 0 1.087 1.087 0 1 1 2.172 0Zm-10.372 0c0 .05-.04.088-.086.088a.087.087 0 0 1-.086-.089c0-.05.041-.088.086-.088.045 0 .086.037.086.089Zm1 0a1.087 1.087 0 1 1-2.172 0 1.087 1.087 0 1 1 2.172 0Zm-4.452-8.95c.88-.852.889-2.027.372-2.627l-.008-.01-.009-.01c-.198-.243-.659-.478-1.33-.523h-.116c-.598 0-1.095.209-1.447.53-.326.3-.508.78-.49 1.358.018.574.234 1.12.54 1.469.308.302.605.431.904.431h.03l.028.002c.51.03 1.04-.174 1.526-.62Zm5.874 10.03h-.5v.5c0 .468.12 1.025.64 1.44.41.33 1.01.52 1.836.573v.355c-.143.278-.393.612-.71.816-.317.206-.706.29-1.213.008l-.487.873c.865.481 1.65.343 2.243-.04a2.94 2.94 0 0 0 .672-.613c.191.228.428.447.712.62.622.378 1.44.507 2.364.043l-.448-.894c-.599.3-1.051.206-1.397-.004a2.137 2.137 0 0 1-.736-.81v-.368c.684-.084 1.186-.342 1.532-.692.415-.42.563-.932.563-1.306v-.5h-5.07Zm.765 1.16a.672.672 0 0 1-.146-.16h3.267a.858.858 0 0 1-.09.104c-.202.205-.588.424-1.32.424-1.006 0-1.486-.187-1.71-.367Z" clip-rule="evenodd"/>
</svg>
