<svg xmlns="http://www.w3.org/2000/svg" width="145" height="112" fill="none" viewBox="0 0 145 112">
  <path fill="#262A40" fill-rule="evenodd" d="M144.608 12c0-6.627-5.373-12-12-12H12C5.373 0 0 5.373 0 12v78.076c0 6.627 5.373 12 12 12h44.851a9.92 9.92 0 0 1 7.018 2.907c3.875 3.875 10.159 3.875 14.034 0a9.92 9.92 0 0 1 7.017-2.907h47.688c6.627 0 12-5.373 12-12V12Z" clip-rule="evenodd"/>
  <path fill="#262A40" d="m70.886 112-9.924-9.924H80.81L70.886 112Z"/>
  <g clip-path="url(#a)">
    <path fill="#C8BFBC" d="M21.22 64.745v12.65h-1.634v-10.99h-6.304v10.99h-1.634v-12.65h9.571Zm8.31 4.925c.675.67 1.011 1.616 1.011 2.84v4.886h-1.603l.265-2.767h-.234c-.218 1.002-.599 1.75-1.143 2.245-.544.497-1.233.744-2.062.744-1.038 0-1.808-.232-2.31-.696-.505-.463-.756-1.086-.756-1.866 0-.959.366-1.68 1.098-2.159.731-.479 1.797-.719 3.198-.719h1.96c-.072-.6-.315-1.053-.731-1.36-.415-.305-.976-.458-1.681-.458-.529 0-.965.114-1.307.34-.342.226-.67.577-.98 1.051l-1.338-.949c.467-.695.985-1.225 1.555-1.588.571-.364 1.261-.546 2.07-.546 1.318 0 2.313.335 2.988 1.005v-.002Zm-1.588 5.576c.477-.453.784-1.07.918-1.85h-1.867c-.903 0-1.57.11-2 .332-.43.22-.647.57-.647 1.044 0 .347.135.627.405.838.27.21.674.317 1.214.317.84 0 1.499-.227 1.976-.68l.001-.001Zm10.909 1.824c-.654.376-1.426.563-2.318.563a3.97 3.97 0 0 1-2.155-.601 4.2 4.2 0 0 1-1.502-1.637 4.799 4.799 0 0 1-.545-2.269c0-.822.181-1.56.544-2.245a4.208 4.208 0 0 1 1.503-1.63c.638-.4 1.356-.6 2.155-.6.924 0 1.727.205 2.411.616.685.412 1.214.996 1.588 1.755l-1.291.918c-.343-.559-.724-.965-1.144-1.218-.42-.253-.905-.379-1.455-.379-.508 0-.962.116-1.361.348a2.41 2.41 0 0 0-.934.98c-.223.422-.335.907-.335 1.455 0 .864.244 1.55.732 2.056.487.506 1.12.76 1.898.76 1.058 0 1.878-.464 2.46-1.392l1.306.918a4.077 4.077 0 0 1-1.556 1.605v-.002Zm10.91-8.277v1.598h-3.315v7.005h-1.57V70.39h-3.331v-1.598h8.217Zm3.556 6.57c.472.417 1.061.624 1.767.624a3.11 3.11 0 0 0 1.463-.34 2.894 2.894 0 0 0 1.09-1.004l1.167.822c-.395.706-.917 1.244-1.564 1.613a4.281 4.281 0 0 1-2.155.553 4.16 4.16 0 0 1-2.187-.601 4.282 4.282 0 0 1-1.556-1.637 4.643 4.643 0 0 1-.568-2.269c0-.821.189-1.56.568-2.245.379-.686.9-1.229 1.564-1.63.664-.4 1.39-.6 2.18-.6.85 0 1.599.218 2.247.657.649.437 1.142 1.041 1.478 1.81.337.77.485 1.63.444 2.578h-6.801c.103.696.392 1.252.863 1.668v.001Zm.031-4.468c-.472.412-.765.95-.879 1.614h5.182c-.104-.686-.391-1.228-.863-1.63-.472-.4-1.04-.6-1.704-.6-.664 0-1.263.205-1.736.617Zm14.73-1.636c.58.406 1.037.962 1.37 1.668.33.707.497 1.491.497 2.356 0 .769-.165 1.49-.498 2.158a4.081 4.081 0 0 1-1.37 1.597 3.354 3.354 0 0 1-1.93.593c-.882 0-1.605-.245-2.17-.736-.566-.49-.942-1.22-1.129-2.19h-.295l.156 5.852h-1.666V68.791h1.666l-.156 2.703h.327c.197-.927.578-1.634 1.145-2.12.564-.484 1.273-.726 2.124-.726.705 0 1.348.203 1.93.609h-.001Zm-1.105 6.333c.415-.232.742-.553.98-.965.238-.411.357-.88.357-1.407s-.12-1.036-.357-1.463a2.572 2.572 0 0 0-.98-.996 2.768 2.768 0 0 0-1.4-.356c-.468 0-.903.118-1.307.356a2.649 2.649 0 0 0-.965.972c-.239.411-.357.86-.357 1.344 0 .517.116.994.35 1.432.233.438.552.785.957 1.044.404.258.844.388 1.323.388.519 0 .985-.116 1.4-.348l-.001-.001Zm4.436-8.159a.997.997 0 0 1-.295-.727.98.98 0 0 1 .295-.72.998.998 0 0 1 .732-.291c.27 0 .5.097.692.292a.986.986 0 0 1 .288.72c0 .283-.097.526-.288.726-.192.2-.422.3-.692.3a.986.986 0 0 1-.732-.3Zm-.109 1.36h1.634v8.603H71.3v-8.603Zm7.314 0c1.017 0 1.766.176 2.249.53.483.353.724.809.724 1.368 0 .558-.171.975-.513 1.312-.343.338-.784.543-1.324.617v.252c.748.074 1.36.304 1.837.689.477.384.716.892.716 1.526 0 .717-.307 1.28-.919 1.692-.612.412-1.535.617-2.77.617h-4.327v-8.603h4.327Zm1.081 3.1c.234-.128.35-.348.35-.665 0-.317-.116-.55-.35-.672-.233-.122-.593-.182-1.081-.182H75.89v1.708h2.724c.487 0 .848-.063 1.081-.19Zm.428 3.573a.915.915 0 0 0 .451-.822c0-.358-.148-.622-.443-.79-.295-.169-.8-.253-1.517-.253H75.89v2.15h2.724c.705 0 1.208-.094 1.51-.284v-.001Zm10.054 1.604c-.654.376-1.426.563-2.318.563a3.97 3.97 0 0 1-2.155-.601 4.199 4.199 0 0 1-1.502-1.637 4.799 4.799 0 0 1-.544-2.269c0-.822.18-1.56.544-2.245a4.207 4.207 0 0 1 1.502-1.63c.639-.4 1.356-.6 2.155-.6.924 0 1.727.205 2.412.616.684.412 1.213.996 1.587 1.755l-1.291.918c-.342-.559-.724-.965-1.143-1.218-.42-.253-.906-.379-1.455-.379-.508 0-.963.116-1.362.348a2.41 2.41 0 0 0-.934.98c-.223.422-.335.907-.335 1.455 0 .864.244 1.55.732 2.056s1.12.76 1.899.76c1.057 0 1.877-.464 2.459-1.392l1.306.918a4.079 4.079 0 0 1-1.555 1.605l-.002-.002Zm10.45-4.347c.69.416 1.034 1.083 1.034 2 0 1.782-1.333 2.673-4 2.673h-4.014v-8.603h1.603v3.305h2.412c1.286 0 2.274.208 2.965.624v.001Zm-1.113 2.815c.352-.185.529-.456.529-.815 0-.359-.171-.624-.514-.798-.342-.174-.964-.26-1.867-.26H95.25v2.15h2.412c.88 0 1.499-.093 1.852-.277Zm12.154-6.745-2.957 4.301 2.957 4.302h-1.789l-2.397-3.494h-2.474v3.494h-1.556v-8.603h1.556v3.495h2.474l2.397-3.495h1.789Zm10.023 0v8.618h-1.572v-6.53l-4.902 6.53h-1.759l.015-.015v-8.603h1.556v6.516l4.887-6.516h1.775Zm10.38 0v8.618H130.5v-6.53l-4.903 6.53h-1.743l.015-.015v-8.603h1.54v6.531l4.888-6.531h1.774Zm-6.054-1.06a3.435 3.435 0 0 1-1.494-1.114c-.384-.5-.576-1.125-.576-1.874h1.634c-.011.643.188 1.107.599 1.391.409.284 1.004.427 1.782.427.726 0 1.286-.143 1.681-.427.394-.284.591-.748.591-1.391h1.634c0 .738-.19 1.36-.568 1.865-.379.506-.867.88-1.463 1.123a4.943 4.943 0 0 1-1.875.363 5.367 5.367 0 0 1-1.946-.363h.001Z"/>
    <path fill="#EEF3F8" stroke="#EEF3F8" stroke-width=".279" d="M39.58 35.519a.227.227 0 0 1-.116-.032c-4.473-2.629-7.251-7.52-7.251-12.766 0-5.245 2.778-10.137 7.251-12.766a.23.23 0 0 1 .316.086.237.237 0 0 1-.084.321c-4.33 2.546-7.021 7.28-7.021 12.36 0 5.078 2.69 9.813 7.02 12.359.112.064.15.208.085.32a.23.23 0 0 1-.2.118Z"/>
    <path fill="#EEF3F8" stroke="#EEF3F8" stroke-width=".279" d="M39.58 35.519a.232.232 0 0 1-.2-.117.237.237 0 0 1 .084-.321c4.33-2.546 7.02-7.281 7.02-12.36 0-5.078-2.69-9.813-7.02-12.359a.237.237 0 0 1-.084-.32.23.23 0 0 1 .316-.087c4.472 2.63 7.25 7.52 7.25 12.766s-2.778 10.137-7.25 12.766a.23.23 0 0 1-.115.032Zm66.533 5.627c-3.137 0-5.689-2.593-5.689-5.781 0-3.188 2.552-5.781 5.689-5.781s5.689 2.593 5.689 5.781c0 3.188-2.552 5.78-5.689 5.78Zm0-11.093c-2.882 0-5.227 2.383-5.227 5.312 0 2.929 2.345 5.312 5.227 5.312 2.883 0 5.227-2.383 5.227-5.312 0-2.929-2.344-5.312-5.227-5.312Zm-46.208-8.176c-1.957 0-3.55-1.62-3.55-3.608 0-1.99 1.593-3.608 3.55-3.608 1.958 0 3.55 1.618 3.55 3.608 0 1.989-1.592 3.608-3.55 3.608Zm0-6.747c-1.703 0-3.087 1.408-3.087 3.137 0 1.73 1.384 3.138 3.087 3.138 1.703 0 3.088-1.408 3.088-3.138 0-1.729-1.386-3.137-3.088-3.137Zm-7.936 29.31a.23.23 0 0 1-.201-.118c-2.499-4.429-7.17-7.18-12.19-7.18a.233.233 0 0 1-.231-.236c0-.13.103-.235.231-.235 5.185 0 10.01 2.842 12.591 7.416a.237.237 0 0 1-.085.322.227.227 0 0 1-.115.03Zm-3.522 7.205H39.58a.234.234 0 0 1-.232-.236v-9.008c0-.13.103-.236.232-.236 5.016 0 9.098 4.147 9.098 9.245a.233.233 0 0 1-.231.235Zm-8.636-.47h8.402c-.12-4.652-3.823-8.414-8.402-8.537v8.536Z"/>
    <path fill="#EEF3F8" stroke="#EEF3F8" stroke-width=".279" d="M45.038 51.645H39.58a.233.233 0 0 1-.232-.235v-5.546c0-.13.103-.235.232-.235 3.138 0 5.69 2.593 5.69 5.78 0 .13-.103.236-.232.236Zm-5.227-.47h4.992c-.119-2.742-2.293-4.95-4.992-5.071v5.07Z"/>
    <path fill="#EEF3F8" stroke="#EEF3F8" stroke-width=".279" d="M42.9 51.645h-3.32a.233.233 0 0 1-.232-.235v-3.374c0-.13.103-.235.232-.235 1.958 0 3.552 1.619 3.552 3.609 0 .13-.104.235-.232.235Zm-3.089-.47h2.849c-.113-1.543-1.33-2.78-2.849-2.895v2.895Z"/>
    <path fill="#EEF3F8" stroke="#EEF3F8" stroke-width=".279" d="M41.672 51.645H39.58a.233.233 0 0 1-.232-.235v-2.126c0-.13.103-.236.232-.236 1.281 0 2.324 1.06 2.324 2.362 0 .13-.104.235-.232.235Zm-1.86-.47h1.614a1.879 1.879 0 0 0-1.615-1.642v1.642Z"/>
    <path fill="#EEF3F8" stroke="#EEF3F8" stroke-width=".279" d="M106.113 51.644H39.58a.233.233 0 0 1-.232-.235V25.927c0-.13.103-.235.232-.235.128 0 .231.105.231.235v25.247h66.07V36.139c0-.13.104-.235.232-.235s.231.104.231.235v15.27c0 .13-.103.235-.231.235Zm-1.864-34.461h-.618a.562.562 0 0 1-.453-.233l-.012-.018a.551.551 0 0 1-.06-.115l-.005-.016-.01-.019-.005-.01a5.672 5.672 0 0 0-4.993-3.009 5.6 5.6 0 0 0-4.382 2.094 3.488 3.488 0 0 0-2.637-1.193c-1.959 0-3.552 1.619-3.552 3.61a.569.569 0 0 1-.403.545H84.84c-.007 0-.016 0-.024.002a1.532 1.532 0 0 0-1.494 1.541c0 .843.668 1.53 1.494 1.543h19.433c1.281 0 2.324-1.06 2.324-2.36 0-1.302-1.043-2.362-2.324-2.362Zm0 4.252H84.84a1.067 1.067 0 0 1-1.056-1.074c0-.592.473-1.073 1.056-1.073h2.316a.226.226 0 0 0 .038-.004.324.324 0 0 0 .05-.013l.002-.001a1.006 1.006 0 0 0 .584-.45c.095-.154.15-.334.153-.525l.001-.023c0-1.731 1.386-3.139 3.089-3.139a3.049 3.049 0 0 1 2.475 1.26.162.162 0 0 0 .02.02l.003.003a.224.224 0 0 0 .113.048.19.19 0 0 0 .068-.001.196.196 0 0 0 .027-.006l.014-.005a.217.217 0 0 0 .063-.034.27.27 0 0 0 .055-.061 5.155 5.155 0 0 1 4.182-2.123c.96 0 1.877.265 2.671.745a5.265 5.265 0 0 1 1.914 2.015c0 .003.002.004.003.006l.004.008.008.013a2.56 2.56 0 0 1 .083.164 1.024 1.024 0 0 0 .832.466l.023.001h.618c1.026 0 1.861.848 1.861 1.891 0 1.044-.835 1.891-1.861 1.891v.001Z"/>
    <path fill="#EEF3F8" stroke="#EEF3F8" stroke-width=".279" d="M57.292 51.644h-8.866a.233.233 0 0 1-.232-.235c0-5.097 4.081-9.245 9.098-9.245.127 0 .231.105.231.235v9.01c0 .13-.103.235-.231.235Zm-8.632-.47h8.4v-8.537c-4.578.122-8.28 3.884-8.4 8.537Z"/>
    <path fill="#EEF3F8" stroke="#EEF3F8" stroke-width=".279" d="M57.292 51.644h-5.458a.234.234 0 0 1-.232-.235c0-3.189 2.553-5.782 5.69-5.782.127 0 .231.105.231.235v5.547c0 .13-.103.235-.231.235Zm-5.222-.47h4.99v-5.072c-2.698.12-4.872 2.329-4.99 5.072Z"/>
    <path fill="#EEF3F8" stroke="#EEF3F8" stroke-width=".279" d="M57.292 51.644h-3.32a.233.233 0 0 1-.232-.236c0-1.99 1.593-3.609 3.552-3.609.127 0 .231.105.231.236v3.373c0 .13-.103.236-.231.236Zm-3.08-.47h2.848v-2.895c-1.518.115-2.735 1.351-2.848 2.894Z"/>
    <path fill="#EEF3F8" stroke="#EEF3F8" stroke-width=".279" d="M57.292 51.644h-2.093a.233.233 0 0 1-.231-.235c0-1.302 1.042-2.362 2.324-2.362.127 0 .231.105.231.236v2.126c0 .13-.103.235-.231.235Zm-1.847-.47h1.616v-1.642a1.88 1.88 0 0 0-1.616 1.642Zm4.46-25.508a.233.233 0 0 1-.231-.235v-2.4c0-.13.103-.236.231-.236.129 0 .232.105.232.236v2.4c0 .13-.103.235-.232.235Zm0-11.926a.233.233 0 0 1-.231-.235v-2.4c0-.13.103-.235.231-.235.129 0 .232.104.232.235v2.4c0 .13-.103.236-.232.236Zm-4.985 9.83a.23.23 0 0 1-.163-.07.238.238 0 0 1 0-.332l1.67-1.697a.23.23 0 0 1 .327 0c.09.091.09.24 0 .332l-1.67 1.697a.23.23 0 0 1-.164.07Zm8.3-8.434a.23.23 0 0 1-.163-.07.238.238 0 0 1 0-.332l1.67-1.698a.23.23 0 0 1 .327 0 .24.24 0 0 1 0 .333l-1.67 1.698a.23.23 0 0 1-.164.069Zm1.67 8.434a.23.23 0 0 1-.163-.07l-1.67-1.697a.238.238 0 0 1 0-.332.23.23 0 0 1 .327 0l1.67 1.697c.09.091.09.24 0 .332a.229.229 0 0 1-.164.07Zm-8.3-8.434a.229.229 0 0 1-.163-.07l-1.67-1.697a.238.238 0 0 1 0-.333.23.23 0 0 1 .327 0l1.67 1.698a.24.24 0 0 1 0 .333.229.229 0 0 1-.163.069Zm-1.372 3.367h-2.363a.233.233 0 0 1-.231-.235c0-.13.103-.235.231-.235h2.363c.127 0 .231.104.231.235 0 .13-.103.235-.231.235Zm11.737 0h-2.362a.233.233 0 0 1-.232-.235c0-.13.103-.235.232-.235h2.362c.127 0 .232.104.232.235 0 .13-.103.235-.232.235ZM59.052 50.08a.233.233 0 0 1-.232-.236v-8.9c0-.129.103-.235.232-.235.128 0 .231.105.231.236v8.9a.233.233 0 0 1-.231.235Z"/>
    <path fill="#EEF3F8" stroke="#EEF3F8" stroke-width=".279" d="M57.292 51.645a.226.226 0 0 1-.164-.07.24.24 0 0 1-.068-.166V38.668c0-.13.103-.235.232-.235h1.659l14.997-8.965 5.017-4.21a.229.229 0 0 1 .308.013l4.76 4.686 2.727 1.319c.08.039.131.121.131.212V47.36l12.434-.25a.233.233 0 0 1 .236.232l.039 4.064a.237.237 0 0 1-.067.167.229.229 0 0 1-.165.07H57.292Zm.231-12.742v12.271h41.611l-.034-3.589-12.436.251a.236.236 0 0 1-.167-.067.24.24 0 0 1-.069-.168V31.636L83.8 30.365a.22.22 0 0 1-.061-.044l-4.64-4.566-4.87 4.088a.182.182 0 0 1-.03.021l-15.067 9.007a.227.227 0 0 1-.118.032h-1.49Z"/>
    <path fill="#EEF3F8" stroke="#EEF3F8" stroke-width=".279" d="M72.398 51.645a.233.233 0 0 1-.232-.233l-.025-3.096c0-.126.096-.231.22-.237l14.289-.713a.237.237 0 0 1 .242.223.234.234 0 0 1-.219.246l-14.066.703.024 2.87a.235.235 0 0 1-.229.237h-.004Zm28.291-9.668a.234.234 0 0 1-.089-.017l-1.87-.786-4.57.675a.226.226 0 0 1-.184-.054.237.237 0 0 1-.08-.178v-2.44L91.27 38.07l-4.252.954a.235.235 0 0 1-.1-.458l4.324-.97a.235.235 0 0 1 .138.012l2.835 1.198a.235.235 0 0 1 .143.218v2.324l4.368-.645a.24.24 0 0 1 .122.016l1.929.811a.236.236 0 0 1-.089.452l.001-.004Zm-38.317-.979a.23.23 0 0 1-.197-.11.238.238 0 0 1 .073-.325l4.065-2.6a.23.23 0 0 1 .32.073.238.238 0 0 1-.073.325l-4.065 2.6a.228.228 0 0 1-.123.036Zm0 3.452a.23.23 0 0 1-.197-.11.238.238 0 0 1 .073-.325l4.065-2.6a.23.23 0 0 1 .32.074.238.238 0 0 1-.073.324l-4.065 2.6a.227.227 0 0 1-.123.036Zm0 3.452a.23.23 0 0 1-.197-.11.238.238 0 0 1 .073-.325l4.065-2.6a.23.23 0 0 1 .32.074.238.238 0 0 1-.073.324l-4.065 2.6a.228.228 0 0 1-.123.036v.001Zm6.71-10.853a.231.231 0 0 1-.2-.116.238.238 0 0 1 .081-.322l6.58-3.95a.23.23 0 0 1 .317.083.238.238 0 0 1-.082.322l-6.579 3.95a.228.228 0 0 1-.117.032Zm0 3.829a.231.231 0 0 1-.2-.116.238.238 0 0 1 .081-.322l6.58-3.95a.23.23 0 0 1 .317.083.238.238 0 0 1-.082.322l-6.579 3.95a.228.228 0 0 1-.117.032Zm0 3.412a.232.232 0 0 1-.2-.116.238.238 0 0 1 .081-.323l6.58-3.949a.23.23 0 0 1 .317.083.238.238 0 0 1-.082.322l-6.579 3.95a.228.228 0 0 1-.117.031v.002Zm17.578-9.216a.244.244 0 0 1-.084-.015l-5.052-1.975a.236.236 0 0 1-.132-.304.23.23 0 0 1 .298-.135l5.052 1.974a.236.236 0 0 1-.084.455h.001Z"/>
    <path fill="#EEF3F8" stroke="#EEF3F8" stroke-width=".279" d="M86.66 39.023a.246.246 0 0 1-.084-.015l-5.052-1.975a.236.236 0 0 1-.132-.304.23.23 0 0 1 .298-.135l5.052 1.975a.236.236 0 0 1-.084.454h.001Zm0 3.949a.244.244 0 0 1-.084-.015l-5.052-1.975a.236.236 0 0 1-.132-.303.23.23 0 0 1 .298-.135l5.052 1.975a.235.235 0 0 1-.084.453h.001Zm-7.547 1.82a.233.233 0 0 1-.232-.235V25.439c0-.13.103-.235.232-.235.128 0 .231.104.231.235v19.118c0 .13-.103.235-.231.235Zm15.834-1.293a.234.234 0 0 1-.23-.21.235.235 0 0 1 .206-.26l3.278-.349a.233.233 0 0 1 .254.21.234.234 0 0 1-.206.259l-3.278.349h-.024Zm0 1.977a.234.234 0 0 1-.23-.211.235.235 0 0 1 .206-.259l3.278-.349a.234.234 0 0 1 .254.21.234.234 0 0 1-.206.259l-3.278.349h-.024Z"/>
    <path fill="#C8BFBC" d="m41.777 87.812 1.363-1.846-1.257-1.775h.724l1.119 1.637V84.19h.606v1.637l1.12-1.637h.723l-1.257 1.775 1.363 1.846h-.747l-1.202-1.647v1.647h-.606v-1.647l-1.2 1.647h-.749Zm8.012 0h-.613V85.26l-1.68 2.552h-.614v-3.621h.614v2.552l1.68-2.552h.613v3.621Zm1.774 0v-3.053h-1.171v-.568h2.95v.568H52.17v3.053h-.607Zm2.032 0v-.508a.56.56 0 0 0 .204-.018.278.278 0 0 0 .138-.103.723.723 0 0 0 .1-.218c.029-.096.057-.216.083-.36.039-.206.07-.42.096-.644a19.915 19.915 0 0 0 .11-1.275c.01-.19.02-.356.026-.495h2.424v3.621h-.606v-3.053h-1.257l-.03.407c-.01.158-.025.33-.043.514a13.012 13.012 0 0 1-.159 1.156 3.612 3.612 0 0 1-.12.47 1 1 0 0 1-.19.343.566.566 0 0 1-.303.178 1.1 1.1 0 0 1-.473-.015Zm5.619.076c-.363 0-.673-.08-.93-.237a1.58 1.58 0 0 1-.597-.664 2.232 2.232 0 0 1-.206-.986c0-.373.069-.702.206-.985a1.57 1.57 0 0 1 .596-.662c.258-.159.568-.239.93-.239.363 0 .673.08.93.24.26.157.46.377.597.66.14.284.209.613.209.986 0 .374-.07.703-.21.986a1.557 1.557 0 0 1-.595.664c-.258.158-.568.237-.93.237Zm0-.571c.243.001.445-.052.605-.161a.983.983 0 0 0 .365-.46c.082-.198.123-.43.123-.695 0-.264-.04-.494-.123-.689a.984.984 0 0 0-.364-.457 1.085 1.085 0 0 0-.606-.169 1.044 1.044 0 0 0-.606.161 1.003 1.003 0 0 0-.365.46c-.08.198-.12.43-.12.694 0 .265.04.496.12.692a.99.99 0 0 0 .362.455c.163.11.365.165.609.169Zm2.436.495v-3.621h1.436c.245 0 .445.05.601.148a.912.912 0 0 1 .35.375c.077.153.115.31.115.473 0 .2-.047.368-.143.508a.688.688 0 0 1-.385.281v-.126c.228.053.401.16.518.325.12.164.179.351.179.56 0 .215-.041.403-.123.564a.885.885 0 0 1-.367.377c-.161.09-.36.136-.599.136H61.65Zm.614-.57h.893c.105 0 .2-.022.284-.064a.487.487 0 0 0 .269-.46.538.538 0 0 0-.063-.261.461.461 0 0 0-.183-.184.565.565 0 0 0-.29-.07h-.91v1.038Zm0-1.605h.815a.527.527 0 0 0 .234-.05.388.388 0 0 0 .163-.149.452.452 0 0 0 .06-.241.44.44 0 0 0-.12-.315.445.445 0 0 0-.337-.125h-.815v.88Zm5.667 2.175h-.613V85.26l-1.68 2.552h-.614v-3.621h.614v2.552l1.68-2.552h.613v3.621Zm.905 0v-3.621h.613v2.552l1.68-2.552h.614v3.621h-.614V85.26l-1.68 2.552h-.613Zm1.45-3.928a.738.738 0 0 1-.384-.103.794.794 0 0 1-.274-.274.738.738 0 0 1-.103-.385h.472a.285.285 0 0 0 .29.29c.08 0 .148-.028.203-.084a.281.281 0 0 0 .086-.206h.473c0 .14-.035.27-.104.385a.788.788 0 0 1-.276.274.734.734 0 0 1-.382.103Zm3.569 3.928v-3.621h.606v1.68l1.446-1.68h.744l-1.556 1.775 1.662 1.846h-.77l-1.526-1.69v1.69h-.606Zm4.797.076c-.362 0-.672-.08-.93-.237a1.58 1.58 0 0 1-.596-.664 2.234 2.234 0 0 1-.207-.986c0-.373.07-.702.207-.985.139-.284.338-.504.596-.662.258-.159.568-.239.93-.239.362 0 .672.08.93.24.26.157.46.377.597.66.139.284.208.613.208.986 0 .374-.07.703-.208.986a1.558 1.558 0 0 1-.596.664c-.259.158-.569.237-.93.237Zm0-.571a1.05 1.05 0 0 0 .606-.161.984.984 0 0 0 .365-.46c.082-.198.123-.43.123-.695a1.77 1.77 0 0 0-.123-.689.985.985 0 0 0-.365-.457 1.085 1.085 0 0 0-.606-.169 1.045 1.045 0 0 0-.606.161c-.16.11-.282.263-.365.46-.08.198-.12.43-.12.694 0 .265.04.496.12.692a.999.999 0 0 0 .363.455c.162.11.365.165.608.169Zm2.437.495v-3.621h.546l1.252 2.565 1.252-2.565h.546v3.621h-.566v-2.321l-1.111 2.321h-.242l-1.109-2.321v2.321h-.568Zm4.504 0v-3.621h2.934v3.621h-.606v-3.053H86.2v3.053h-.606Zm3.589 0v-.508a.56.56 0 0 0 .204-.018.278.278 0 0 0 .138-.103.723.723 0 0 0 .1-.218c.029-.096.057-.216.084-.36.038-.206.07-.42.095-.644a19.651 19.651 0 0 0 .11-1.275c.01-.19.02-.356.026-.495h2.424v3.621h-.606v-3.053H90.5l-.03.407c-.01.158-.025.33-.043.514a13.17 13.17 0 0 1-.159 1.156 3.596 3.596 0 0 1-.12.47 1 1 0 0 1-.19.343.566.566 0 0 1-.303.178 1.1 1.1 0 0 1-.473-.015Zm4.087 0v-3.621h2.339v.568h-1.733v.893h1.431v.568h-1.43v1.024h1.732v.568h-2.339Zm3.143 0v-3.621h.606v1.68l1.446-1.68h.745l-1.557 1.775 1.662 1.846h-.77l-1.526-1.69v1.69h-.606Zm4.798.076c-.362 0-.673-.08-.931-.237a1.58 1.58 0 0 1-.596-.664 2.232 2.232 0 0 1-.206-.986c0-.373.069-.702.206-.985a1.57 1.57 0 0 1 .596-.662c.258-.159.569-.239.931-.239.417 0 .765.105 1.043.315.279.208.474.488.586.842l-.611.169a1.065 1.065 0 0 0-.359-.554c-.17-.134-.389-.2-.659-.2-.243 0-.446.054-.609.163a1.01 1.01 0 0 0-.365.46c-.08.196-.121.427-.123.691 0 .265.041.497.121.694.082.197.205.35.367.458.163.11.366.164.609.164.27 0 .489-.067.659-.202.169-.134.289-.318.359-.553l.611.169a1.647 1.647 0 0 1-.586.845c-.278.208-.626.312-1.043.312Z"/>
  </g>
  <defs>
    <clipPath id="a">
      <path fill="#fff" d="M11.648 9.924h120.423v80.81H11.648z"/>
    </clipPath>
  </defs>
</svg>
