<svg xmlns="http://www.w3.org/2000/svg" width="56" height="90" fill="none" viewBox="0 0 56 90">
  <path fill="#262A40" fill-rule="evenodd" d="M0 27.17C0 9.34 13.152 0 28 0v90L2.97 38.632C1.98 36.368 0 30.906 0 27.17Zm56 0C56 9.34 42.85 0 28 0v90l25.03-51.368C54.02 36.368 56 30.906 56 27.17Z" clip-rule="evenodd"/>
  <path fill="#EEF3F8" fill-rule="evenodd" d="M22.434 21.635c-3.367.428-5.822 3.801-5.376 7.622.36 3.087 2.491 5.416 5.073 5.97v-2.395l-2.32-2.452a.5.5 0 0 1 .727-.687l1.593 1.684v-5.353a.5.5 0 1 1 1 0v4.048l2.58-2.714a.5.5 0 0 1 .724.69l-3.304 3.476v3.826a5.634 5.634 0 0 0 2.008-.298 2.039 2.039 0 0 1 1.633-3.26h2a.503.503 0 0 1 .045-.198 7.432 7.432 0 0 0 .587-3.908c-.445-3.82-3.603-6.48-6.97-6.05Zm7.383 10.157a8.455 8.455 0 0 0 .58-4.232c-.5-4.28-4.079-7.427-8.079-6.918-4 .509-6.751 4.462-6.252 8.741.413 3.544 2.938 6.311 6.065 6.87v4.46a2.931 2.931 0 0 0-.683.137 2.351 2.351 0 0 0-1.76-.797c-.675 0-1.267.243-1.69.673-.422.429-.65 1.017-.65 1.66 0 .456.084.865.196 1.2h-.681a.5.5 0 1 0 0 1h22.645a.5.5 0 1 0 0-1h-2.534c.053-.15.081-.314.081-.484V41h.422a2.039 2.039 0 1 0 0-4.078H36.07V35.87h.423a2.039 2.039 0 1 0 0-4.078h-6.677Zm5.253 4.078v1.051h-6.876V35.87h6.876Zm-7.876 0v1.051h-1.407a2.039 2.039 0 1 0 0 4.078h.422v2.103c0 .17.029.333.081.485h-1.05v-.01c0-.88-.283-1.605-.772-2.113a2.484 2.484 0 0 0-1.337-.72v-4.39a6.716 6.716 0 0 0 2.758-.52.505.505 0 0 0 .152-.099c.227.087.473.135.73.135h.423Zm6.348 7.717h.625a1.483 1.483 0 0 1-.081-.485V41h-4.907v2.103c0 .17-.029.333-.081.485h4.444Zm1.544-.485a.485.485 0 0 0 .97 0V41.34h-.97v1.763Zm-7.392.485a.484.484 0 0 1-.485-.485V41.34h.97v1.763a.485.485 0 0 1-.485.485Zm-9.072 0h5.618v-.01c0-.66-.209-1.124-.493-1.42a1.522 1.522 0 0 0-1.116-.46c-.363 0-.756.009-1.1.206l-.446.257-.244-.455a1.37 1.37 0 0 0-1.153-.652c-.43 0-.757.15-.977.374-.222.226-.363.554-.363.959 0 .523.151.952.274 1.2Zm7.11-9.756c0-.574.466-1.04 1.04-1.04h9.721a1.039 1.039 0 1 1 0 2.079h-9.722a1.039 1.039 0 0 1-1.038-1.04Zm.055 4.09a1.039 1.039 0 1 0 0 2.078h11.69a1.039 1.039 0 1 0 0-2.078h-11.69Z" clip-rule="evenodd"/>
</svg>
