<svg xmlns="http://www.w3.org/2000/svg" width="56" height="90" fill="none" viewBox="0 0 56 90">
  <path fill="#262A40" fill-rule="evenodd" d="M0 27.17C0 9.34 13.152 0 28 0v90L2.97 38.632C1.98 36.368 0 30.906 0 27.17Zm56 0C56 9.34 42.85 0 28 0v90l25.03-51.368C54.02 36.368 56 30.906 56 27.17Z" clip-rule="evenodd"/>
  <path fill="#EEF3F8" fill-rule="evenodd" d="M20.839 20h1.216c.46 0 .832.19 1.097.403.26.21.442.462.538.65l.001.003 2.019 4.038c.161-.017.33-.026.506-.026h.094v-1.06c0-.265.093-.631.362-.938.285-.325.726-.536 1.327-.536.6 0 1.042.211 1.327.536.27.307.362.673.362.939v1.06h.492c.036 0 .074 0 .115.002l2.22-4.033.018-.032.023-.03c.255-.334.98-.976 1.982-.976.533 0 1.203.1 1.675.432.25.176.466.433.542.785.074.347-.003.71-.186 1.069-.453.892-2.077 3.496-2.99 4.939.715.793 1.595 1.736 2.115 2.288l.019.02.015.02c.265.348.697 1.247.697 2.448v3.204h.887c.311 0 .736.117 1.087.448.364.344.602.874.602 1.61v2.926c0 .267-.116.597-.401.857-.292.266-.72.423-1.288.423h-.906a2.957 2.957 0 0 1-.605 1.467c-.487.614-1.279 1.067-2.452 1.067H22.028L22 43.999a2.587 2.587 0 0 1-1.394-.637c-.457-.41-.806-1.03-.833-1.894h-.889c-.296 0-.74-.072-1.126-.307a1.536 1.536 0 0 1-.761-1.363v-2.924c0-.294.1-.708.397-1.056.313-.366.805-.613 1.49-.613h.888V32c0-.262.033-.679.13-1.117.097-.432.265-.935.567-1.33.323-.425 1.181-1.435 1.947-2.327-.849-1.386-2.383-3.9-2.973-4.916-.193-.333-.29-.666-.262-.99a1.23 1.23 0 0 1 .381-.785c.368-.358.905-.495 1.25-.533l.027-.003Zm2.263 6.433.36-.414.012-.014.014-.014c.213-.209.63-.486 1.212-.681l-1.902-3.805a1.11 1.11 0 0 0-.274-.323.743.743 0 0 0-.469-.182h-1.159c-.243.03-.505.125-.637.253a.233.233 0 0 0-.082.155c-.005.06.007.187.131.4.547.942 1.924 3.203 2.794 4.625Zm-3.33 9.772h-.887c-.425 0-.626.142-.73.263a.671.671 0 0 0-.157.406v2.924a.54.54 0 0 0 .28.508c.19.116.44.162.607.162h.887v-4.263Zm16.652 4.263h.887c.384 0 .55-.104.614-.162a.22.22 0 0 0 .075-.118v-2.924c0-.51-.158-.76-.29-.884a.626.626 0 0 0-.399-.175h-.887v4.262Zm-3.536-14.023c.934-1.48 2.384-3.815 2.789-4.612.114-.225.111-.35.1-.405-.012-.05-.043-.11-.14-.178-.221-.155-.642-.25-1.1-.25-.558 0-1.005.364-1.167.558l-2.035 3.695c.093.03.187.064.28.103.335.14.688.355.942.689.074.096.187.233.33.4Zm-4.2-1.377v-1.06a.457.457 0 0 0-.114-.278c-.071-.082-.225-.196-.575-.196s-.504.114-.575.196a.46.46 0 0 0-.114.279v1.06h1.377Zm-2.472 1c-.256 0-.49.024-.703.063-.72.13-1.172.432-1.313.562l-.788.91c-.827.96-1.813 2.117-2.148 2.557-.174.228-.303.57-.385.94a4.464 4.464 0 0 0-.107.9v5.934h14.652V32c0-.951-.337-1.625-.478-1.823a142.27 142.27 0 0 1-2.367-2.569 19.93 19.93 0 0 1-.817-.958c-.112-.147-.293-.273-.531-.372a2.907 2.907 0 0 0-1.053-.21h-3.961Zm9.208 12.866H20.772v2.422c0 .637.236 1.022.502 1.26.273.245.601.356.811.385H33.35c.886 0 1.382-.327 1.668-.688a1.95 1.95 0 0 0 .407-1.151v-2.23ZM23.04 30.4a2.04 2.04 0 0 1 .997-.265h8.321c.556 0 .953.239 1.196.57.224.307.295.66.295.905v3.12c0 .556-.248.95-.583 1.188-.31.219-.665.287-.908.287h-8.322c-.567 0-.995-.157-1.287-.423a1.182 1.182 0 0 1-.401-.857V31.61c0-.598.32-.992.691-1.21Zm.509.86a.363.363 0 0 0-.2.35v3.314c0-.001 0 0 0 0a.22.22 0 0 0 .074.117c.065.06.23.163.614.163h8.321c.087 0 .227-.03.33-.103.078-.055.16-.149.16-.372V31.61a.578.578 0 0 0-.101-.314c-.054-.074-.152-.16-.39-.16h-8.32c-.135 0-.338.036-.488.125Z" clip-rule="evenodd"/>
</svg>
