<svg xmlns="http://www.w3.org/2000/svg" width="56" height="90" fill="none" viewBox="0 0 56 90">
  <path fill="#262A40" fill-rule="evenodd" d="M0 27.17C0 9.34 13.152 0 28 0v90L2.97 38.632C1.98 36.368 0 30.906 0 27.17Zm56 0C56 9.34 42.85 0 28 0v90l25.03-51.368C54.02 36.368 56 30.906 56 27.17Z" clip-rule="evenodd"/>
  <path fill="#EEF3F8" fill-rule="evenodd" d="M17 21a.5.5 0 0 0 0 1h1.987l.543 1.859 1.362 4.659 1.361 4.66.908 3.105.105.36h13.671a.5.5 0 1 0 0-1H24.016l-.616-2.106h14.4l.084-.396 1.987-9.318.129-.604H20.385l-.543-1.86-.105-.359H17Zm9.299 11.537h-3.19l-1.07-3.66h3.9l.36 3.66Zm-.459-4.66h-4.093l-1.07-3.658h4.803l.36 3.659Zm1.005 0-.36-3.658h6.547l-.3 3.659h-5.887Zm6.89 0 .3-3.658h4.73l-.78 3.659h-4.25Zm-.082 1h4.118l-.78 3.66h-3.638l.3-3.66Zm-1.003 0-.3 3.66h-5.046l-.36-3.66h5.706Zm1.45 9.655c.252-.26.59-.413.96-.413s.709.153.961.413c.253.26.413.621.413 1.028 0 .407-.16.768-.413 1.028a1.328 1.328 0 0 1-1.922 0 1.467 1.467 0 0 1-.412-1.028c0-.407.16-.768.412-1.029Zm-8.895 0h.001c.253-.26.591-.413.961-.413s.709.153.961.413c.253.26.413.621.413 1.028 0 .407-.16.768-.413 1.028a1.33 1.33 0 0 1-1.922 0 1.468 1.468 0 0 1-.412-1.028c0-.407.16-.77.412-1.028Zm3.336 1.028c0 .674-.266 1.283-.696 1.725a2.333 2.333 0 0 1-1.678.715 2.333 2.333 0 0 1-1.678-.715 2.467 2.467 0 0 1-.695-1.725c0-.674.265-1.285.695-1.726a2.333 2.333 0 0 1 1.678-.715c.655 0 1.248.273 1.678.715.43.442.696 1.052.696 1.726Zm4.841-1.726a2.333 2.333 0 0 1 1.678-.715c.655 0 1.248.273 1.678.715.43.442.696 1.052.696 1.726 0 .674-.266 1.283-.696 1.725A2.333 2.333 0 0 1 35.06 42a2.333 2.333 0 0 1-1.678-.715 2.467 2.467 0 0 1-.695-1.725c0-.674.266-1.284.695-1.726Z" clip-rule="evenodd"/>
</svg>
