<svg xmlns="http://www.w3.org/2000/svg" width="56" height="90" fill="none" viewBox="0 0 56 90">
  <path fill="#262A40" fill-rule="evenodd" d="M0 27.17C0 9.34 13.152 0 28 0v90L2.97 38.632C1.98 36.368 0 30.906 0 27.17Zm56 0C56 9.34 42.85 0 28 0v90l25.03-51.368C54.02 36.368 56 30.906 56 27.17Z" clip-rule="evenodd"/>
  <path fill="#EEF3F8" fill-rule="evenodd" d="m28.006 20 .152.048 10.609 3.343.35.11v5.701c.153.163.273.382.32.618.066.32.003.661-.226.964l.746 1.672.044.097v.106c0 .227-.066.554-.274.838-.227.31-.598.529-1.11.529-.516 0-.888-.225-1.091-.571a1.366 1.366 0 0 1-.162-.868l.005-.038.011-.036c.11-.355.371-1.14.647-1.759-.214-.308-.288-.636-.222-.957.05-.245.175-.442.311-.585v-4.67l-2.536.77v4.95l-.141.145c-.925.953-3.644 2.752-7.432 2.752-3.789 0-6.428-1.8-7.313-2.76l-.133-.145v-4.958l-3.058-.95-1.508-.469 1.502-.485 10.357-3.343.152-.049Zm-6.445 5.607v4.248c.846.816 3.152 2.304 6.446 2.304 3.295 0 5.68-1.488 6.573-2.311v-4.233l-6.427 1.95-.147.045-.147-.045-6.298-1.958Zm13.805-2.239L28.01 21.05l-8.703 2.809 1.903.591 6.8 2.114 6.926-2.101.312-.095h-7.24v-1h7.36Zm3.264 8.569c-.117.32-.217.622-.28.824a.439.439 0 0 0 .005.083c.006.045.019.08.032.103.012.02.026.034.046.045a.383.383 0 0 0 .183.034.46.46 0 0 0 .211-.041.258.258 0 0 0 .094-.08.44.44 0 0 0 .07-.162l-.36-.806Zm-19.86.708a1.54 1.54 0 0 1 1.028-.362h.123l.11.057c2.188 1.148 4 1.99 5.64 2.659.558.228 1.097.436 1.625.63 1.732.635 3.339 1.113 5.112 1.617 1.192.188 1.96.861 2.307 1.747.339.865.258 1.876-.105 2.743-.364.87-1.036 1.657-1.96 2.035-.942.385-2.07.313-3.26-.407a33.844 33.844 0 0 0-4.32-2.208c.077.205.184.386.297.543.091.127.175.226.252.316l.07.082c.023.027.048.059.072.09a.73.73 0 0 1 .086.15.526.526 0 0 1-.062.519.532.532 0 0 1-.428.209h-.002c-.133 0-.263-.037-.35-.066a2.382 2.382 0 0 1-.127-.046.57.57 0 0 1-.426.25.623.623 0 0 1-.327-.065l-.04-.02-.037-.026c-.545-.401-.815-1.053-.95-1.616a4.896 4.896 0 0 1-.072-.358c-.349.39-.736.64-1.087.792a2.497 2.497 0 0 1-.768.204c-.094.007-.21.01-.318-.016a.535.535 0 0 1-.304-.18.512.512 0 0 1-.103-.466 9.986 9.986 0 0 1-.22-.068 2.19 2.19 0 0 1-.117-.042h-.003a.701.701 0 0 1-.167-.092.507.507 0 0 1 .28-.915.922.922 0 0 1 .084-.004c.259 0 .6-.136.964-.37.063-.04.124-.081.183-.124a53.594 53.594 0 0 0-4.286-1.118l-.214-.047-.11-.189c-.66-1.132-.761-2.105-.553-2.88.204-.76.692-1.271 1.11-1.517l.21-.124.227.09.096.037c.207-.71.5-1.164.84-1.444Zm.104 1.78a75.33 75.33 0 0 1 3.759 1.36l-.365.93c-.84-.33-2.837-1.082-4.13-1.472l-.02-.006-.018-.007-.377-.148c-.18.162-.374.422-.47.781-.118.438-.104 1.076.347 1.929 1.623.364 3.296.797 5.005 1.366-.09-1.255.223-2.202.732-2.886.255-.342.552-.609.857-.81a69.937 69.937 0 0 1-4.509-2.174.538.538 0 0 0-.28.128c-.145.12-.36.393-.531 1.01Zm6.561 1.558c-.388.1-.91.368-1.295.886-.393.527-.682 1.362-.489 2.653l.143.053c-.14-1.198.217-2.112.822-2.765a3.676 3.676 0 0 1 1.001-.754 57.82 57.82 0 0 1-.182-.073Zm1.635.628c-.54.09-1.24.36-1.72.879-.457.492-.773 1.267-.463 2.507a35.265 35.265 0 0 1 3.56 1.675 4.213 4.213 0 0 1-.115-1.644 5.6 5.6 0 0 1 .229-1.014c-.205-.08-.477-.18-.777-.288-.62-.223-1.35-.476-1.832-.64l.322-.947c.486.165 1.221.42 1.85.647.313.112.603.22.822.305.109.043.206.082.28.115.038.017.076.034.11.052l.002.002a.66.66 0 0 1 .156.11.53.53 0 0 1 .15.283c.012.069.01.127.007.162a1.004 1.004 0 0 1-.034.174c-.017.06-.042.138-.067.216l-.028.087a4.655 4.655 0 0 0-.197.857c-.08.654-.009 1.506.663 2.407.922.533 1.692.531 2.284.29.628-.258 1.132-.817 1.415-1.495.285-.681.322-1.419.097-1.993-.213-.543-.678-.992-1.54-1.125-.099-.005-.285.053-.52.295a2.52 2.52 0 0 0-.557.955c-.122.378-.14.738-.056 1.016.075.25.242.466.585.598a.26.26 0 0 0 .195-.021.519.519 0 0 0 .195-.209.759.759 0 0 0 .095-.324c.005-.106-.022-.148-.024-.15a.5.5 0 0 1 .794-.608c.188.245.24.543.229.801a1.76 1.76 0 0 1-.22.767c-.26.466-.812.91-1.551.703l-.02-.005-.018-.007c-.653-.24-1.05-.702-1.218-1.255-.16-.53-.1-1.107.062-1.612.157-.488.424-.953.753-1.305a62.562 62.562 0 0 1-3.898-1.261Zm1.802 2.533c.011.006.009.006-.001 0h.001Zm-6.628 1.347a2.122 2.122 0 0 1-.677.49.618.618 0 0 0-.013-.026 5.556 5.556 0 0 0 .69-.464Zm-1.45 1.069-.004-.002a.034.034 0 0 1 .004.002Zm-.327-1.152Z" clip-rule="evenodd"/>
</svg>
