<svg xmlns="http://www.w3.org/2000/svg" width="600" height="123" fill="none" viewBox="0 0 600 123">
  <g clip-path="url(#a)">
    <path fill="#EEF3F8" d="M554.646 74.074c-.339.351-.79.618-1.326.52-.423-.07-.705-.366-.958-.633-7.134-7.66-11.392-18.99-13.338-28.253-.634-3.008-2.777-16.108 5.766-11.062 5.09 3.008 6.035 11.976 7.656 16.347-1.41-3.795 6.866-19.327 12.985-19.566 11.646-.45-8.008 38.233-10.363 42.07a3.112 3.112 0 0 1-.437.563l.015.014Z"/>
    <path fill="#fff" d="M570.69 35.363c-.536-5.13-4.695-6.831-9.08-4.175-3.567 2.165-7.585 7.281-9.587 12.412-1.353-4.639-3.257-9.179-7.839-11.006-4.624-1.842-7.035 1.307-7.359 5.678-.564 7.253 2.34 15.265 5.118 21.76 1.72 4.005 6.668 16.656 12.547 15.433.395.07.818 0 1.171-.38 4.243-4.497 6.598-12.032 8.952-17.598 2.75-6.48 6.838-14.857 6.077-22.124Zm-5.625 11.877c-2.877 8.659-6.627 17.74-11.35 25.625-3.793-.45-9.827-15.968-10.475-17.81-1.283-3.612-2.397-7.379-2.989-11.174-.212-1.392-.733-3.627-.367-5.032 1.015-3.866 4.328-3.556 6.683-.197 2.538 3.626 2.989 8.644 4.356 12.777.649 1.94 3.483 1.153 3.074-.843-.804-3.88 7.388-19.974 12.336-17.43 3.469 1.771-.437 11.568-1.268 14.098v-.014Z"/>
    <path fill="#EEF3F8" d="M529.775 67.58c-.493.478-1.142.83-1.917.703-.606-.099-1.029-.478-1.382-.844-10.306-10.247-16.453-25.4-19.273-37.783-.916-4.02-4.018-21.548 8.333-14.8 7.359 4.02 8.713 16.01 11.067 21.857-2.044-5.089 9.926-25.85 18.766-26.173 16.834-.59-11.575 51.136-14.973 56.267-.169.253-.381.52-.621.759v.014Z"/>
    <path fill="#fff" d="M540.307 10.625c-5.005 2.923-11.857 10.837-14.479 18.3-1.96-6.62-4.356-13.325-11.039-16.15-6.415-2.713-9.898 1.434-10.151 7.66-.367 9.039 3.158 18.597 6.711 26.693 1.818 4.161 11.547 25.807 18.666 21.83a1.34 1.34 0 0 0 .762-.366c5.696-5.918 9.136-15.574 12.491-22.883 3.976-8.659 9.291-19.103 9.009-28.872-.211-7.056-5.907-9.74-11.984-6.198l.014-.014Zm6.345 17.935c-4.131 12.791-10.179 26.932-17.948 38.064-4.554 1.195-14.648-20.718-15.819-23.684-2.213-5.637-4.145-11.639-4.892-17.669-.282-2.263-.592-4.92-.014-7.155 1.452-5.608 7.331-2.122 9.827.76 4.342 5.032 5.033 12.214 7.261 18.272.691 1.884 3.609 1.167 3.073-.843-1.889-7.126 9.404-22.813 16.411-23.951 7.98-1.294 3.299 12.51 2.101 16.206Zm26.011-3.781c2.172-1.827 4.47-3.514 6.937-4.92 2.298-1.307 5.019-1.841 7.19-3.247.973-.632.536-1.982-.564-2.094-2.707-.253-5.766 1.602-8.036 2.938-2.651 1.56-5.061 3.471-7.345 5.524-1.241 1.11.564 2.867 1.818 1.813v-.014Zm17.469 7.055c-5.273-.8-12.153.029-17.059 2.137-.945.408-.465 2.01.521 1.926 2.693-.225 5.33-.928 8.023-1.223 2.721-.295 5.456-.155 8.163-.366 1.311-.098 1.847-2.235.338-2.474h.014Zm-6.274 15.828c-2.876-1.04-5.851-2.024-8.91-2.29-1.509-.141-1.692 2.122-.352 2.544 2.946.927 5.921 1.602 8.811 2.698 1.706.647 4.018 2.123 5.865 1.504.86-.28 1.072-1.25.508-1.911-1.213-1.448-4.173-1.912-5.922-2.545Zm-4.92 15.855c-2.284-1.714-4.653-3.387-7.289-4.483-1.058-.45-2.002 1.236-1.128 1.94 2.058 1.672 4.342 3.064 6.457 4.68 2.016 1.546 3.919 3.88 6.203 4.948 1.086.506 2.299-.548 1.678-1.673-1.226-2.235-3.919-3.893-5.921-5.397v-.014Zm-92.29-46.919c2.171 1.42 4.892 1.94 7.19 3.247 2.468 1.42 4.766 3.093 6.937 4.92 1.255 1.054 3.059-.689 1.819-1.813-2.284-2.053-4.695-3.964-7.346-5.524-2.256-1.336-5.329-3.191-8.036-2.938-1.1.098-1.551 1.448-.564 2.094v.014Zm5.16 18.077c2.693.295 5.329.998 8.022 1.223.987.084 1.466-1.533.522-1.926-4.906-2.094-11.773-2.924-17.06-2.137-1.494.225-.986 2.362.339 2.474 2.721.225 5.442.07 8.163.366h.014Zm7.021 13.24c1.326-.422 1.185-2.685-.352-2.544-3.059.267-6.034 1.265-8.91 2.29-1.735.633-4.709 1.097-5.922 2.545-.564.675-.352 1.63.508 1.912 1.832.604 4.159-.858 5.865-1.504 2.904-1.097 5.865-1.771 8.811-2.7Zm2.961 11.118c-2.636 1.097-5.005 2.783-7.289 4.484-2.016 1.518-4.695 3.163-5.921 5.398-.621 1.124.592 2.192 1.677 1.672 2.284-1.082 4.188-3.401 6.204-4.947 2.115-1.617 4.399-2.994 6.457-4.681.874-.717-.07-2.39-1.128-1.94v.014ZM42.388 74.871c.112.225.225.45.352.675 5.259 4.737 10.687 9.558 17.158 12.566 7.106 3.303 15.128 2.727 22.234 5.946 10.419 4.709 17.27 14.464 22.939 23.965 1.071 1.8-1.537 3.163-2.736 1.603-4.187-5.44-17.468-2.896-23.573-3.542-8.642-.914-17.736-2.038-24.672-7.647-.438-.351-.579-.759-.536-1.152-7.712-8.012-11.209-20.115-13.69-30.629a1.454 1.454 0 0 1 .085-.956c-.226-1.293 1.79-2.094 2.439-.829Zm28.958 19.44c-9.982-1.687-17.51-5.834-24.828-11.639 2.101 3.74 4.428 7.324 7.445 10.585 5.09 5.495 10.926 7.576 18.102 8.728 8.77 1.406 16.806 3.739 23.996 8.279-6.175-8.012-13.76-14.098-24.715-15.953ZM87.8 113.23c2.735.085 6.02.071 9.121.605-5.371-3.486-11.18-6.129-17.538-7.591-5.809-1.335-11.956-1.363-17.525-3.612-6.43-2.586-11.73-7.998-15.734-14.154 2.1 6.41 4.948 12.622 9.319 17.373.296.028.606.126.888.351 8.586 6.621 21.064 6.691 31.483 7.028H87.8Zm72.278-77.399c-1.818-1.265-4.37-.843-5.865.745-1.804 1.926-1.875 5.918 1.171 6.564 1.818.984 4.229.83 5.667-.787 1.664-1.883 1.029-5.144-.973-6.522Zm-1.452 4.723c-.437.506-1.41.647-2.072.45-.451-.76-.677-1.659.056-2.347.479-.436 1.255-.577 1.777-.17.549.45.705 1.519.239 2.053v.014Zm136.792 66.884c-2.496-1.827-6.034-1.152-7.994 1.139-2.312 2.713-2.228 7.351 1.353 8.771 2.468 1.405 5.795 1.237 7.783-.956 2.27-2.502 1.508-7.014-1.142-8.954Zm-1.297 7.183c-.973 1.026-2.778 1.195-4.047.66-1.212-1.391-1.438-3.457-.042-4.835.973-.956 2.637-1.265 3.722-.309 1.184 1.026 1.466 3.317.367 4.498v-.014ZM75.408 78.382c-1.918 0-1.918 2.966 0 2.966 1.917 0 1.917-2.966 0-2.966Zm18.305 9.954c1.818.984 4.23.829 5.667-.787 1.664-1.884 1.03-5.145-.972-6.523-1.82-1.265-4.371-.843-5.866.745-1.804 1.926-1.875 5.918 1.17 6.565Zm1.24-4.484c.48-.436 1.255-.577 1.777-.169.55.45.705 1.518.24 2.052-.438.506-1.41.647-2.073.45-.451-.759-.677-1.659.056-2.347v.014ZM298.55 39.725c5.767-9.024 17.581-11.147 26.844-6.128 7.712 4.174 10.743 14.238 8.276 22.405-3.891 12.82-27.69 16.179-28.395-.028-.225-5.327 4.455-9.024 9.517-9.108 8.896-.155 8.417 14.098.663 11.005-1.735-.688-2.764 2.039-1.241 2.938 10.151 6.002 15.156-10.837 6.683-15.967-8.826-5.342-20.655 2.965-18.921 12.875 2.453 14.14 21.318 16.403 30.383 7.126 7.98-8.166 6.937-23.46-1.241-31.148-9.911-9.32-28.352-7.562-34.527 4.906-.635 1.293 1.156 2.361 1.945 1.138l.014-.014ZM297 96.287c4.37-5.327 11.011-4.357 17.158-4.034.183 0 .352-.028.507-.085 5.076 1.153 11.632 1.757 15.735-1.897 3.679-3.261 3.482-8.335.451-11.99-11.265-13.578-30.27 7.337-36.431 16.024-1.058 1.49 1.395 3.416 2.566 1.982H297Zm21.712-18.428c4.356-.604 9.573.478 11.25 5.13 1.65 4.57-3.355 6.34-6.316 6.888-2.791.535-5.794.057-8.656-.028a1.05 1.05 0 0 0-.48-.197c-4.145-.688-8.374-1.208-12.181-.365 4.497-5.355 10.207-10.584 16.383-11.442v.014Zm13.591 24.008c-6.091-5.819-17.821-3.176-24.744-1.012-1.734.548-1.029 3.163.747 2.727 7.318-1.827 10.786 8.884 18.16 8.617.197 0 .366-.071.521-.155 5.217-.478 10.278-5.44 5.316-10.191v.014Zm-5.428 7.9s-.043-.028-.085-.028c-4.949-.914-8.135-5.496-12.195-7.815 2.255-.45 4.525-.703 6.837-.619 1.791.056 3.596.281 5.316.801a12.32 12.32 0 0 1 3.144 1.322c.944 4.132-.071 6.241-3.017 6.353v-.014ZM226.224 69.538c3.665-17.036 17.13-30.404 35.049-31.388 20.246-1.124 40.576 16.334 29.015 37.15-4.398 7.928-13.422 14.816-22.896 14.113-8.149-.59-13.789-8.209-14.113-15.968-.324-7.646 4.61-14.224 12.618-14.267 4.244-.028 7.966 1.701 9.066 5.974.747 2.868-.071 6.297-2.34 8.364-3.976 3.626-12.266.154-8.023-5.13 1.128-1.406-.578-3.163-2.002-1.997-5.343 4.414-1.55 12.032 4.808 12.637 7.233.688 12.477-7.745 11.223-14.24-1.326-6.887-8.572-9.698-14.931-8.855-7.19.956-12.365 6.227-13.563 13.326-1.241 7.393 1.889 15.714 7.994 20.17 8.065 5.876 18.949 3.135 26.294-2.53 17.793-13.69 15.523-40.102-5.555-48.887-23.798-9.924-51.051 5.72-54.858 30.937-.211 1.406 1.875 2.053 2.185.605l.029-.014Z"/>
    <path fill="#fff" d="M190.272 28.002c-14.212 3.303-22.826 18.104-17.314 32.006 4.216 10.654 19.288 13.564 26.633 4.048 8.783-11.371-11.11-23.586-16.115-9.39-.395 1.125 1.452 1.926 1.96.83 3.51-7.787 16.002-3.416 12.886 4.807-1.057 2.811-3.849 4.624-6.598 5.58-5.682 1.954-11.773.352-14.832-4.99-1.607-2.81-2.425-5.636-2.594-8.405a.86.86 0 0 0 .042-.337 13.416 13.416 0 0 1-.042-1.673c.07-1.462.31-2.896.719-4.273 2.566-7.66 11.406-12.609 19.696-10.486 10.405 2.67 15.79 13.198 16.044 23.235.296 12.425-6.302 25.497-13.295 36.461-9.46 11.667-13.958 28.084-9.94 41.578.395 1.336 2.397.773 2.087-.576-1.198-5.187-1.297-10.388-.493-15.434.028-.042.07-.07.098-.112 6.641-12.847 17.892-30.207 34.443-29.926 9.362.155 21.586 9.544 14.677 19.609-2.382 3.486-7.43 4.961-10.997 3.739 6.909-.155 15.227-8.012 8.248-16.292-4.709-5.58-12.985-5.51-18.526-1.208-6.866 5.327-8.515 15.49-4.018 22.827 10.447 17.036 33.414 5.271 37.996-10.064 5.95-19.904-16.834-32.906-34.105-27.775-.69.21-1.381.435-2.072.688 7.289-9.375 10.926-23.333 8.812-34.226-2.975-15.307-18.597-23.713-33.4-20.27v.029Zm53.8 63.28c11.646 12.3-.648 34.719-17.059 33.314-10.095-.858-16.369-12.089-11.35-21.07 3.018-5.412 11.533-9.25 16.411-3.88 2.087 2.291 3.102 5.187 1.312 8.082-1.523 2.46-9.277 5.314-9.926-.126-.268-2.151-3.186-2.207-3.398 0-.803 8.434 6.909 12.327 14.409 9.853 9.249-3.05 11.702-14.927 5.781-22.18-6.739-8.251-18.484-9.39-27.732-5.23-7.078 3.192-12.971 8.603-17.638 14.914a53.505 53.505 0 0 1 6.683-9.164c10.87-12.046 29.889-17.88 42.536-4.526l-.029.014Zm-36.459-5.2s-.028.07-.056.112c-.719.478-1.424.97-2.129 1.504 2.242-4.498 4.103-9.136 5.625-13.493 3.68-10.529 4.061-23.179-2.904-32.512-4.921-6.593-13.464-10.613-21.557-8.757 3.017-1.518 6.387-2.418 9.869-2.516 14.494-.394 25.011 10.893 24.574 25.062-.381 12.046-6.358 21.38-13.422 30.6Zm223.883-12.43c-.423 1.602 2.044 2.783 2.777 1.166 2.284-4.961 13.775-5.945 18.625-7.168.211-.056.366-.155.507-.281 9.164-.717 23.883-.844 27.549-11.231 2.792-7.942-3.891-15.462-11.406-16.966-20.076-4.02-33.766 18.062-38.066 34.48h.014Zm47.259-21.197c-.099 11.105-17.215 11.751-25.519 12.75-.197-.113-.409-.198-.677-.184-4.103.267-11.504 1.322-16.439 4.034 3.92-11.048 11.265-22.503 22.488-26.285 7.43-2.516 20.259-.477 20.161 9.685h-.014Zm-56.48-.127s.085-.098.113-.154c7.092-16.53 30.256-13.635 42.508-24.19 7.331-6.312 6.964-19.918-2.693-23.671-11.251-4.372-25.434 2.347-32.907 10.809-8.078 9.136-13.873 25.891-9.812 37.895.578 1.715 3.13 1.069 2.805-.674l-.014-.015Zm9.897-35.857c6.26-6.606 30.299-18.736 34.444-3.486 6.104 22.49-36.812 18.597-44.975 35.59-1.311-11.146 3.045-24.19 10.531-32.104ZM397.56 55.252c-5.879 4.878-6.513 11.892-4.187 18.85 1.805 5.383 5.118 10.12 6.922 15.503 2.595 7.69 1.876 15.687-1.424 23.01-.719 1.589 1.001 2.91 2.369 1.828 11.533-9.207 23.94-25.231 22.812-40.89 0-.154-.057-.295-.113-.421.056-7.788-2.199-17.978-10.32-21.085-5.386-2.066-11.73-.38-16.059 3.22v-.015Zm24.194 17.851s-.043.07-.057.127c-2.918 14.028-8.106 25.54-18.145 35.183 1.185-4.189 1.636-8.504 1.1-13.002-.902-7.478-4.949-13.494-7.726-20.326-3.426-8.461-1.875-17.626 7.867-20.536 11.772-3.528 16.552 9.053 16.947 18.569l.014-.014Z"/>
    <path fill="#fff" d="M444.848 59.933c-1.312 1.18.451 3.542 1.917 2.474 6.88-5.004 15.748-1.068 22.769-5.468a1.45 1.45 0 0 0 .367-.351c5.372-3.823 3.299-10.978-3.553-10.823-10.334.239-14.606 7.927-21.5 14.168Zm13.887-9.22c1.494-.774 3.2-1.266 4.836-1.631 1.001-.225 2.241-.605 3.285-.45 3.228.492 4.92 3.388 1.649 6.016-5.386 1.743-11.222 1.026-16.608 2.137 2.002-2.376 4.089-4.667 6.824-6.087l.014.014ZM430.467 36.46c5.907-6.495 15.241-8.181 23.207-11.09 4.257-1.561 7.754-3.909 6.471-8.87 0-.042-.042-.07-.056-.099-2.355-6.536-8.488-6.381-14.113-3.696-8.939 4.245-15.128 13.114-18.004 22.32-.437 1.392 1.494 2.545 2.481 1.449l.014-.015Zm12.111-18.203c3.933-3.149 12.379-8.293 15.212-1.237.296 5.425-9.77 7.014-13.816 8.532-3.948 1.476-7.712 2.825-11.082 5.004 2.256-4.751 5.456-8.926 9.686-12.3Zm-39.647 44.529c-1.55 2.657-.972 7.169-.183 9.966 1.946 6.888 6.641 11.695 4.907 19.383-.423 1.884 2.114 2.474 2.833.773 3.299-7.885 7.755-17.19 4.526-25.82 0 0 0-.015-.014-.029-1.128-5.482-7.924-11.427-12.069-4.287v.014Zm2.045 3.486c1.734-5.735 6.288-2.952 7.839 1.307.042 4.344.423 8.308-.649 12.637-.395 1.574-.93 3.134-1.508 4.666-.325-1.672-.889-3.345-1.65-5.088-1.241-2.769-2.933-5.454-3.623-8.434-.325-1.405-.846-3.598-.395-5.088h-.014Zm-1.678-22.026c0 1.912 2.735 1.828 2.933 0 .62-5.763 3.299-10.921 3.679-16.727.339-5.453.508-11.258-1.466-16.403-.042-.098-.099-.169-.155-.253-1.48-4.61-4.399-9.77-9.601-10.725-4.3-.787-8.77 1.87-10.095 5.974-1.438 4.456.508 9.811 2.82 13.606 5.188 8.518 11.913 13.649 11.885 24.528Zm-1.382-39.483c2.087 1.672 3.299 4.385 4.343 6.803v.14c.902 6.115 1.508 13.579.239 19.721-.352 1.729-.86 3.402-1.367 5.06-1.481-5.046-4.371-9.347-8.008-13.901-2.89-3.599-5.682-7.338-6.049-12.117-.451-5.875 5.048-10.359 10.856-5.706h-.014ZM368.573 51.47s.113.043.169.071c6.598 6.073 12.816 12.327 17.172 20.241.733 1.335 2.637.633 2.721-.73.719-12.005.282-24.726-3.031-36.378-1.945-6.831-5.809-13.199-13.323-14.548-6.627-1.181-13.027 3.036-14.747 9.544-2.172 8.265 4.652 17.317 11.025 21.8h.014Zm-6.838-23.852c5.4-8.589 15.875-3.992 19.329 3.415 4.864 10.43 5.301 23.6 4.878 35.295-4.314-6.353-9.742-11.61-15.762-16.53-.042-.07-.07-.154-.127-.225-4.892-5.65-13.45-13.76-8.304-21.955h-.014Zm25.942 112.392c2.919-19.636 4.709-40.833-2.693-59.738-2.721-6.972-6.273-13.213-13.436-16.25-6.245-2.656-14.098-2.515-19.907 1.14-.24.154-.381.35-.494.576-14.578 8.012-11.532 24.373-2.1 35.463 6.105 7.169 14.507 11.597 21.247 18.077 4.751 4.568 14.141 13.311 14.028 20.283-.028 1.869 3.073 2.389 3.355.449Zm-20.401-27.718c-6.485-5.117-13.323-9.39-18.215-16.221-7.134-9.952-7.19-20.902 3.299-28.267.127 0 .24 0 .381-.042 35.317-11.596 35.416 37.375 32.61 63.702-4.216-7.632-12.971-15.152-18.075-19.172Zm-10.912 2.052c-7.966-2.938-16.749 2.811-15.396 11.343-.056.197-.07.408 0 .647 3.807 14.169 25.716 5.833 30.637 18.948.69 1.841 3.623 1.096 3.003-.83-3.299-10.19-6.725-25.877-18.23-30.122l-.014.014Zm5.879 20.297c-6.232-1.715-16.566-1.56-18.808-8.982 0-.028-.028-.056-.042-.084.028-5.552 4.554-9.882 10.391-8.785 3.891.731 7.176 4.006 9.291 7.168 2.693 4.006 4.512 8.87 6.091 13.705-2.017-1.349-4.357-2.305-6.937-3.008l.014-.014Z"/>
    <path fill="#fff" d="M366.924 74.397c-6.147-2.418-12.731-.394-13.451 6.76-1.029 10.416 10.73 20.41 17.723 26.356.126.113.267.183.408.225 2.284 3.022 4.625 5.974 6.711 9.137.818 1.251 2.552.674 2.679-.731 1.269-12.707.282-36.11-14.084-41.747h.014Zm-10.109 10.57c-2.538-11.905 10.983-8.77 15.382-2.235 5.47 8.11 6.626 19.426 6.189 29.349a53.027 53.027 0 0 0-4.991-5.706 1.364 1.364 0 0 0-.197-.408c-4.907-6.747-14.578-12.51-16.383-20.986v-.014Zm-5.908-69.789c1.819.984 4.23.83 5.668-.787 1.663-1.884 1.029-5.145-.973-6.522-1.819-1.265-4.371-.844-5.865.745-1.805 1.925-1.875 5.917 1.17 6.564Zm1.241-4.484c.479-.436 1.254-.576 1.776-.169.55.45.705 1.518.24 2.053-.437.506-1.41.646-2.073.45-.451-.76-.676-1.66.057-2.348v.014Zm184.059 73.359c1.749.942 4.047.815 5.471-.689 1.706-1.799 1.142-5.046-.832-6.437-1.762-1.237-4.286-.886-5.752.66-1.777 1.87-1.904 5.848 1.128 6.452l-.015.014Zm1.283-4.371c.437-.38 1.114-.492 1.579-.14.536.407.691 1.405.254 1.925-.394.478-1.311.618-1.931.436-.423-.731-.635-1.589.098-2.221Zm32.934 2.853c1.833 0 1.847-2.84 0-2.84s-1.847 2.84 0 2.84Zm-299.247 19.268c-1.904 0-1.904 2.937 0 2.937 1.903 0 1.903-2.937 0-2.937Z"/>
    <path fill="#fff" d="M573.103 123.663c9.996-5.763 11.97-20.648 1.015-27.521-8.628-5.398-22.614-3.093-28.705 5.13-1.325-4.61-4.511-8.518-9.643-9.938-6.19-1.715-12.069.956-15.763 5.567-4.427-28.24-54.393-24.64-59.384 2.628-6.288-7.183-17.426-8.574-25.941-3.275-5.893 3.669-8.445 13.227-6.528 20.395-7.825-2.361-16.439 2.755-16.961 12.159-.296 5.285 2.806 9.811 7.614 11.92 4.427 1.939 8.177 1.265 11.814-.506-1.254 7.66 5.936 17.078 12.534 19.594 9.559 3.626 21.529.604 27.718-7.45 4.611 14.97 26.069 18.034 34.232 4.878 3.313 5.903 13.986 5.524 17.905-.802 3.412 6.761 11.322 10.641 18.977 9.348.367.309.86.45 1.467.281 9.037-2.558 13.732-9.53 12.787-17.908 7.726 4.105 18.625 3.599 23.912-4.174 5.258-7.717 0-16.165-7.05-20.326Zm2.312 20.115c-5.907 5.187-15.113 4.231-20.64-.886-1.227-1.138-3.567-.042-2.975 1.729 2.848 8.42-.606 15.49-9.263 18.189a1.687 1.687 0 0 0-.902.646c-8.051.661-16.087-4.484-17.243-12.763-.24-1.743-3.017-1.279-3.031.408-.042 9.094-15.466 10.05-14.085 1.209.31-1.954-2.467-2.839-3.045-.843-4.836 16.67-29.748 13.564-30.876-3.627-.099-1.49-2.355-2.46-3.116-.843-3.652 7.857-12.421 11.751-20.88 10.879-4.78-.492-9.489-2.642-12.238-6.705-2.538-3.739-4.751-10.935-.818-14.407 1.424-1.265-.451-3.739-2.058-2.657-2.073 1.406-4.427 3.416-6.895 4.119-5.329 1.518-10.926-1.392-12.308-6.593-2.312-8.743 7.867-16.235 15.593-9.867 1.368 1.138 3.976-.408 2.707-2.08-4.018-5.286-2.608-16.812 3.06-20.424 8.417-5.37 19.752-2.727 24.024 6.353.747 1.589 3.285.773 3.243-.871-.719-29.532 55.591-33.974 53.053-1.279-.155 1.996 2.876 2.277 3.412.464 4.258-14.211 24.49-10.894 22.417 4.329-.296 2.207 3.088 3.163 3.384.928 1.368-9.994 13.69-14.24 22.516-11.695 12.576 3.626 12.505 20.803-.184 24.415-1.748.492-1.635 2.868 0 3.416 7.374 2.474 14.804 11.737 7.12 18.47l.028-.014ZM119.384 88.24c6.344-1.238 14.522-.029 21.416 2.431a18.7 18.7 0 0 1-1.001-1.574c-.141-.253-.24-.478-.339-.703-10.066-4.147-20.626-9.193-29.72-15.096-1.128-.731-.437-2.643.945-2.221 8.84 2.642 16.876 8.082 25.251 12.27-5.203-7.041-10.546-14.337-13.93-22.25-.55-1.293 1.086-2.32 1.918-1.11 5.865 8.475 11.42 17.078 17.44 25.455 1.339.042 3.031.478 4.413.942-7.501-11.667-18.399-36.195 1.367-35.52 13.168.45 14.889 20.24 10.927 32.596 7.317-5.27 17.75-7.913 25.575-5.186.381.126.62.365.804.618 6.654 3.233 5.738 11.4.634 16.22-3.088 2.91-6.655 3.374-10.757 2.812-5.034-.675-10.081-1.588-14.931-3.078.254.21.494.407.747.618 2.58 2.179 7.656 5.299 7.543 9.193-.183 6.395-6.119 3.697-11.307.07 7.825 10.823 14.733 26.819.423 30.741-18.173 4.976-15.918-22.406-11.956-34.972-6.246 4.878-13.182 9.868-21.162 10.191-6.091.253-14.254-2.952-15.269-9.769-1.001-6.677 5.033-11.512 10.955-12.679h.014Zm36.163-24.5c-1.085-4.878-2.368-7.254-7.289-8.49-13.337-3.332-7.825 13.704-5.315 19.72 1.96 4.667 4.497 8.912 6.993 13.27.62.337 1.226.674 1.819 1.04a39.422 39.422 0 0 0 4.412-16.713c.113-2.896 0-5.988-.62-8.828Zm22.6 31.148c6.133-.745 11.843-9.91 5.161-13.649-.156 0-.297.028-.466 0-9.108-1.87-21.106 1.265-27.182 8.785 3.059 1.322 6.189 2.278 9.488 2.966 3.934.83 9.052 2.376 12.999 1.898Zm-15.508 10.106c3.13-1.096-.691-3.753-1.283-4.273-4.639-4.175-9.489-8.237-15.213-10.851-.606-.267-1.396-.478-2.199-.717.832.914 1.635 2.15 2.34 2.881 1.269 1.308 3.13 2.643 4.244 4.231.127.043.24.085.367.169 2.566 1.968 4.962 4.161 7.627 6.002.395.267 3.637 2.727 4.117 2.558Zm-16.425 21.337c1.847 6.719 9.643 8.294 13.492 2.896 6.796-9.544-5.583-21.59-11.73-29.7-1.621 5.833-2.989 11.525-2.834 17.696.071 2.98.268 6.213 1.058 9.108h.014Zm-32.244-22.082c4.85 5.271 13.648 3.191 19.104.394 4.554-2.334 8.473-5.65 12.801-8.335-4.596-1.589-9.009-3.22-13.859-4.105-3.228-.59-6.64-1.18-9.953-.928-5.71.422-14.889 5.595-8.107 12.974h.014Z"/>
  </g>
  <defs>
    <clipPath id="a">
      <path fill="#fff" d="M0 0h600v123H0z"/>
    </clipPath>
  </defs>
</svg>
