<svg xmlns="http://www.w3.org/2000/svg" width="102" height="79" fill="none" viewBox="0 0 102 79">
  <path fill="#262A40" fill-rule="evenodd" d="M102 12c0-6.627-5.373-12-12-12H12C5.373 0 0 5.373 0 12v48c0 6.627 5.373 12 12 12h28.1a7 7 0 0 1 4.95 2.05 7 7 0 0 0 9.9 0A7 7 0 0 1 59.9 72H90c6.627 0 12-5.373 12-12V12Z" clip-rule="evenodd"/>
  <path fill="#262A40" d="m50 79-7-7h14l-7 7Z"/>
  <g clip-path="url(#a)">
    <path fill="#C8BFBC" d="M14.967 45.669v8.922h-1.152V46.84H9.367v7.752H8.216V45.67h6.75Zm5.862 3.474c.476.473.713 1.14.713 2.002v3.447h-1.13l.186-1.952h-.165c-.154.707-.422 1.235-.806 1.584-.384.35-.87.525-1.454.525-.733 0-1.276-.164-1.63-.491-.356-.327-.533-.766-.533-1.317 0-.676.258-1.184.774-1.522.516-.338 1.268-.507 2.256-.507h1.383c-.05-.424-.223-.743-.516-.96-.293-.215-.688-.323-1.186-.323-.373 0-.68.08-.922.24-.241.16-.472.407-.69.742l-.945-.67c.33-.49.695-.864 1.098-1.12.402-.257.889-.385 1.46-.385.929 0 1.63.236 2.107.709v-.002Zm-1.12 3.932c.337-.32.553-.755.648-1.305h-1.318c-.637 0-1.106.078-1.41.235-.304.156-.456.402-.456.736 0 .245.095.443.285.591.19.149.475.224.856.224.593 0 1.057-.16 1.394-.48Zm7.695 1.288c-.462.264-1.006.396-1.636.396a2.8 2.8 0 0 1-1.52-.424 2.962 2.962 0 0 1-1.06-1.154 3.385 3.385 0 0 1-.383-1.6c0-.58.128-1.1.384-1.584s.609-.867 1.06-1.15c.45-.282.956-.423 1.52-.423.651 0 1.218.145 1.7.435a2.9 2.9 0 0 1 1.12 1.238l-.91.647c-.242-.394-.511-.68-.807-.859a1.95 1.95 0 0 0-1.026-.267c-.359 0-.68.081-.96.245a1.7 1.7 0 0 0-.66.691c-.156.297-.235.64-.235 1.027 0 .61.171 1.093.516 1.45.343.357.79.535 1.339.535.746 0 1.324-.327 1.734-.981l.922.647c-.271.49-.637.868-1.098 1.133v-.002Zm7.696-5.84v1.127h-2.34v4.942h-1.108V49.65h-2.35v-1.127H35.1Zm2.508 4.635c.332.294.748.44 1.246.44.38 0 .724-.079 1.031-.24.308-.159.564-.396.769-.708l.823.58a2.904 2.904 0 0 1-1.103 1.138 3.02 3.02 0 0 1-1.52.39 2.935 2.935 0 0 1-1.542-.424 3.02 3.02 0 0 1-1.098-1.155 3.275 3.275 0 0 1-.4-1.6c0-.58.133-1.1.4-1.584a3.025 3.025 0 0 1 1.103-1.149c.468-.282.98-.424 1.537-.424.6 0 1.129.155 1.586.464a2.9 2.9 0 0 1 1.043 1.277c.237.542.342 1.149.312 1.818h-4.797c.073.49.277.883.61 1.176v.001Zm.021-3.151c-.333.29-.54.67-.62 1.138h3.656c-.074-.484-.277-.866-.61-1.149a1.797 1.797 0 0 0-1.201-.424c-.469 0-.891.145-1.225.435Zm10.39-1.155c.41.287.731.68.966 1.177.233.499.351 1.052.351 1.662 0 .542-.117 1.05-.351 1.522a2.877 2.877 0 0 1-.966 1.127c-.41.279-.864.418-1.362.418-.622 0-1.132-.173-1.531-.52-.399-.345-.664-.86-.796-1.544h-.208l.11 4.127h-1.175v-8.298h1.175l-.11 1.907h.23c.14-.654.408-1.153.808-1.495.398-.342.898-.513 1.498-.513.498 0 .951.144 1.361.43Zm-.78 4.468c.293-.164.524-.39.692-.68.168-.291.252-.621.252-.993s-.084-.73-.252-1.032a1.814 1.814 0 0 0-.692-.703 1.953 1.953 0 0 0-.987-.251c-.33 0-.637.083-.922.25a1.868 1.868 0 0 0-.68.687 1.85 1.85 0 0 0-.253.948c0 .364.082.7.247 1.01.165.309.39.553.675.736.286.182.596.274.934.274.366 0 .695-.082.987-.246Zm3.13-5.756a.703.703 0 0 1-.209-.512c0-.2.07-.37.209-.508a.704.704 0 0 1 .516-.206.66.66 0 0 1 .488.206.695.695 0 0 1 .203.508c0 .2-.068.372-.203.512a.65.65 0 0 1-.488.212.697.697 0 0 1-.516-.212Zm-.077.96h1.152v6.068h-1.152v-6.068Zm5.158-.001c.718 0 1.246.125 1.587.374.34.25.51.57.51.965 0 .394-.12.688-.361.926-.242.238-.553.383-.934.434v.179c.527.052.959.214 1.296.485.336.271.504.63.504 1.077 0 .505-.216.904-.648 1.194-.431.29-1.082.435-1.954.435H52.4v-6.069h3.051Zm.763 2.187c.165-.09.247-.246.247-.469 0-.223-.082-.389-.247-.474-.165-.086-.418-.128-.763-.128h-1.92v1.204h1.92c.344 0 .598-.044.763-.133Zm.302 2.52a.645.645 0 0 0 .318-.58.598.598 0 0 0-.312-.557c-.209-.119-.565-.179-1.07-.179h-1.922v1.518h1.921c.498 0 .852-.067 1.065-.201Zm7.092 1.133c-.461.264-1.006.396-1.635.396a2.8 2.8 0 0 1-1.52-.424 2.961 2.961 0 0 1-1.06-1.154 3.385 3.385 0 0 1-.384-1.6c0-.58.128-1.1.384-1.584s.61-.867 1.06-1.15c.45-.282.956-.423 1.52-.423.651 0 1.218.145 1.7.435a2.9 2.9 0 0 1 1.12 1.238l-.91.647c-.242-.394-.511-.68-.807-.859a1.95 1.95 0 0 0-1.026-.267c-.358 0-.679.081-.96.245a1.7 1.7 0 0 0-.66.691c-.156.297-.235.64-.235 1.027 0 .61.172 1.093.516 1.45.344.357.79.535 1.34.535.745 0 1.323-.327 1.733-.981l.922.647c-.27.49-.637.868-1.097 1.133l-.001-.002Zm7.371-3.067c.486.293.73.763.73 1.41 0 1.257-.941 1.886-2.822 1.886h-2.832v-6.069h1.131v2.331h1.701c.907 0 1.605.148 2.092.44v.002Zm-.785 1.985c.248-.13.373-.321.373-.575 0-.253-.121-.44-.362-.563-.242-.122-.68-.184-1.318-.184h-1.7v1.517h1.7c.622 0 1.058-.065 1.307-.195Zm8.573-4.758-2.086 3.034 2.086 3.035h-1.263l-1.69-2.465h-1.745v2.465H72.97v-6.069h1.097v2.466h1.745l1.69-2.466h1.263Zm7.069 0v6.08h-1.108v-4.607l-3.458 4.607h-1.24l.01-.011v-6.069h1.097v4.596l3.448-4.596h1.251Zm7.322.001v6.08h-1.108v-4.607l-3.459 4.606h-1.23l.012-.01v-6.069h1.086v4.607l3.447-4.607h1.252Zm-4.27-.747a2.423 2.423 0 0 1-1.054-.787c-.271-.353-.406-.793-.406-1.322h1.152c-.008.454.133.781.422.982.29.2.709.301 1.257.301.513 0 .907-.1 1.186-.301.278-.2.417-.528.417-.981h1.153c0 .52-.134.959-.401 1.315a2.384 2.384 0 0 1-1.032.792c-.42.17-.861.256-1.323.256-.46 0-.94-.085-1.372-.256h.001Z"/>
    <path fill="#EEF3F8" stroke="#EEF3F8" stroke-width=".279" d="M27.918 25.053a.16.16 0 0 1-.082-.022c-3.155-1.854-5.115-5.304-5.115-9.005 0-3.7 1.96-7.15 5.115-9.004a.162.162 0 0 1 .223.06.167.167 0 0 1-.06.227c-3.054 1.795-4.952 5.135-4.952 8.717 0 3.583 1.898 6.923 4.953 8.718a.167.167 0 0 1 .06.227.162.162 0 0 1-.142.082Z"/>
    <path fill="#EEF3F8" stroke="#EEF3F8" stroke-width=".279" d="M27.918 25.053a.163.163 0 0 1-.141-.082.167.167 0 0 1 .06-.227c3.053-1.795 4.951-5.135 4.951-8.718 0-3.582-1.898-6.922-4.952-8.717a.167.167 0 0 1-.06-.227.162.162 0 0 1 .224-.06c3.154 1.854 5.114 5.304 5.114 9.004 0 3.7-1.96 7.15-5.114 9.005a.163.163 0 0 1-.082.022Zm46.929 3.969c-2.212 0-4.013-1.83-4.013-4.078s1.8-4.077 4.013-4.077 4.013 1.829 4.013 4.077c0 2.249-1.8 4.078-4.013 4.078Zm0-7.824c-2.033 0-3.687 1.68-3.687 3.746s1.654 3.747 3.687 3.747c2.034 0 3.688-1.68 3.688-3.747 0-2.066-1.654-3.746-3.688-3.746ZM42.254 15.43c-1.38 0-2.504-1.141-2.504-2.544s1.123-2.545 2.504-2.545 2.505 1.142 2.505 2.545-1.124 2.545-2.505 2.545Zm0-4.758c-1.2 0-2.178.993-2.178 2.213 0 1.22.977 2.213 2.178 2.213 1.202 0 2.178-.993 2.178-2.213 0-1.22-.977-2.213-2.178-2.213Zm-5.598 20.674a.163.163 0 0 1-.141-.084c-1.763-3.123-5.057-5.064-8.598-5.064a.165.165 0 0 1-.164-.166c0-.092.073-.166.164-.166 3.657 0 7.06 2.004 8.88 5.231a.166.166 0 0 1-.06.227.16.16 0 0 1-.08.022Zm-2.484 5.082h-6.254a.165.165 0 0 1-.164-.166v-6.355c0-.091.073-.166.164-.166 3.538 0 6.417 2.925 6.417 6.52a.165.165 0 0 1-.163.166Zm-6.091-.332h5.926c-.085-3.281-2.696-5.935-5.926-6.021v6.02Z"/>
    <path fill="#EEF3F8" stroke="#EEF3F8" stroke-width=".279" d="M31.768 36.428h-3.85a.165.165 0 0 1-.164-.166V32.35c0-.091.073-.166.164-.166 2.213 0 4.013 1.83 4.013 4.078a.165.165 0 0 1-.163.166Zm-3.687-.332h3.52c-.083-1.934-1.616-3.492-3.52-3.577v3.577Z"/>
    <path fill="#EEF3F8" stroke="#EEF3F8" stroke-width=".279" d="M30.26 36.428h-2.342a.165.165 0 0 1-.164-.166v-2.38c0-.091.073-.166.164-.166 1.381 0 2.505 1.142 2.505 2.546a.165.165 0 0 1-.163.166Zm-2.18-.332h2.01c-.08-1.088-.938-1.96-2.01-2.041v2.041Z"/>
    <path fill="#EEF3F8" stroke="#EEF3F8" stroke-width=".279" d="M29.393 36.427h-1.475a.165.165 0 0 1-.164-.166v-1.5c0-.09.073-.165.164-.165.904 0 1.639.747 1.639 1.665a.165.165 0 0 1-.163.166Zm-1.312-.332h1.14a1.325 1.325 0 0 0-1.14-1.157v1.157Z"/>
    <path fill="#EEF3F8" stroke="#EEF3F8" stroke-width=".279" d="M74.847 36.427h-46.93a.165.165 0 0 1-.163-.166V18.287a.164.164 0 1 1 .327.001v17.808h46.603V25.49c0-.092.073-.166.163-.166.09 0 .164.073.164.166v10.77a.165.165 0 0 1-.164.166ZM73.532 12.12h-.435a.397.397 0 0 1-.37-.258l-.004-.011-.007-.014a4 4 0 0 0-3.525-2.13 3.95 3.95 0 0 0-3.092 1.477 2.46 2.46 0 0 0-1.86-.841c-1.381 0-2.505 1.142-2.505 2.546a.402.402 0 0 1-.284.385h-1.625a1.08 1.08 0 0 0-1.054 1.088 1.08 1.08 0 0 0 1.072 1.089h13.69c.903 0 1.638-.748 1.638-1.666 0-.918-.735-1.665-1.639-1.665Zm0 2.999h-13.69a.752.752 0 0 1-.745-.757c0-.418.334-.758.745-.758h1.634c.009 0 .017 0 .027-.002l.013-.003a.222.222 0 0 0 .022-.007h.001a.708.708 0 0 0 .413-.318.73.73 0 0 0 .107-.37v-.016c0-1.222.978-2.214 2.18-2.214a2.15 2.15 0 0 1 1.746.889c.004.004.009.01.014.013l.002.002.013.01a.13.13 0 0 0 .047.02.076.076 0 0 0 .02.004l.023.002.025-.003a.127.127 0 0 0 .028-.007.154.154 0 0 0 .044-.024.19.19 0 0 0 .04-.043 3.636 3.636 0 0 1 2.95-1.498c.676 0 1.324.188 1.883.526a3.72 3.72 0 0 1 1.35 1.422l.002.004.003.005.006.01a1.654 1.654 0 0 1 .059.115.723.723 0 0 0 .603.33h.435c.724 0 1.313.597 1.313 1.333s-.59 1.334-1.313 1.334v.001Z"/>
    <path fill="#EEF3F8" stroke="#EEF3F8" stroke-width=".279" d="M40.41 36.428h-6.253a.165.165 0 0 1-.163-.166c0-3.596 2.878-6.521 6.417-6.521.09 0 .163.074.163.166v6.355a.165.165 0 0 1-.163.166Zm-6.088-.332h5.925v-6.022c-3.228.087-5.84 2.74-5.925 6.022Z"/>
    <path fill="#EEF3F8" stroke="#EEF3F8" stroke-width=".279" d="M40.41 36.428h-3.849a.165.165 0 0 1-.163-.166c0-2.25 1.8-4.079 4.013-4.079.09 0 .163.074.163.166v3.913a.165.165 0 0 1-.163.166Zm-3.682-.332h3.52v-3.578c-1.904.085-3.437 1.643-3.52 3.578Z"/>
    <path fill="#EEF3F8" stroke="#EEF3F8" stroke-width=".279" d="M40.41 36.427h-2.34a.165.165 0 0 1-.163-.166c0-1.403 1.123-2.545 2.505-2.545.09 0 .163.074.163.166v2.38a.165.165 0 0 1-.163.165Zm-2.172-.331h2.01v-2.042c-1.072.081-1.93.953-2.01 2.042Z"/>
    <path fill="#EEF3F8" stroke="#EEF3F8" stroke-width=".279" d="M40.41 36.427h-1.475a.165.165 0 0 1-.163-.166c0-.918.735-1.665 1.639-1.665.09 0 .163.074.163.166v1.5a.165.165 0 0 1-.163.165Zm-1.302-.332h1.14v-1.157a1.327 1.327 0 0 0-1.14 1.157Zm3.146-17.991a.165.165 0 0 1-.163-.166v-1.693c0-.092.073-.166.163-.166.09 0 .164.073.164.166v1.693a.165.165 0 0 1-.164.166Zm0-8.412a.165.165 0 0 1-.163-.166V7.832c0-.09.073-.165.163-.165.09 0 .164.073.164.165v1.694a.165.165 0 0 1-.164.166Zm-3.516 6.933a.162.162 0 0 1-.115-.05.168.168 0 0 1 0-.233l1.178-1.197a.162.162 0 0 1 .23 0 .168.168 0 0 1 0 .234l-1.177 1.197a.162.162 0 0 1-.116.049Zm5.855-5.949a.161.161 0 0 1-.116-.05.168.168 0 0 1 0-.233l1.178-1.198a.162.162 0 0 1 .23 0 .168.168 0 0 1 0 .234l-1.177 1.198a.161.161 0 0 1-.115.049Zm1.177 5.949a.162.162 0 0 1-.115-.05l-1.178-1.196a.168.168 0 0 1 0-.234.162.162 0 0 1 .23 0l1.179 1.197a.168.168 0 0 1 0 .234.162.162 0 0 1-.116.049Zm-5.854-5.949a.161.161 0 0 1-.115-.05L38.623 9.43a.168.168 0 0 1 0-.234.162.162 0 0 1 .23 0l1.179 1.198a.168.168 0 0 1 0 .234.161.161 0 0 1-.116.049Zm-.968 2.375h-1.666a.165.165 0 0 1-.164-.166c0-.092.073-.166.164-.166h1.666c.09 0 .163.074.163.166a.164.164 0 0 1-.163.166Zm8.279 0h-1.666a.165.165 0 0 1-.163-.166c0-.092.072-.166.163-.166h1.666c.09 0 .163.074.163.166a.164.164 0 0 1-.163.166Zm-5.575 22.273a.165.165 0 0 1-.163-.166V28.88c0-.09.073-.166.163-.166.09 0 .164.074.164.166v6.278a.165.165 0 0 1-.164.166Z"/>
    <path fill="#EEF3F8" stroke="#EEF3F8" stroke-width=".279" d="M40.41 36.428a.16.16 0 0 1-.114-.05.17.17 0 0 1-.048-.116v-8.988c0-.091.072-.166.163-.166h1.17l10.579-6.323 3.538-2.97a.161.161 0 0 1 .218.01l3.358 3.305 1.922.93a.166.166 0 0 1 .093.15v11.196l8.77-.177a.164.164 0 0 1 .167.165l.027 2.866a.167.167 0 0 1-.047.118.161.161 0 0 1-.116.049H40.41Zm.164-8.988v8.656h29.351l-.024-2.532-8.772.177a.167.167 0 0 1-.118-.047.17.17 0 0 1-.048-.119v-11.26l-1.854-.897a.157.157 0 0 1-.043-.031l-3.273-3.221-3.435 2.884-.021.014-10.628 6.353a.16.16 0 0 1-.083.023h-1.052Z"/>
    <path fill="#EEF3F8" stroke="#EEF3F8" stroke-width=".279" d="M51.066 36.428a.164.164 0 0 1-.163-.165l-.018-2.184c0-.089.068-.163.155-.166l10.079-.504a.167.167 0 0 1 .17.158.165.165 0 0 1-.154.173l-9.921.496.017 2.024a.166.166 0 0 1-.162.168h-.003Zm19.956-6.82a.163.163 0 0 1-.063-.012l-1.319-.555-3.223.477a.16.16 0 0 1-.13-.039.167.167 0 0 1-.057-.125v-1.72l-1.852-.783-3 .673a.166.166 0 0 1-.07-.323l3.05-.684a.166.166 0 0 1 .097.009l2 .845c.061.026.1.086.1.153v1.64l3.082-.455a.169.169 0 0 1 .086.01l1.36.573a.166.166 0 0 1-.062.319v-.003Zm-27.028-.69a.163.163 0 0 1-.138-.078.168.168 0 0 1 .05-.23l2.868-1.833a.162.162 0 0 1 .225.052.168.168 0 0 1-.05.229l-2.868 1.834a.16.16 0 0 1-.087.025Zm0 2.435a.163.163 0 0 1-.138-.078.168.168 0 0 1 .05-.23l2.868-1.833a.162.162 0 0 1 .225.052.168.168 0 0 1-.05.229l-2.868 1.834a.16.16 0 0 1-.087.025Zm0 2.435a.163.163 0 0 1-.138-.078.168.168 0 0 1 .05-.229l2.868-1.834a.162.162 0 0 1 .225.052.168.168 0 0 1-.05.229l-2.868 1.834a.16.16 0 0 1-.087.025Zm4.733-7.656a.163.163 0 0 1-.14-.082.168.168 0 0 1 .056-.227l4.641-2.785a.162.162 0 0 1 .224.058c.045.078.02.18-.057.227L48.81 26.11a.16.16 0 0 1-.083.022v.001Zm0 2.701a.163.163 0 0 1-.14-.082.168.168 0 0 1 .056-.227l4.641-2.786a.162.162 0 0 1 .224.059c.045.078.02.18-.057.227l-4.641 2.785a.16.16 0 0 1-.083.023v.001Zm0 2.407a.163.163 0 0 1-.14-.082.168.168 0 0 1 .056-.227l4.641-2.786a.162.162 0 0 1 .224.058.17.17 0 0 1-.057.228l-4.641 2.785a.16.16 0 0 1-.083.023Zm12.399-6.5a.173.173 0 0 1-.059-.011l-3.563-1.393a.167.167 0 0 1-.094-.215.162.162 0 0 1 .21-.095l3.564 1.393a.167.167 0 0 1-.059.32Z"/>
    <path fill="#EEF3F8" stroke="#EEF3F8" stroke-width=".279" d="M61.126 27.525a.173.173 0 0 1-.059-.01l-3.563-1.394a.167.167 0 0 1-.094-.214.162.162 0 0 1 .21-.096l3.564 1.393a.167.167 0 0 1-.059.321Zm0 2.785a.175.175 0 0 1-.059-.01l-3.563-1.393a.166.166 0 0 1-.094-.214.162.162 0 0 1 .21-.095l3.564 1.392a.166.166 0 0 1-.059.32Zm-5.323 1.284a.165.165 0 0 1-.164-.166V17.943c0-.091.073-.166.164-.166.09 0 .163.074.163.166v13.485a.165.165 0 0 1-.163.166Zm11.169-.912a.165.165 0 0 1-.163-.149.165.165 0 0 1 .145-.182l2.312-.247c.09-.009.17.057.18.148a.165.165 0 0 1-.146.183l-2.311.246h-.017Zm0 1.394a.165.165 0 0 1-.163-.149.165.165 0 0 1 .145-.182l2.312-.246a.165.165 0 0 1 .18.148.165.165 0 0 1-.146.182l-2.311.246-.017.001Z"/>
    <path fill="#C8BFBC" d="m20.345 63.412 1.363-1.846-1.257-1.776h.724l1.119 1.638V59.79h.606v1.638l1.119-1.638h.724l-1.257 1.776 1.363 1.846h-.747L22.9 61.764v1.648h-.606v-1.648l-1.2 1.648h-.749Zm8.012 0h-.613v-2.553l-1.68 2.553h-.614V59.79h.614v2.553l1.68-2.553h.613v3.622Zm1.774 0v-3.053H28.96v-.569h2.95v.569h-1.172v3.053h-.606Zm2.032 0v-.508a.574.574 0 0 0 .203-.018.278.278 0 0 0 .139-.103.72.72 0 0 0 .1-.219 3.42 3.42 0 0 0 .083-.36c.039-.206.07-.42.096-.643a19.888 19.888 0 0 0 .11-1.275l.026-.496h2.424v3.622h-.606v-3.053H33.48l-.03.407c-.01.158-.024.329-.043.513a13.03 13.03 0 0 1-.158 1.157 3.612 3.612 0 0 1-.12.47c-.048.138-.11.252-.19.342a.566.566 0 0 1-.303.179 1.1 1.1 0 0 1-.473-.015Zm5.618.075c-.362 0-.672-.079-.93-.236a1.58 1.58 0 0 1-.596-.664 2.234 2.234 0 0 1-.206-.986c0-.374.069-.702.206-.986.14-.283.338-.504.596-.661.258-.16.568-.239.93-.239.363 0 .673.08.93.239.26.157.46.378.597.661.139.284.209.612.209.986s-.07.703-.21.986a1.558 1.558 0 0 1-.595.664c-.258.157-.569.236-.93.236Zm0-.57c.244 0 .446-.053.606-.162a.983.983 0 0 0 .365-.46 1.8 1.8 0 0 0 .123-.694c0-.265-.04-.495-.123-.689a.984.984 0 0 0-.365-.458 1.086 1.086 0 0 0-.606-.168 1.045 1.045 0 0 0-.606.16c-.16.11-.282.263-.364.461-.08.198-.121.43-.121.694 0 .265.04.495.12.692a.999.999 0 0 0 .363.455c.162.109.365.165.608.168Zm2.437.495V59.79h1.436c.245 0 .445.05.601.149a.913.913 0 0 1 .35.374c.077.153.115.31.115.473 0 .2-.047.37-.143.508a.688.688 0 0 1-.385.282v-.126c.228.052.401.16.518.325a.932.932 0 0 1 .179.56c0 .215-.041.403-.123.564a.884.884 0 0 1-.367.377c-.162.09-.361.136-.599.136h-1.582Zm.614-.571h.892c.106 0 .2-.021.285-.063a.488.488 0 0 0 .269-.46.539.539 0 0 0-.063-.262.46.46 0 0 0-.184-.183.564.564 0 0 0-.289-.07h-.91v1.038Zm0-1.605h.815a.527.527 0 0 0 .233-.05.388.388 0 0 0 .164-.148.452.452 0 0 0 .06-.242c0-.125-.04-.23-.12-.314a.445.445 0 0 0-.337-.126h-.815v.88Zm5.667 2.176h-.613v-2.553l-1.68 2.553h-.614V59.79h.614v2.553l1.68-2.553h.613v3.622Zm.904 0V59.79h.614v2.553l1.68-2.553h.613v3.622h-.613v-2.553l-1.68 2.553h-.614Zm1.451-3.928a.738.738 0 0 1-.384-.104.794.794 0 0 1-.274-.274.738.738 0 0 1-.103-.384h.472a.285.285 0 0 0 .29.289c.08 0 .148-.028.203-.083a.281.281 0 0 0 .086-.206h.472c0 .14-.034.269-.103.384a.788.788 0 0 1-.276.274.733.733 0 0 1-.383.104Zm3.569 3.928V59.79h.606v1.68l1.446-1.68h.744l-1.557 1.776 1.663 1.846h-.77l-1.526-1.69v1.69h-.606Zm4.797.075c-.362 0-.672-.079-.93-.236a1.58 1.58 0 0 1-.596-.664 2.234 2.234 0 0 1-.207-.986c0-.374.07-.702.207-.986.139-.283.337-.504.596-.661.258-.16.568-.239.93-.239.362 0 .672.08.93.239.26.157.459.378.596.661.14.284.21.612.21.986s-.07.703-.21.986a1.559 1.559 0 0 1-.596.664c-.258.157-.568.236-.93.236Zm0-.57c.243 0 .445-.053.606-.162a.983.983 0 0 0 .365-.46 1.8 1.8 0 0 0 .123-.694c0-.265-.041-.495-.123-.689a.984.984 0 0 0-.365-.458 1.086 1.086 0 0 0-.606-.168 1.044 1.044 0 0 0-.606.16c-.16.11-.282.263-.365.461-.08.198-.12.43-.12.694 0 .265.04.495.12.692a.99.99 0 0 0 .362.455c.163.109.366.165.609.168Zm2.437.495V59.79h.546l1.252 2.565 1.252-2.565h.546v3.622h-.566V61.09l-1.111 2.322h-.242l-1.109-2.322v2.322h-.568Zm4.504 0V59.79h2.934v3.622h-.606v-3.053h-1.722v3.053h-.606Zm3.589 0v-.508a.574.574 0 0 0 .203-.018.278.278 0 0 0 .139-.103.723.723 0 0 0 .1-.219c.029-.095.057-.215.083-.36.039-.206.07-.42.096-.643a19.888 19.888 0 0 0 .11-1.275l.026-.496h2.424v3.622h-.606v-3.053h-1.258l-.03.407c-.01.158-.024.329-.043.513a12.879 12.879 0 0 1-.158 1.157 3.612 3.612 0 0 1-.12.47.986.986 0 0 1-.19.342.566.566 0 0 1-.303.179 1.1 1.1 0 0 1-.473-.015Zm4.087 0V59.79h2.339v.569h-1.733v.892h1.43v.569h-1.43v1.023h1.733v.569h-2.34Zm3.143 0V59.79h.606v1.68l1.446-1.68h.745l-1.557 1.776 1.662 1.846h-.77l-1.526-1.69v1.69h-.606Zm4.798.075c-.363 0-.673-.079-.93-.236a1.58 1.58 0 0 1-.597-.664 2.234 2.234 0 0 1-.206-.986c0-.374.069-.702.206-.986.14-.283.338-.504.596-.661.258-.16.568-.239.93-.239.418 0 .766.105 1.044.314.278.208.474.489.586.843l-.611.168c-.07-.236-.19-.42-.36-.553-.169-.134-.389-.201-.658-.201a1.07 1.07 0 0 0-.609.163c-.16.11-.282.263-.365.46-.08.197-.121.427-.123.692 0 .265.04.496.12.694a1 1 0 0 0 .368.458c.163.109.365.163.609.163.27 0 .49-.067.658-.201.17-.134.29-.319.36-.553l.611.168a1.653 1.653 0 0 1-.586.845c-.278.208-.626.312-1.043.312Z"/>
  </g>
  <defs>
    <clipPath id="a">
      <path fill="#fff" d="M8.216 7h84.941v57H8.216z"/>
    </clipPath>
  </defs>
</svg>
