<svg xmlns="http://www.w3.org/2000/svg" width="371" height="967" fill="none" viewBox="0 0 371 967">
  <path fill="#EEF3F8" d="M305.262 105.951c-.482.503-1.126.885-1.89.744-.603-.101-1.005-.523-1.367-.905-10.173-10.957-16.245-27.162-19.019-40.411-.905-4.303-3.961-23.04 8.223-15.823 7.258 4.302 8.605 17.13 10.917 23.382-2.011-5.428 9.791-27.645 18.517-27.986 16.607-.644-11.42 54.686-14.778 60.175-.16.261-.382.563-.623.804l.02.02Z"/>
  <path fill="#fff" d="M328.142 50.58c-.764-7.338-6.695-9.77-12.948-5.97-5.086 3.096-10.816 10.414-13.671 17.752-1.93-6.634-4.645-13.128-11.179-15.742-6.594-2.634-10.032 1.87-10.495 8.123-.804 10.374 3.338 21.834 7.299 31.122 2.452 5.73 9.509 23.825 17.893 22.076.563.1 1.166 0 1.669-.543 6.052-6.434 9.409-17.21 12.767-25.172 3.92-9.268 9.751-21.25 8.665-31.645Zm-8.022 16.99c-4.101 12.385-9.449 25.373-16.185 36.651-5.408-.643-14.013-22.839-14.938-25.473-1.829-5.167-3.418-10.555-4.262-15.984-.302-1.99-1.046-5.187-.523-7.197 1.448-5.53 6.172-5.087 9.53-.282 3.619 5.188 4.262 12.365 6.213 18.276.924 2.774 4.966 1.649 4.383-1.206-1.146-5.55 10.535-28.57 17.592-24.93 4.945 2.533-.624 16.546-1.81 20.165v-.02Z"/>
  <path fill="#EEF3F8" d="M269.797 96.662c-.704.684-1.629 1.187-2.734 1.006-.865-.14-1.468-.684-1.971-1.207-14.697-14.656-23.462-36.33-27.483-54.042-1.307-5.75-5.73-30.822 11.882-21.171 10.495 5.75 12.425 22.9 15.782 31.263-2.915-7.278 14.154-36.973 26.76-37.435 24.006-.845-16.506 73.142-21.351 80.48a7.262 7.262 0 0 1-.885 1.086v.02Z"/>
  <path fill="#fff" d="M284.815 15.196c-7.137 4.182-16.908 15.502-20.648 26.177-2.794-9.47-6.212-19.06-15.742-23.1-9.148-3.88-14.114 2.05-14.476 10.957-.523 12.927 4.504 26.599 9.57 38.18 2.594 5.95 16.466 36.913 26.62 31.223.382-.06.764-.201 1.085-.523 8.123-8.464 13.028-22.276 17.813-32.731 5.67-12.385 13.25-27.323 12.848-41.296-.302-10.093-8.424-13.933-17.09-8.866l.02-.02Zm9.048 25.655c-5.891 18.295-14.516 38.521-25.594 54.445-6.494 1.708-20.89-29.636-22.558-33.878-3.157-8.062-5.911-16.647-6.977-25.272-.402-3.237-.844-7.037-.02-10.233 2.071-8.023 10.455-3.036 14.013 1.085 6.193 7.198 7.178 17.472 10.355 26.137.985 2.694 5.147 1.669 4.383-1.206-2.695-10.194 13.41-32.631 23.402-34.26 11.38-1.85 4.705 17.894 2.996 23.182Zm37.094-5.409c3.096-2.614 6.373-5.026 9.891-7.037 3.277-1.87 7.158-2.634 10.254-4.644 1.387-.905.764-2.835-.804-2.996-3.86-.362-8.223 2.292-11.46 4.202-3.78 2.232-7.218 4.966-10.475 7.902-1.769 1.588.804 4.101 2.594 2.593v-.02Zm24.91 10.092c-7.519-1.146-17.331.04-24.327 3.056-1.347.583-.664 2.875.744 2.754 3.84-.321 7.599-1.327 11.439-1.749 3.881-.422 7.781-.22 11.641-.522 1.87-.141 2.634-3.197.483-3.539h.02Zm-8.947 22.64c-4.101-1.488-8.343-2.896-12.706-3.278-2.152-.2-2.413 3.036-.503 3.64 4.202 1.326 8.444 2.291 12.566 3.86 2.433.924 5.73 3.036 8.364 2.151 1.226-.402 1.528-1.79.723-2.734-1.729-2.071-5.951-2.735-8.444-3.64Zm-7.017 22.678c-3.257-2.453-6.634-4.845-10.394-6.414-1.508-.643-2.855 1.77-1.608 2.775 2.935 2.392 6.192 4.383 9.208 6.695 2.875 2.212 5.589 5.549 8.846 7.077 1.548.724 3.277-.784 2.393-2.393-1.749-3.196-5.59-5.569-8.445-7.72v-.02ZM208.295 23.741c3.096 2.03 6.976 2.774 10.253 4.644 3.519 2.03 6.796 4.423 9.892 7.037 1.79 1.508 4.363-.985 2.594-2.593-3.257-2.936-6.695-5.67-10.475-7.902-3.217-1.91-7.6-4.564-11.46-4.202-1.568.14-2.212 2.071-.804 2.996v.02Zm7.358 25.856c3.84.422 7.6 1.427 11.44 1.749 1.408.12 2.091-2.192.744-2.755-6.996-2.995-16.788-4.181-24.327-3.056-2.131.322-1.408 3.378.482 3.539 3.881.322 7.761.1 11.641.523h.02Zm10.013 18.938c1.89-.603 1.689-3.84-.503-3.64-4.363.383-8.605 1.81-12.706 3.278-2.473.904-6.715 1.568-8.445 3.639-.804.965-.502 2.332.724 2.734 2.614.865 5.931-1.226 8.364-2.151 4.142-1.568 8.364-2.533 12.566-3.86Zm4.222 15.903c-3.76 1.568-7.138 3.98-10.395 6.413-2.875 2.172-6.695 4.524-8.444 7.72-.884 1.609.845 3.137 2.393 2.393 3.257-1.548 5.971-4.865 8.846-7.077 3.016-2.312 6.273-4.282 9.208-6.695 1.247-1.025-.1-3.418-1.608-2.774v.02Zm-47.006 652.093c-4.403-15.823-25.172-30.52-39.889-17.331-12.344 11.058-5.649 34.48 12.867 30.48 15.502-3.358 7.339-28.771-5.046-19.724-2.011 1.468-.181 4.846 1.99 3.418 5.791-3.78 14.376 10.194.825 12.104-4.624.643-10.797-3.257-12.365-7.399-4.222-11.138 8.344-20.668 18.296-18.799 14.476 2.735 21.995 19.02 18.979 32.43-2.372 10.455-10.213 20.508-20.547 24.026-14.798 5.046-26.177-3.699-31.988-16.808-1.025-2.292-4.142-.523-3.78 1.588 3.117 18.457 25.232 26.037 40.854 18.296 14.958-7.419 24.368-25.896 19.804-42.261v-.02Zm164.36-288.469c-4.383 9.107-21.834 9.952-30.178 14.234-11.178 5.75-19.14 16.406-23.201 28.067-.804 2.332 2.955 3.961 4.021 1.689 3.558-7.519 17.371-5.69 24.388-7.942 7.8-2.493 14.696-6.856 19.2-13.752.161-.241.241-.502.281-.744 4.263-6.172 6.917-12.867 9.229-19.964.703-2.171-2.714-3.679-3.74-1.568v-.02Zm-39.728 34.098c-1.99.302-3.96.704-5.79 1.327 6.072-10.676 15.762-17.19 27.966-21.412 4.142-1.427 9.892-2.935 14.496-5.529-1.548 3.88-3.357 7.64-5.549 11.279-.08.06-.161.081-.241.161-9.228 9.59-18.256 12.224-30.882 14.194v-.02Zm49.479 4.644c-.161.322-.322.644-.503.965-7.499 6.776-15.239 13.672-24.468 17.974-10.133 4.725-21.572 3.901-31.706 8.505-14.857 6.735-24.628 20.688-32.711 34.279-1.528 2.574 2.192 4.524 3.901 2.292 5.971-7.781 24.91-4.142 33.616-5.066 12.324-1.307 25.292-2.916 35.184-10.938.623-.502.824-1.085.764-1.648 10.997-11.46 15.983-28.771 19.522-43.81.12-.502.06-.965-.121-1.367.322-1.849-2.553-2.995-3.478-1.186Zm-41.296 27.806c14.234-2.413 24.971-8.344 35.405-16.647-2.995 5.348-6.313 10.474-10.615 15.139-7.258 7.861-15.582 10.836-25.815 12.485-12.506 2.011-23.966 5.348-34.219 11.842 8.806-11.46 19.622-20.165 35.244-22.819Zm-23.463 27.061c-3.9.121-8.585.101-13.008.865 7.66-4.986 15.944-8.766 25.011-10.857 8.283-1.91 17.049-1.95 24.991-5.167 9.168-3.699 16.727-11.44 22.437-20.246-2.996 9.168-7.057 18.054-13.289 24.85-.423.04-.865.181-1.267.503-12.244 9.469-30.037 9.57-44.895 10.052h.02Zm-1.769-32.791c.201-.241.301-.503.382-.744 3.096-3.9 4.905-10.354-.483-13.149-3.699-1.91-7.861-.663-11.54 1.79.784-2.936.905-5.871-.483-8.444-1.89-3.499-5.589-4.263-8.987-2.292-4.966 2.875-7.278 10.354-9.268 15.34-4.222 10.555-6.494 21.593-7.459 32.892-.181 2.151 2.613 2.895 3.981 1.649 6.192-5.65 12.626-10.958 19.522-15.763 5.207-3.639 10.334-6.313 14.355-11.299l-.02.02Zm-25.112-8.163c.986-2.392 2.936-8.926 5.368-9.932 8.364-3.438.503 12.647-.965 15.602-1.206 2.453 2.313 4.584 3.72 2.171 1.789-3.096 4.604-6.896 8.082-8.263 7.962-3.156 9.43.644 6.615 6.032-.061.04-.101.04-.161.1-9.711 7.982-20.367 14.376-30.077 22.297 1.286-9.63 3.719-18.939 7.438-28.007h-.02Zm.865 67.634c.181-.242.302-.483.382-.724 2.895-3.539 4.383-9.369-.543-11.842-3.197-1.609-6.775-.664-10.012 1.307.583-2.413.583-4.805-.583-6.957-1.749-3.257-5.228-3.981-8.384-2.171-4.443 2.533-6.615 9.208-8.404 13.611-3.76 9.269-5.811 18.979-6.675 28.911-.181 2.152 2.594 2.876 3.981 1.649 5.529-4.946 11.279-9.59 17.411-13.772 4.684-3.217 9.268-5.529 12.847-10.012h-.02Zm-22.357-7.198c.844-2.031 2.634-7.821 4.745-8.605 6.976-2.614.06 10.776-1.227 13.33-1.246 2.453 2.292 4.564 3.72 2.171 1.709-2.915 4.463-6.393 7.861-7.439 5.629-1.749 7.359.503 4.946 5.207l-.121.061c-8.625 6.755-17.873 12.304-26.438 19.1 1.166-8.203 3.317-16.125 6.534-23.825h-.02Zm26.096 274.798c17.512-27.785 9.651-66.608-21.01-81.024-12.746-5.991-28.227-6.695-39.868 2.131-11.36 8.626-16.486 24.509-13.249 38.321 3.659 15.581 18.798 23.362 33.455 16.245 12.887-6.253 14.375-25.654 1.347-32.812-2.916-1.608-5.509 2.855-2.594 4.443 7.801 4.283 9.369 16.668 1.528 22.438-2.996 2.211-7.278 3.337-11.118 3.458-.101-.02-.181-.08-.282-.101-21.894-2.513-13.551-30.821-1.407-39.124 10.374-7.118 23.986-5.107 33.375 2.654 19.2 15.883 20.909 50.082-.101 65-19.401 13.772-49.599 15.642-64.819-5.027-11.561-15.682-12.606-38.22-2.372-54.726 1.708-2.774-2.614-5.267-4.343-2.533-16.788 26.458-20.306 68.358 13.872 82.874 26.419 11.218 62.085 2.472 77.627-22.217h-.041Zm-98.455-23.865c1.207 7.479 3.921 14.717 8.103 21.091 13.53 20.628 39.526 23.965 61.26 14.878 23.905-9.993 34.36-33.395 26.016-58.024-6.514-19.221-27.061-35.888-47.87-26.358-10.254 4.705-17.894 17.894-18.296 29.434-.1-.503-.181-.985-.261-1.488-2.493-17.753 9.469-35.526 28.207-36.069 34.4-1.025 52.274 37.075 42.342 66.227-9.651 28.348-41.397 41.135-69.464 34.098-23.121-5.79-31.263-24.226-30.057-43.769l.02-.02ZM55.918 788.301c-1.307 1.87 1.327 4.604 3.196 3.197 14.919-11.078 36.451-11.762 51.007.523 12.747 10.756 17.834 29.816 12.164 45.498-6.132 16.969-32.892 29.313-47.167 13.772-18.718-20.347 7.399-47.951 30.46-38.361 4.041 3.599 6.695 8.565 6.855 14.194.161 5.811-2.292 12.104-7.559 15.16-7.74 4.463-19.06-.784-16.808-10.937.683-3.077-4.041-4.383-4.725-1.307-2.473 11.178 6.494 20.688 17.974 18.718 13.511-2.312 18.98-18.135 14.476-29.897-10.535-27.464-50.705-18.416-57.48 6.876-8.083 30.198 25.513 49.921 51.227 40.09 26.72-10.234 37.316-45.498 24.127-70.087-15.823-29.494-57.662-35.968-77.707-7.479l-.04.04Zm57.923 70.067c-10.978 6.594-25.815 7.761-36.994 1.045-11.962-7.197-18.517-23.945-12.083-36.852 5.408-10.837 17.391-17.251 28.931-15.26-16.285.402-30.8 13.691-28.127 32.389 3.358 23.463 30.339 27.585 47.871 16.265 20.004-12.907 19.12-43.407 5.891-60.677-11.662-15.24-31.807-20.065-49.238-14.556 17.632-11.722 42.221-5.771 55.772 12.123 14.958 19.763 9.449 52.575-12.043 65.523h.02Zm223.891-46.624c-3.217 2.312-6.554 6.695-8.605 11.38-1.508-4.785-3.8-9.289-8.504-10.636-5.208-1.488-7.319 2.553-7.62 7.157-.523 7.882 7.982 42.302 18.416 40.11.563.101 1.146-.04 1.669-.563 4.363-4.523 6.534-12.344 8.846-18.034 2.956-7.298 8.103-17.733 6.454-25.875-1.166-5.71-6.112-6.756-10.656-3.519v-.02Zm3.177 18.798a177.487 177.487 0 0 1-10.656 25.393c-4.986-1.367-12.023-27.061-12.546-30.921-.422-3.217-1.708-12.426 4.906-5.409 2.996 3.177 3.358 9.932 4.604 14.014.865 2.854 4.866 1.628 4.383-1.207-.643-3.78 7.801-20.99 12.063-17.15 2.373 2.152-1.95 12.808-2.754 15.28Zm-40.452 32.229c-5.971 4.021-12.546 13.31-15.642 22.378-2.03-8.123-4.926-16.266-12.465-19.704-7.861-3.578-11.158 3.036-11.52 9.932-.644 12.184 3.458 25.333 7.62 36.511 2.553 6.836 10.716 30.902 20.346 28.55.583.12 1.186 0 1.689-.583 6.232-7.56 9.469-18.939 13.008-27.926 4.906-12.486 11.42-27.243 10.937-40.955-.281-8.283-6.212-13.39-13.953-8.182l-.02-.021Zm6.233 25.534c-4.584 16.265-10.777 33.556-19.06 48.393-6.132-.563-16.044-28.69-17.069-31.866-2.272-7.158-4.243-14.597-5.047-22.096-.241-2.332-.683-5.026-.301-7.359 1.206-7.358 6.091-7.177 10.555-1.005 4.725 6.554 5.288 16.185 7.559 23.744.845 2.815 4.966 1.649 4.383-1.206-1.487-7.198 9.912-32.932 18.779-31.646 7.237 1.046 1.387 18.819.201 23.061v-.02Zm-92.645-9.087c-3.558-2.614-8.605-1.649-11.399 1.628-3.298 3.881-3.177 10.515 1.93 12.546 3.518 2.01 8.263 1.769 11.098-1.367 3.237-3.579 2.151-10.033-1.629-12.807Zm-1.849 10.273c-1.388 1.468-3.961 1.709-5.771.945-1.729-1.99-2.05-4.945-.06-6.916 1.387-1.367 3.76-1.809 5.308-.442 1.689 1.468 2.091 4.745.523 6.434v-.021Zm49.338 54.083c-2.594-1.809-6.233-1.206-8.364 1.066-2.574 2.754-2.674 8.464 1.669 9.389 2.593 1.408 6.031 1.186 8.082-1.126 2.372-2.694 1.468-7.358-1.387-9.329Zm-2.071 6.756c-.623.724-2.011.925-2.956.643-.643-1.086-.965-2.372.081-3.357.683-.624 1.789-.825 2.533-.242.784.644 1.005 2.172.342 2.936v.02Zm-24.931-295.345c-3.297 3.88-3.176 10.515 1.93 12.545 3.519 2.011 8.264 1.769 11.098-1.367 3.237-3.579 2.152-10.032-1.628-12.807-3.559-2.614-8.605-1.649-11.4 1.629Zm9.53 8.645c-1.387 1.467-3.961 1.709-5.77.945-1.729-1.991-2.051-4.946-.06-6.916 1.387-1.368 3.759-1.81 5.307-.443 1.689 1.468 2.091 4.745.523 6.434v-.02Zm83.899-104.929c-3.559-2.614-8.605-1.649-11.4 1.628-3.297 3.88-3.176 10.515 1.93 12.546 3.519 2.01 8.264 1.769 11.099-1.367 3.237-3.579 2.151-10.033-1.629-12.807Zm-1.85 10.273c-1.387 1.468-3.96 1.709-5.77.945-1.729-1.99-2.051-4.946-.06-6.916 1.387-1.367 3.759-1.809 5.308-.442 1.688 1.467 2.091 4.745.522 6.433v-.02Zm-4.785 124.31c3.137 0 3.137-4.865 0-4.865-3.136 0-3.136 4.865 0 4.865ZM291.41 569.035c-2.735 0-2.735 4.242 0 4.242 2.734 0 2.734-4.242 0-4.242Zm-1.307 270.997c2.895 0 2.895-4.503 0-4.503s-2.895 4.503 0 4.503Zm-135.891-43.246c-2.815 0-2.815 4.363 0 4.363s2.815-4.363 0-4.363ZM78.295 531.377c2.593 1.408 6.031 1.186 8.082-1.126 2.372-2.694 1.468-7.358-1.387-9.329-2.594-1.809-6.233-1.206-8.364 1.066-2.574 2.754-2.674 8.464 1.669 9.389Zm1.769-6.413c.684-.624 1.79-.825 2.533-.242.784.644 1.005 2.172.342 2.936-.623.724-2.01.925-2.955.643-.644-1.086-.966-2.372.08-3.357v.02ZM44.98 848.698c-2.593-1.809-6.232-1.206-8.363 1.066-2.574 2.754-2.674 8.464 1.668 9.389 2.594 1.407 6.032 1.186 8.083-1.126 2.372-2.694 1.467-7.359-1.388-9.329Zm-2.07 6.755c-.624.724-2.01.925-2.956.644-.643-1.086-.965-2.373.08-3.358.684-.623 1.79-.824 2.534-.241.784.643 1.005 2.171.342 2.935v.02Zm266.735-596.119c8.223-12.908 25.072-15.944 38.281-8.766 10.997 5.971 15.32 20.367 11.801 32.048-5.549 18.336-39.486 23.141-40.491-.041-.322-7.619 6.353-12.907 13.571-13.028 12.686-.221 12.002 20.166.944 15.743-2.472-.985-3.94 2.915-1.769 4.202 14.476 8.585 21.613-15.501 9.53-22.84-12.586-7.64-29.454 4.242-26.981 18.417 3.498 20.225 30.399 23.462 43.327 10.193 11.379-11.681 9.891-33.556-1.77-44.553-14.134-13.33-40.431-10.817-49.237 7.016-.905 1.85 1.648 3.378 2.774 1.629l.02-.02Zm-2.211 80.903c6.232-7.62 15.702-6.232 24.468-5.77.261 0 .502-.04.723-.121 7.238 1.649 16.587 2.514 22.438-2.714 5.247-4.664 4.966-11.922.643-17.149-16.064-19.422-43.166 10.494-51.952 22.919-1.508 2.132 1.991 4.886 3.659 2.835h.021Zm30.962-26.358c6.212-.864 13.651.684 16.044 7.339 2.352 6.534-4.786 9.067-9.008 9.851-3.98.764-8.263.081-12.344-.04a1.489 1.489 0 0 0-.684-.281c-5.911-.986-11.942-1.729-17.371-.523 6.414-7.66 14.556-15.139 23.363-16.366v.02Zm19.381 34.34c-8.685-8.323-25.413-4.544-35.285-1.447-2.473.784-1.467 4.523 1.066 3.9 10.435-2.614 15.38 12.707 25.895 12.325.282 0 .523-.101.744-.222 7.439-.683 14.657-7.78 7.58-14.576v.02Zm-7.741 11.299s-.06-.04-.12-.04c-7.057-1.307-11.601-7.861-17.391-11.178 3.217-.644 6.454-1.006 9.751-.885 2.553.08 5.127.402 7.58 1.146a17.528 17.528 0 0 1 4.483 1.89c1.347 5.911-.101 8.927-4.303 9.087v-.02Zm-143.53-57.541c5.227-24.368 24.427-43.488 49.981-44.895 28.871-1.609 57.863 23.362 41.377 53.138-6.273 11.339-19.141 21.191-32.651 20.185-11.621-.844-19.663-11.741-20.125-22.839-.463-10.937 6.574-20.347 17.994-20.407 6.051-.04 11.359 2.433 12.927 8.545 1.066 4.101-.1 9.007-3.337 11.962-5.67 5.188-17.492.222-11.44-7.338 1.608-2.011-.824-4.524-2.855-2.855-7.62 6.313-2.212 17.21 6.856 18.075 10.314.985 17.793-11.078 16.004-20.367-1.89-9.852-12.224-13.873-21.292-12.666-10.253 1.367-17.632 8.906-19.341 19.06-1.769 10.575 2.694 22.477 11.4 28.85 11.5 8.404 27.021 4.484 37.496-3.618 25.373-19.583 22.136-57.361-7.922-69.926-33.937-14.195-72.801 8.182-78.229 44.251-.302 2.011 2.674 2.936 3.116.865l.041-.02Z"/>
  <path fill="#fff" d="M155.237 242.566c-20.266 4.725-32.55 25.895-24.689 45.779 6.012 15.24 27.504 19.402 37.979 5.791 12.525-16.265-15.843-33.737-22.98-13.431-.563 1.609 2.07 2.755 2.794 1.187 5.006-11.139 22.82-4.886 18.376 6.876-1.508 4.021-5.488 6.614-9.409 7.981-8.102 2.795-16.788.503-21.151-7.137-2.292-4.021-3.458-8.062-3.699-12.023.04-.141.08-.301.06-.482-.08-.805-.08-1.609-.06-2.393a25.936 25.936 0 0 1 1.025-6.112c3.66-10.957 16.266-18.034 28.087-14.998 14.838 3.82 22.518 18.878 22.88 33.234.422 17.773-8.987 36.47-18.959 52.152-13.491 16.688-19.904 40.171-14.174 59.472.563 1.91 3.418 1.105 2.975-.825-1.709-7.418-1.849-14.857-.703-22.075.04-.06.1-.101.14-.161 9.47-18.376 25.514-43.206 49.117-42.804 13.35.221 30.781 13.651 20.93 28.047-3.398 4.986-10.596 7.097-15.682 5.348 9.851-.221 21.713-11.46 11.761-23.302-6.715-7.982-18.516-7.881-26.418-1.729-9.791 7.62-12.143 22.156-5.73 32.651 14.898 24.367 47.649 7.539 54.184-14.396 8.484-28.469-24.006-47.066-48.635-39.728-.985.302-1.97.624-2.955.986 10.394-13.411 15.581-33.375 12.566-48.957-4.243-21.894-26.519-33.917-47.63-28.991v.04Zm76.722 90.513c16.607 17.593-.925 49.66-24.328 47.65-14.395-1.227-23.342-17.291-16.184-30.138 4.302-7.74 16.446-13.229 23.402-5.549 2.976 3.277 4.423 7.419 1.87 11.561-2.171 3.518-13.229 7.599-14.154-.181-.382-3.076-4.544-3.157-4.845 0-1.146 12.063 9.851 17.632 20.547 14.093 13.189-4.362 16.687-21.351 8.243-31.726-9.61-11.801-26.358-13.43-39.547-7.479-10.093 4.564-18.497 12.305-25.151 21.332 2.674-4.665 5.89-9.068 9.529-13.109 15.502-17.23 42.624-25.574 60.658-6.474l-.04.02Zm-51.992-7.438s-.041.1-.081.16a60.548 60.548 0 0 0-3.036 2.152c3.197-6.434 5.851-13.069 8.022-19.301 5.248-15.059 5.791-33.154-4.141-46.504-7.017-9.429-19.201-15.179-30.741-12.525 4.302-2.172 9.107-3.458 14.073-3.599 20.669-.563 35.667 15.581 35.044 35.848-.543 17.23-9.068 30.58-19.14 43.769Zm-50.324-220.293c-.603 2.292 2.916 3.981 3.961 1.669 3.257-7.097 19.643-8.505 26.559-10.254.302-.08.523-.221.724-.402 13.068-1.025 34.058-1.206 39.285-16.064 3.981-11.36-5.549-22.116-16.265-24.267-28.63-5.75-48.152 25.835-54.284 49.318h.02Zm67.393-30.319c-.141 15.883-24.549 16.808-36.39 18.236-.282-.161-.584-.282-.966-.262-5.85.382-16.405 1.89-23.442 5.77 5.589-15.802 16.064-32.188 32.068-37.596 10.595-3.599 28.891-.684 28.75 13.852h-.02Zm-80.542-.181s.121-.14.161-.22c10.113-23.645 43.146-19.503 60.617-34.602 10.455-9.027 9.932-28.49-3.84-33.857-16.044-6.253-36.27 3.357-46.925 15.46-11.521 13.07-19.784 37.034-13.993 54.204.824 2.453 4.463 1.528 4-.965l-.02-.02Zm14.114-51.288c8.927-9.45 43.206-26.8 49.117-4.986 8.706 32.168-52.494 26.599-64.135 50.906-1.87-15.943 4.342-34.6 15.018-45.92ZM81.25 79.03c-8.384 6.977-9.288 17.01-5.971 26.961 2.573 7.7 7.298 14.476 9.872 22.176 3.699 10.998 2.674 22.438-2.03 32.912-1.026 2.272 1.427 4.162 3.377 2.614 16.446-13.169 34.138-36.089 32.53-58.486 0-.221-.08-.422-.161-.603.081-11.138-3.136-25.715-14.717-30.158-7.68-2.955-16.728-.543-22.9 4.604v-.02Zm34.501 25.534s-.061.1-.081.181c-4.161 20.065-11.56 36.531-25.875 50.323 1.689-5.991 2.332-12.164 1.568-18.597-1.287-10.696-7.057-19.301-11.017-29.072-4.886-12.104-2.675-25.212 11.218-29.374 16.788-5.047 23.604 12.948 24.167 26.559l.02-.02Z"/>
  <path fill="#fff" d="M148.683 85.726c-1.87 1.688.643 5.066 2.734 3.538 9.811-7.157 22.458-1.528 32.47-7.82.221-.142.382-.323.523-.504 7.66-5.468 4.704-15.702-5.067-15.48-14.737.341-20.829 11.339-30.66 20.266Zm19.803-13.19c2.132-1.105 4.564-1.809 6.897-2.332 1.427-.321 3.196-.864 4.684-.643 4.604.704 7.017 4.845 2.352 8.605-7.68 2.493-16.003 1.468-23.684 3.056 2.855-3.398 5.831-6.675 9.731-8.706l.02.02Zm-40.31-20.386c8.424-9.289 21.733-11.701 33.093-15.863 6.072-2.232 11.058-5.59 9.228-12.687 0-.06-.06-.1-.08-.14-3.358-9.35-12.104-9.128-20.126-5.288-12.746 6.072-21.573 18.758-25.674 31.927-.623 1.99 2.131 3.64 3.539 2.07l.02-.02Zm17.27-26.036c5.609-4.504 17.652-11.863 21.694-1.77.422 7.76-13.933 10.033-19.704 12.204-5.629 2.111-10.997 4.041-15.802 7.158 3.217-6.796 7.78-12.767 13.812-17.592ZM88.91 89.806c-2.211 3.8-1.387 10.254-.261 14.255 2.774 9.851 9.47 16.727 6.996 27.725-.603 2.694 3.016 3.538 4.042 1.106 4.704-11.279 11.057-24.589 6.453-36.933 0 0 0-.02-.02-.04-1.608-7.842-11.299-16.346-17.21-6.133v.02Zm2.916 4.986c2.472-8.203 8.966-4.222 11.178 1.87.06 6.213.603 11.882-.925 18.075-.563 2.252-1.327 4.483-2.151 6.675-.462-2.393-1.267-4.785-2.352-7.278-1.77-3.961-4.182-7.801-5.167-12.064-.463-2.01-1.207-5.146-.563-7.278h-.02Zm-2.393-31.504c0 2.734 3.9 2.613 4.182 0 .885-8.243 4.705-15.622 5.247-23.925.483-7.801.724-16.105-2.09-23.463-.061-.141-.141-.242-.222-.362C94.44 8.943 90.277 1.565 82.86.198 76.727-.929 70.353 2.87 68.463 8.741c-2.05 6.374.724 14.034 4.021 19.462 7.399 12.184 16.99 19.522 16.949 35.084Zm-1.97-56.476c2.975 2.393 4.704 6.273 6.192 9.731v.201c1.287 8.746 2.151 19.422.342 28.208-.503 2.473-1.227 4.865-1.95 7.238-2.111-7.218-6.233-13.37-11.42-19.884-4.122-5.147-8.102-10.495-8.625-17.331-.644-8.404 7.197-14.818 15.48-8.163h-.02ZM39.914 73.621s.16.06.241.101c9.41 8.686 18.276 17.632 24.488 28.952 1.046 1.91 3.76.904 3.88-1.046 1.026-17.17.403-35.365-4.322-52.032-2.774-9.771-8.283-18.879-19-20.81-9.449-1.688-18.577 4.344-21.03 13.652-3.096 11.822 6.635 24.77 15.723 31.183h.02Zm-9.751-34.118c7.7-12.284 22.638-5.71 27.564 4.886 6.936 14.918 7.56 33.756 6.956 50.484-6.152-9.088-13.892-16.607-22.477-23.644-.06-.1-.1-.221-.181-.322-6.977-8.082-19.18-19.683-11.842-31.404h-.02Zm36.993 160.761c4.162-28.087 6.715-58.406-3.84-85.447-3.88-9.972-8.947-18.9-19.16-23.242-8.907-3.8-20.105-3.599-28.389 1.629-.341.22-.542.502-.703.824-20.79 11.46-16.446 34.862-2.996 50.726 8.705 10.253 20.688 16.586 30.299 25.855 6.775 6.534 20.165 19.039 20.004 29.012-.04 2.674 4.383 3.418 4.785.643Zm-29.092-39.647c-9.248-7.319-19-13.431-25.976-23.202-10.173-14.234-10.254-29.896 4.705-40.431.18 0 .341 0 .543-.06 50.363-16.588 50.504 53.459 46.503 91.116-6.011-10.917-18.497-21.673-25.775-27.423Zm-15.561 2.935c-11.36-4.202-23.885 4.021-21.955 16.225-.08.282-.1.583 0 .925 5.428 20.266 36.672 8.344 43.688 27.102.986 2.634 5.168 1.568 4.283-1.186-4.705-14.577-9.59-37.014-25.996-43.086l-.02.02Zm8.384 29.032c-8.887-2.453-23.624-2.232-26.82-12.847 0-.04-.041-.08-.061-.121.04-7.941 6.494-14.134 14.817-12.565 5.55 1.045 10.234 5.73 13.25 10.253 3.84 5.73 6.434 12.687 8.685 19.603-2.875-1.93-6.212-3.297-9.892-4.303l.02-.02Z"/>
  <path fill="#fff" d="M37.561 106.414c-8.766-3.458-18.155-.563-19.18 9.67-1.468 14.898 15.3 29.193 25.272 37.698.181.16.382.261.583.321 3.257 4.323 6.595 8.545 9.57 13.069 1.166 1.789 3.64.965 3.82-1.046 1.81-18.175.402-51.65-20.085-59.712h.02Zm-14.415 15.119c-3.62-17.029 15.662-12.546 21.934-3.197 7.801 11.601 9.45 27.786 8.827 41.98a75.858 75.858 0 0 0-7.117-8.163 1.94 1.94 0 0 0-.282-.583c-6.997-9.65-20.789-17.894-23.362-30.017v-.02ZM14.722 21.71c2.594 1.407 6.031 1.186 8.082-1.126 2.373-2.694 1.468-7.359-1.387-9.329-2.594-1.81-6.233-1.206-8.364 1.066-2.573 2.754-2.674 8.464 1.669 9.389Zm1.77-6.414c.683-.623 1.788-.824 2.532-.241.784.643 1.006 2.171.342 2.935-.623.724-2.01.925-2.955.644-.644-1.086-.965-2.373.08-3.358v.02Zm262.472 104.929c2.494 1.348 5.771 1.167 7.801-.985 2.433-2.573 1.629-7.217-1.186-9.208-2.513-1.769-6.112-1.266-8.203.945-2.533 2.674-2.714 8.364 1.609 9.228l-.021.02Zm1.83-6.252c.623-.543 1.588-.704 2.252-.201.764.583.985 2.01.362 2.754-.563.684-1.87.885-2.755.623-.603-1.045-.904-2.271.141-3.176ZM124.436 227.869c-3.559-2.613-8.605-1.648-11.4 1.629-3.297 3.88-3.176 10.515 1.93 12.545 3.519 2.011 8.264 1.77 11.098-1.367 3.237-3.578 2.152-10.032-1.628-12.807Zm-1.85 10.274c-1.387 1.468-3.961 1.709-5.77.945-1.729-1.99-2.051-4.946-.06-6.916 1.387-1.367 3.759-1.81 5.307-.443 1.689 1.468 2.091 4.745.523 6.434v-.02Zm-40.13-50.102c-2.453 0-2.453 3.8 0 3.8s2.453-3.8 0-3.8Zm245.304-69.987c2.614 0 2.634-4.061 0-4.061s-2.634 4.061 0 4.061Zm-72.339 242.73c-2.714 0-2.714 4.202 0 4.202 2.715 0 2.715-4.202 0-4.202Zm-129.417 14.98c.402 1.568 2.212 2.553 3.559 1.206a2.175 2.175 0 0 0 .543-2.071c-.241-.885-.945-1.327-1.769-1.488-.242-.221-.463-.442-.704-.663-1.528-1.468-3.78.804-2.312 2.312.221.241.462.482.683.704Zm244.118 249.545c-1.528-10.515-10.455-12.827-18.356-9.912 3.779-9.771 3.9-22.357-6.876-26.619-9.209-3.639-19.201 2.674-24.609 10.716-2.513-6.454-8.786-10.756-16.506-9.168a2.13 2.13 0 0 0-1.006.483c-3.94 1.909-6.454 4.925-8.263 8.524-4.021-9.771-12.666-16.325-24.388-10.837-5.086 2.373-9.188 6.836-11.017 12.124-1.689 4.885-.784 9.409.904 13.852-4.262-2.553-9.007-3.699-14.415-1.749-6.313 2.252-11.138 8.243-11.701 14.979-1.126 13.168 12.264 20.627 23.644 18.295-3.418 9.49.623 21.252 10.213 25.695 10.254 4.745 21.854 1.005 28.328-7.319 1.206 6.454 5.73 12.184 12.968 12.767 8.344.684 12.968-5.931 13.953-13.088 6.836 7.559 16.366 9.831 26.7 3.82 11.721-6.796 11.319-18.175 5.448-27.806 7.68-.161 16.105-7.057 14.999-14.757h-.02Zm-16.507 33.033c-2.071 3.659-6.333 6.454-10.233 7.72-9.59 3.137-16.064-1.427-20.809-9.429-1.206-2.051-4.182-.643-3.72 1.568 3.981 19.181-23.523 18.457-19.24-.301.543-2.333-2.634-3.077-3.499-.965-3.739 9.067-14.274 14.073-23.744 11.399-10.595-2.995-15.4-17.33-7.439-25.634 1.79-1.87-.583-5.308-2.875-3.719-7.419 5.147-20.447 3.116-23.121-6.816-1.427-5.288 1.568-11.48 6.253-14.094 7.68-4.262 13.993.865 19.2 6.052 2.031 2.03 4.725-.523 3.72-2.855-4.162-9.61-9.007-20.91 2.372-27.625 3.358-1.99 7.439-2.875 11.259-1.869 7.439 1.95 9.007 9.067 10.173 15.521.423 2.412 3.901 2.071 4.544 0 1.649-5.348 3.498-9.932 8.726-12.465 7.961-1.528 12.123 5.75 11.54 12.585-.221 2.674 3.941 3.137 4.604.624 2.292-8.445 13.793-19.824 23.262-14.295 9.409 5.489 4.142 20.125-.482 26.68-1.488 2.09 1.729 4.403 3.478 2.673 1.709-1.668 5.006-4.342 7.519-4.423 5.489-.161 12.767 4.403 10.193 10.576-1.769 4.242-10.173 8.243-14.415 5.287-2.111-1.467-4.142 1.649-2.614 3.378 4.805 5.449 9.771 12.546 5.348 20.427Zm-61.461 42.059c1.89-8.726.502-17.974-9.771-21.07-8.404-2.534-16.869 2.231-21.171 9.308-3.82-7.78-12.204-12.766-21.472-9.851-8.726 2.734-12.747 11.038-12.044 19.341-9.409-5.067-22.618-3.699-24.689 9.409-1.93 12.264 10.736 17.492 20.769 15.22-1.689 8.062 1.83 16.607 10.153 20.105 9.57 4.041 18.678-1.568 22.438-10.032 3.257 6.192 10.193 10.414 17.551 9.308 7.299-1.106 11.802-7.439 13.029-14.274 7.459 5.287 20.366 1.548 23.322-7.681 3.659-11.46-8.264-22.799-18.095-19.783h-.02Zm9.409 22.679c-4.081 3.076-12.063 3.518-14.717-2.634-.885-2.051-4.564-1.066-4.303 1.166.584 4.765-.361 9.992-4.101 13.39-7.64 6.976-19.462-.06-20.527-9.168-.262-2.171-3.378-2.292-3.479 0v.141c-.08.14-.16.261-.201.442-1.97 7.58-8.705 14.415-17.069 11.721-8.062-2.593-11.138-11.017-7.017-18.476 1.146-2.091-1.226-4.725-3.377-3.378-7.118 4.463-22.92 1.608-18.015-10.334 4.182-10.153 16.366-5.63 21.453.362 1.91 2.252 5.026-.623 3.88-2.996-3.639-7.539-1.066-16.949 7.137-19.482 8.646-2.694 16.587 3.579 17.21 12.626.222 3.237 4.544 3.096 4.926 0 .583-4.805 3.78-8.786 7.962-10.997 5.127-2.715 9.047-2.091 13.189 1.89 5.77 5.569 3.78 11.661.905 18.496-.925 2.172 2.593 4.202 4.041 2.353 7.72-9.952 23.945 5.971 12.123 14.857l-.02.021ZM198.464 909.697c-3.056-14.797-16.286-19.361-27.384-13.792 1.146-12.184-9.932-24.609-22.377-26.338-11.741-1.628-22.779 5.348-28.368 15.28-6.092-12.706-25.192-12.103-32.068-.161-5.509-13.048-17.29-22.859-32.51-16.526-12.365 5.147-18.577 18.476-16.486 31.002-7.178-2.473-15.622.824-19.382 8.886-4.745 10.154 1.448 17.613 10.012 19.985-6.292 6.936-5.187 18.276 3.88 24.629 9.812 6.876 22.78 4.363 29.797-4.242 2.955 9.168 9.63 17.27 19.803 18.436 11.601 1.327 20.347-6.715 24.71-16.566 6.313 9.952 22.055 8.846 29.333-1.428 5.107 10.616 18.638 16.305 30.259 11.138 10.655-4.744 14.475-18.014 9.65-27.745 5.308 1.026 10.696.804 15.179-2.935 5.63-4.685 7.379-12.687 5.932-19.643l.02.02Zm-12.526 17.914c-4.343 1.407-9.007-.06-13.169-1.428-.221-.16-.442-.321-.744-.422-.201-.08-.402-.161-.603-.221-2.413-.925-4.262 2.594-2.473 4.262 8.042 7.54 6.072 22.056-4.805 25.695-10.555 3.538-22.88-3.74-23.242-15.22-.1-2.996-4.845-3.941-5.448-.744-1.086 5.69-3.921 10.354-9.811 12.023-7.681 2.172-14.577-2.794-14.717-11.098-.041-2.975-4.926-3.9-5.409-.724-1.568 10.093-7.901 21.593-19.602 21.754-11.058.161-17.472-11.078-18.397-20.748-.301-3.056-4.423-3.82-5.428-.744-2.453 7.439-10.777 12.505-18.356 10.856-4.182-.904-8.203-3.035-10.354-6.875-3.097-5.57-.985-13.29 5.75-15.341 3.558-1.085 1.99-5.891-1.488-5.408-8.304 1.146-15.42-3.72-13.23-11.721 1.83-6.615 11.983-11.802 17.734-3.82 2.05 2.854 6.433.422 4.764-2.795-5.629-10.837-1.608-25.051 9.209-30.862 16.325-8.745 27.624 8.364 29.796 22.639.462 3.076 5.609 2.352 5.428-.744-1.086-18.919 26.579-21.271 25.393-.422-.181 3.016 4.885 3.78 5.348.724 1.528-10.033 8.706-18.618 18.839-20.93 13.752-3.136 31.565 12.666 22.618 26.519-1.588 2.453 2.071 5.308 4.061 3.136 8.987-9.751 23.181-8.142 25.976 6.052 1.206 6.072-.623 14.275-7.66 16.567l.02.04Z"/>
  <path fill="#fff" d="M331.58 176.882c14.255-8.243 17.069-29.534 1.448-39.366-12.305-7.72-32.249-4.423-40.935 7.339-1.889-6.595-6.433-12.184-13.751-14.215-8.827-2.453-17.211 1.367-22.478 7.962-6.313-40.391-77.566-35.244-84.683 3.76-8.967-10.274-24.85-12.265-36.994-4.685-8.404 5.248-12.043 18.919-9.309 29.173-11.158-3.378-23.442 3.94-24.186 17.391-.422 7.559 4.001 14.033 10.857 17.049 6.313 2.775 11.661 1.809 16.848-.724-1.79 10.958 8.464 24.428 17.873 28.027 13.632 5.187 30.701.864 39.527-10.656 6.575 21.412 37.175 25.795 48.816 6.977 4.724 8.444 19.944 7.901 25.533-1.146 4.866 9.67 16.145 15.219 27.062 13.37.523.442 1.226.643 2.091.402 12.887-3.659 19.582-13.632 18.235-25.614 11.018 5.87 26.559 5.147 34.099-5.972 7.499-11.037 0-23.121-10.053-29.072Zm3.297 28.771c-8.424 7.419-21.552 6.052-29.434-1.267-1.749-1.628-5.086-.06-4.242 2.473 4.061 12.043-.864 22.156-13.209 26.016a2.418 2.418 0 0 0-1.287.925c-11.48.945-22.94-6.413-24.588-18.255-.342-2.493-4.303-1.83-4.323.583-.06 13.008-22.055 14.375-20.085 1.729.442-2.795-3.519-4.062-4.343-1.207-6.896 23.845-42.422 19.402-44.03-5.187-.141-2.131-3.358-3.518-4.443-1.206-5.208 11.239-17.713 16.808-29.776 15.561-6.816-.703-13.531-3.779-17.452-9.59-3.619-5.348-6.775-15.642-1.166-20.608 2.031-1.809-.643-5.348-2.935-3.8-2.956 2.011-6.313 4.886-9.832 5.891-7.599 2.172-15.581-1.99-17.551-9.429-3.298-12.505 11.218-23.222 22.236-14.114 1.95 1.629 5.67-.583 3.86-2.975-5.73-7.56-3.719-24.046 4.363-29.213 12.003-7.681 28.167-3.901 34.259 9.087 1.066 2.272 4.685 1.106 4.624-1.246-1.025-42.241 79.275-48.595 75.656-1.83-.221 2.855 4.102 3.257 4.866.664 6.072-20.327 34.923-15.582 31.967 6.192-.422 3.157 4.403 4.524 4.825 1.327 1.951-14.295 19.523-20.367 32.108-16.728 17.934 5.188 17.834 29.756-.261 34.923-2.493.704-2.332 4.102 0 4.886 10.515 3.538 21.111 16.788 10.153 26.418l.04-.02ZM230.049 472.791c6.454-10.012 17.934-30.198 6.233-32.45-10.797-2.071-21.171 12.908-26.218 20.105-9.53 13.572-15.943 28.811-19.602 44.936-.02.1 0 .181 0 .281-14.014 14.757-26.016 32.932-32.309 52.535.04-.523.1-1.045.14-1.588 1.709-21.352-.462-43.046 5.007-63.513.462-.241.864-.683 1.065-1.347 6.695-21.231 27.223-31.143 44.091-43.266 11.178-8.022 24.77-16.788 23.061-32.189 0-.14-.061-.241-.101-.341v-.081c-1.407-9.007-7.901-12.706-16.506-9.811-6.273 2.131-11.681 6.031-16.326 10.776 1.669-5.408 2.554-10.977 1.83-16.104-1.186-8.525-9.651-13.39-17.029-7.881-8.907 6.634-12.707 22.437-15.682 32.47-6.394 21.552-2.493 43.548-7.761 65.221-.161.684-.04 1.267.221 1.709-1.93 6.795-3.036 13.752-3.719 20.809-1.106-5.449-2.674-10.696-4.665-15.461.664-13.149 4.584-25.393 3.8-38.703-.462-7.74-1.588-18.235-8.062-23.623-4.182-3.478-8.927-2.916-12.123 1.467-3.278 4.504-3.298 10.696-2.413 16.668-6.635-6.615-16.466-11.078-23.744-5.489-10.013 7.68 3.337 23.061 10.173 27.886.08.06.161.06.221.1 9.208 8.163 20.266 14.637 28.811 23.443.08.08.181.141.281.201 4.484 15.079 5.71 31.043 5.047 46.705-2.192-11.581-6.353-22.739-12.626-32.993-5.469-8.947-12.767-17.19-19.744-24.971-7.7-8.585-18.235-14.154-27.865-20.266-2.091-1.327-3.9 1.206-3.076 3.076 1.266 2.915.14 8.183.2 11.319.06 3.8.503 7.48 1.167 11.219 1.95 11.239 5.73 21.513 12.063 31.043 6.011 9.027 13.852 16.084 22.055 23.08 8.947 7.62 25.594 20.086 24.669 33.596-2.493 11.259-6.212 22.196-11.822 32.289-9.69 17.431-25.594 28.751-41.477 39.99 8.847-11.44 14.054-23.745 17.452-38.281.12-.12.261-.261.362-.422 6.172-10.897 12.545-23.604 15.38-35.868.02-.1 0-.201 0-.301 2.352-5.871 9.59-26.479-3.518-25.554-5.65.402-9.168 7.218-11.42 13.772-2.533-9.771-8.505-21.03-16.305-16.124-.322.201-.584.422-.865.643.422-1.407.885-2.815 1.327-4.222.563-.684 1.126-1.387 1.709-2.071.724-.844.342-1.87-.342-2.372 0-1.548-1.97-2.976-3.357-1.93-21.372 16.265-37.497 35.224-42.503 62.205-2.694 14.476-1.83 28.469-.724 43.025 1.327 17.532.563 34.983-1.89 52.374-.26 1.87 1.468 3.056 2.876 2.896.26.382.703.663 1.326.643h.563c3.056 3.378 5.81 11.842 6.836 14.596 3.338 8.887 4.283 18.296 9.65 26.338 8.083 12.124 23.122 19.723 37.316 14.295.261.02.523 0 .824-.081 6.575-1.97 11.822-6.071 17.13-10.293 1.407-1.126.643-3.82-1.086-4.122-19.301-3.538-20.949-24.187-34.58-34.883-7.42-5.83-16.427-9.59-25.755-11.077 13.51-6.032 27.262-2.554 41.617 3.096 13.712 5.388 26.599 9.55 41.477 9.67 18.799.141 45.358-4.463 49.68-26.981.282-1.488-.643-2.915-2.252-2.955-22.517-.543-43.588-4.263-65.623-8.344-18.577-3.438-35.888-3.136-53.259 4.242-.281-.02-.583 0-.904.121a71.87 71.87 0 0 0-4.645 2.131c6.032-5.67 12.667-10.756 19.462-15.682a90.762 90.762 0 0 1 5.207-3.096c16.145-8.947 32.37-11.521 49.962-9.53.141.04.301.04.462.06 2.212.262 4.464.583 6.736.985 3.86 1.468 7.901 4.021 10.615 5.368 3.559 1.77 7.137 3.579 10.495 5.69 9.731 6.152 22.357 20.467 35.023 18.658 7.097-1.005 10.857-7.439 8.384-14.074-1.729-4.644-5.649-8.464-10.093-11.44 4.745-.703 9.249-2.714 12.204-6.293.362-.221.644-.583.804-1.085.262-.483.322-.965.222-1.408 1.226-10.897-10.656-15.541-20.166-15.32-17.994.442-36.973 7.741-53.621 14.255-12.163-3.096-24.327-1.729-35.968 2.412 7.841-6.071 15.24-12.606 21.432-20.366 6.635-6.896 13.913-10.998 22.558-14.154.302.663.885 1.146 1.79 1.045 16.526-2.051 31.706 4.102 47.931 5.77 7.097.724 18.356 2.353 23.483-4.282 4.141-5.348 1.146-11.48-3.579-15.24-4.443-3.538-9.731-5.046-15.2-5.247 4.785-3.036 8.706-6.876 9.269-11.641.04-.141.06-.282.06-.422v-.181c0-.181-.02-.362-.08-.543v-.02a2.36 2.36 0 0 0-.181-.523c-3.096-10.173-17.13-5.609-24.348-2.996-15.903 5.771-26.84 17.612-37.556 30.118-5.951 1.005-11.681 3.619-16.708 7.198 0-.021.02-.041.041-.061 5.207-9.449 8.846-19.663 11.379-30.158.442-.261.784-.683.905-1.367 0-.06 0-.1.02-.161.402-.241.744-.623.945-1.166 3.357-8.886 11.56-12.224 20.025-14.636.08-.02.14-.081.221-.101 18.798-1.226 35.867 1.468 51.69-11.038 16.105-12.746 22.739-32.65 24.549-52.454.181-1.99-2.373-2.594-3.639-1.508-10.415 8.987-21.211 18.236-34.682 22.116-10.595 3.056-20.869 4.001-30.761 9.349-5.971 3.217-10.736 7.177-14.677 11.701 6.314-13.873 14.175-26.7 24.911-38.562.221-.1.462-.221.663-.402 3.499-3.056 12.566-4.403 16.929-5.609 9.228-2.574 18.336-5.167 27.283-8.646 7.841-3.035 22.397-8.464 23.02-18.617.865-14.214-19.341-7.942-31.163-1.769l-.02.06Zm-118.741-18.899c4.382-11.58 21.814 4.343 23.985 10.877.925 2.775 5.026 1.649 4.383-1.206-.965-4.242-2.111-8.686-2.352-13.028-.201-3.72-.945-17.271 9.59-9.068 4.242 3.297 4.282 14.657 4.483 18.979.543 11.34-2.332 22.136-3.297 33.275-8.223-7.439-18.034-13.39-26.579-20.387-.04-.06-.06-.141-.101-.201-3.82-4.906-12.706-12.445-10.112-19.261v.02Zm107.341 191.683c-3.96 5.167-13.43 5.59-18.879 3.921-2.915-.885-3.96 3.418-1.226 4.483a41.799 41.799 0 0 1 11.279 6.675c1.629 1.367 3.277 2.815 4.383 4.644 5.167 8.545-3.016 10.857-10.193 9.631-4.645-.784-10.495-6.233-14.255-8.967-3.9-2.835-7.66-5.911-11.761-8.484-4.926-3.076-12.868-8.344-20.267-10.857 19.543-6.635 63.935-19.583 60.939-1.066l-.02.02ZM99.707 559.103c1.749-6.152 5.066-4.403 7.841-.201 2.975 4.523 6.112 12.063 5.227 17.652-.402 2.553 3.277 3.72 3.981 1.086 1.367-5.187 2.915-10.736 5.65-15.361.542-.904 1.749-3.538 2.734-3.84 4.282-1.307 5.851 6.092 5.388 8.706-.643 3.559-1.91 7.017-3.156 10.414-.041.061-.101.101-.141.181-4.906 8.726-8.103 18.316-12.284 27.464-1.89-12.284-8.686-21.895-12.908-34.159-1.126-3.297-3.277-8.504-2.312-11.942h-.02Zm-2.393 11.902c4.705 14.878 14.275 26.197 13.511 42.824-.02.543.141.985.422 1.327-1.91 7.318-3.699 14.657-7.197 21.452-4.403 8.545-10.797 15.884-16.587 23.503a1.228 1.228 0 0 0-.262.784c-8.122 5.972-15.842 12.285-22.357 19.784-.683.684-1.367 1.387-2.05 2.071 8.987-16.667 23.06-30.701 26.498-50.223 2.272-12.908.925-25.554 1.468-38.542.442-10.635 2.07-21.17 4.564-31.484.362 3.116 1.246 6.192 1.99 8.524v-.02Zm-10.213 13.652c-1.588 15.601.804 31.223-1.89 46.724-2.332 13.39-9.892 24.227-17.13 35.204 4.906-16.044 4.102-32.932 4.926-49.941 1.046-21.694 7.399-41.457 19-59.009a179.977 179.977 0 0 0-4.906 27.022Zm-29.273 33.012c.924-14.053 4.161-28.951 11.5-41.135 6.192-10.294 14.817-18.919 24.086-26.579-12.043 15.34-20.387 33.133-23.141 52.676-1.629 11.52-1.488 23.1-1.89 34.701-.503 13.853-3.197 26.519-8.002 39.507-.241.623 0 1.186.402 1.568-.583 1.066-1.166 2.131-1.709 3.237.563-7.379.804-14.757.623-22.196-.361-13.973-2.754-27.765-1.85-41.759l-.02-.02Zm23.844 128.05c-7.941-8.203-9.087-18.396-12.585-28.69-1.227-3.599-3.016-9.63-5.71-14.315 16.164 3.881 16.325 25.072 25.393 37.497 7.137 9.791 18.376 11.339 29.293 8.584-2.513 1.629-5.087 3.157-7.721 4.725-.06.04-.1.101-.16.141-10.857 2.433-20.568.261-28.53-7.921l.02-.021Zm18.236-22.98c4.926 8.927 9.53 17.069 17.733 21.653-10.535 1.287-20.226 1.79-26.74-8.946-3.559-5.871-5.187-12.606-7.962-18.819-2.674-5.991-6.273-10.917-10.997-14.074 11.54 2.996 22.216 9.792 27.966 20.206v-.02Zm22.437-22.658c-18.939-6.695-36.873-15.502-55.108-8.163 21.05-12.305 47.669-3.619 70.589 1.528 17.251 3.88 40.311 6.614 55.551-4.725-11.601 21.975-52.193 18.014-71.012 11.36h-.02Zm22.196-21.593c15.522 3.518 31.365 4.986 47.228 5.629-11.48 6.253-22.639 8.947-36.21 7.801-14.978-1.267-29.313-6.374-44.071-8.987-14.294-2.554-30.238-2.634-43.186 3.8 3.64-2.875 8.123-5.067 11.762-7.057.201-.101.322-.262.463-.402 21.311-8.525 42.019-5.771 64.014-.784Zm44.453-91.741c4.222-2.372 24.991-12.183 27.705-3.739-.824 6.614-15.099 12.204-20.366 14.194-2.715 1.026-1.669 5.348 1.226 4.443 8.504-2.633 21.211-4.282 28.006 3.318 11.4 12.747-17.109 11.078-21.311 10.414-13.571-2.171-26.398-6.534-40.09-6.092 7.318-8.504 14.999-17.029 24.85-22.538h-.02Zm-12.465-173.528c1.628-4.363 3.217-8.967 5.911-12.807 5.308-7.519 13.933-5.75 13.752 4.142-.161 9.228-4.504 19.301-8.947 27.222-1.347 2.393 2.252 4.484 3.679 2.152 4.202-6.977 30.359-38.904 37.155-17.492-.141 20.085-28.831 32.43-43.166 42.724-6.434 4.624-12.264 9.791-16.889 15.863-.482-.04-.945.14-1.246.703.643-7.961.603-15.943.784-24.126.281-13.209 4.343-26.116 8.947-38.381h.02Zm-58.245 78.149c6.776 7.52 13.873 15.401 19.241 23.986 8.625 13.812 13.591 29.796 14.737 46.041-5.831-13.752-15.903-26.117-24.79-37.637-11.48-14.918-22.719-29.816-29.213-47.509 7.198 4.363 14.456 8.927 20.045 15.119h-.02Zm-3.116 40.492c-10.254-11.198-16.446-24.468-19.04-39.386-.704-4.001-.281-8.967-.322-13.692 5.268 16.125 15.28 30.058 25.514 43.568 9.429 12.446 17.873 24.609 25.071 37.959-9.228-10.877-23.523-20.005-31.243-28.429l.02-.02Zm107.603 23.805c-14.516 10.253-30.439 7.057-46.986 9.007-.181-.04-.362-.081-.583-.081-4.624.342-9.068 1.79-12.908 4.162 11.42-16.948 37.497-18.255 55.491-24.126 12.063-3.941 21.191-13.048 27.403-23.865-3.558 13.732-10.414 26.459-22.397 34.903h-.02Zm-24.508-22.458c9.489-2.674 18.878-3.538 27.765-8.142 6.675-3.458 12.666-8.002 18.436-12.807-4.403 8.263-9.007 16.285-16.687 22.176-10.817 8.303-24.388 7.981-36.913 11.842-10.254 3.176-20.869 8.323-28.147 16.265 1.306-2.936 2.774-5.77 4.463-8.364 6.856-10.495 19.261-17.632 31.083-20.97Zm52.856-51.529c-4.644 3.799-10.253 5.87-15.803 7.981-10.494 4.001-21.291 6.635-31.967 9.973-1.709.522-3.659.985-5.589 1.568-.382-.563-1.045-.905-1.749-.784 2.332-8.646 5.468-17.009 9.69-24.991 4.946-9.349 11.863-22.297 21.312-27.765 1.608-.925 8.947-4.082 10.073-2.473.663.924-.181 3.558-.362 4.503-.684 3.438-2.373 6.796-3.86 9.952-2.654 5.61-5.791 10.998-9.068 16.245-.06.101-.08.201-.12.302-.503.643-.986 1.287-1.488 1.93-1.287 1.669 1.347 3.358 2.754 2.131 5.69-4.946 15.702-8.283 23.342-9.469 1.408-.222 4.604-.986 5.931-.222 6.434 3.68-.683 9.188-3.116 11.159l.02-.04Zm76.621-84.604c-9.047-1.769-20.709-.04-30.54 3.479a27.274 27.274 0 0 0 1.428-2.252c.201-.362.341-.684.482-1.005 14.355-5.931 29.414-13.149 42.382-21.593 1.608-1.046.623-3.78-1.347-3.177-12.606 3.78-24.066 11.561-36.009 17.552 7.419-10.073 15.039-20.507 19.864-31.827.784-1.849-1.548-3.317-2.734-1.588-8.364 12.123-16.285 24.428-24.87 36.411-1.91.06-4.323.683-6.293 1.347 10.696-16.688 26.237-51.771-1.95-50.806-18.779.643-21.231 28.951-15.582 46.624-10.434-7.54-25.312-11.32-36.471-7.419-.543.181-.884.523-1.146.884-9.489 4.625-8.183 16.306-.904 23.202 4.403 4.162 9.489 4.825 15.34 4.021 7.177-.965 14.375-2.272 21.291-4.403l-1.065.885c-3.68 3.116-10.917 7.579-10.757 13.148.262 9.148 8.726 5.288 16.125.101-11.159 15.481-21.01 38.361-.603 43.97 25.915 7.117 22.698-32.048 17.049-50.022 8.906 6.977 18.798 14.114 30.178 14.577 8.685.361 20.326-4.223 21.774-13.974 1.427-9.55-7.178-16.466-15.622-18.135h-.02Zm-51.57-35.043c1.548-6.976 3.378-10.374 10.394-12.143 19.02-4.765 11.159 19.602 7.58 28.207-2.795 6.675-6.413 12.747-9.972 18.979-.885.483-1.749.966-2.594 1.488a56.522 56.522 0 0 1-6.293-23.905c-.16-4.142 0-8.565.885-12.626Zm-32.229 44.553c-8.745-1.065-16.888-14.174-7.358-19.522.221 0 .422.04.663 0 12.988-2.674 30.098 1.81 38.763 12.566-4.363 1.89-8.826 3.257-13.531 4.242-5.609 1.186-12.907 3.398-18.537 2.714Zm22.116 14.456c-4.463-1.568.985-5.368 1.83-6.112 6.614-5.971 13.53-11.782 21.693-15.521.865-.382 1.991-.684 3.137-1.026-1.187 1.307-2.333 3.076-3.338 4.122-1.809 1.87-4.463 3.78-6.052 6.052-.18.06-.341.12-.522.241-3.659 2.815-7.077 5.951-10.877 8.585-.563.382-5.187 3.9-5.871 3.659Zm23.423 30.52c-2.634 9.61-13.752 11.862-19.241 4.141-9.691-13.651 7.962-30.881 16.728-42.482 2.312 8.344 4.262 16.486 4.041 25.312-.101 4.263-.382 8.887-1.508 13.029h-.02Zm45.98-31.586c-6.916 7.54-19.462 4.564-27.242.563-6.494-3.337-12.084-8.082-18.256-11.922 6.554-2.272 12.847-4.604 19.764-5.871 4.604-.844 9.469-1.689 14.194-1.327 8.143.603 21.231 8.002 11.56 18.557h-.02Z"/>
</svg>
