<svg width="135" height="135" viewBox="0 0 135 135" fill="none" xmlns="http://www.w3.org/2000/svg">
<g id="Logo">
<rect id="Rectangle 4073" width="135" height="135" fill="#202C74"/>
<g id="&#208;&#144;&#208;&#160;&#208;&#162;">
<path d="M23.3693 59.7474L30.2025 74.4H28.6287L26.3277 69.5789H20.0125L17.7215 74.4H16.0879L23.0107 59.7474H23.3693ZM23.19 62.8552L20.6699 68.1644H25.6803L23.19 62.8552Z" fill="white"/>
<path d="M36.3496 59.7474H39.2682C40.9416 59.7474 42.0705 59.8205 42.6549 59.9666C43.4916 60.1724 44.1756 60.5974 44.7069 61.2416C45.2381 61.8791 45.5037 62.6826 45.5037 63.6521C45.5037 64.6283 45.2448 65.4351 44.7268 66.0726C44.2088 66.7035 43.4949 67.1285 42.5852 67.3476C41.9211 67.507 40.6793 67.5867 38.8598 67.5867H37.8139V74.4H36.3496V59.7474ZM37.8139 61.1719V66.1523L40.2942 66.1822C41.2969 66.1822 42.0307 66.0926 42.4955 65.9133C42.9604 65.7273 43.3256 65.4318 43.5912 65.0267C43.8569 64.615 43.9897 64.1568 43.9897 63.6521C43.9897 63.1607 43.8569 62.7125 43.5912 62.3074C43.3256 61.8957 42.9737 61.6035 42.5354 61.4308C42.1037 61.2582 41.3932 61.1719 40.4037 61.1719H37.8139Z" fill="white"/>
<path d="M50.854 61.1719V59.7474H58.8924V61.1719H55.6252V74.4H54.1311V61.1719H50.854Z" fill="white"/>
</g>
<g id="&#208;&#159;&#208;&#160;&#208;&#158;&#208;&#149;&#208;&#154;&#208;&#162;">
<path d="M16.1631 78.9475H26.5623V93.6H25.0881V80.342H17.6373V93.6H16.1631V78.9475Z" fill="white"/>
<path d="M33.9944 78.9475H36.9129C38.5863 78.9475 39.7153 79.0205 40.2996 79.1666C41.1363 79.3725 41.8203 79.7975 42.3516 80.4416C42.8828 81.0791 43.1485 81.8826 43.1485 82.8522C43.1485 83.8283 42.8895 84.6352 42.3715 85.2727C41.8535 85.9035 41.1397 86.3285 40.2299 86.5477C39.5658 86.707 38.324 86.7867 36.5045 86.7867H35.4586V93.6H33.9944V78.9475ZM35.4586 80.3719V85.3524L37.9389 85.3822C38.9416 85.3822 39.6754 85.2926 40.1403 85.1133C40.6051 84.9274 40.9703 84.6318 41.236 84.2268C41.5016 83.8151 41.6344 83.3568 41.6344 82.8522C41.6344 82.3608 41.5016 81.9125 41.236 81.5074C40.9703 81.0957 40.6184 80.8035 40.1801 80.6309C39.7485 80.4582 39.0379 80.3719 38.0485 80.3719H35.4586Z" fill="white"/>
<path d="M56.9356 78.5789C59.1536 78.5789 61.0096 79.3193 62.5038 80.8002C63.9979 82.2811 64.745 84.1039 64.745 86.2688C64.745 88.4137 63.9979 90.2332 62.5038 91.7274C61.0163 93.2215 59.2 93.9686 57.0551 93.9686C54.8836 93.9686 53.0508 93.2248 51.5567 91.7373C50.0625 90.2498 49.3155 88.4502 49.3155 86.3385C49.3155 84.9307 49.6541 83.6258 50.3315 82.4238C51.0155 81.2219 51.9452 80.2822 53.1206 79.6049C54.2959 78.9209 55.5676 78.5789 56.9356 78.5789ZM57.0053 80.0133C55.9229 80.0133 54.8969 80.2955 53.9274 80.86C52.9579 81.4244 52.2008 82.1848 51.6563 83.141C51.1118 84.0973 50.8395 85.1631 50.8395 86.3385C50.8395 88.0783 51.4405 89.5492 52.6424 90.7512C53.851 91.9465 55.3053 92.5442 57.0053 92.5442C58.1409 92.5442 59.1901 92.2686 60.153 91.7174C61.1225 91.1662 61.8762 90.4125 62.4141 89.4563C62.9586 88.5 63.2309 87.4375 63.2309 86.2688C63.2309 85.1067 62.9586 84.0574 62.4141 83.1211C61.8762 82.1781 61.1159 81.4244 60.1331 80.86C59.1502 80.2955 58.1077 80.0133 57.0053 80.0133Z" fill="white"/>
<path d="M71.5694 78.9475H79.9665V80.3918H73.0337V84.9738H79.9067V86.4082H73.0337V92.1557H79.9067V93.6H71.5694V78.9475Z" fill="white"/>
<path d="M86.3726 78.9475H87.8667V84.4459L93.7138 78.9475H95.696L88.6536 85.5217L96.2438 93.6H94.3015L87.8667 86.7668V93.6H86.3726V78.9475Z" fill="white"/>
<path d="M100.847 80.3719V78.9475H108.885V80.3719H105.618V93.6H104.124V80.3719H100.847Z" fill="white"/>
</g>
<g id="&#208;&#145;&#208;&#163;&#208;&#148;">
<path d="M16.1729 114V99.3475H23.5141V100.792H17.6172V105.473H18.3045C20.1307 105.473 21.4555 105.636 22.2789 105.962C23.109 106.28 23.7598 106.788 24.2313 107.486C24.7094 108.176 24.9484 108.946 24.9484 109.796C24.9484 110.912 24.5301 111.892 23.6934 112.735C22.8566 113.578 21.6912 114 20.1971 114H16.1729ZM17.6172 106.948V112.566H19.4201C20.4893 112.566 21.2729 112.463 21.7709 112.257C22.2689 112.044 22.6641 111.722 22.9563 111.291C23.2551 110.852 23.4045 110.364 23.4045 109.826C23.4045 109.149 23.1953 108.575 22.777 108.103C22.3586 107.632 21.8373 107.323 21.2131 107.177C20.5889 107.024 19.6625 106.948 18.434 106.948H17.6172Z" fill="white"/>
<path d="M30.6373 99.3873H32.2908L36.7235 109.338L40.7776 99.3475H42.3813L36.8231 112.516C36.3051 113.751 35.3854 114.369 34.0639 114.369C33.5326 114.369 33.0313 114.259 32.5598 114.04C32.0883 113.827 31.4906 113.319 30.7668 112.516L31.8326 111.639C32.5697 112.363 33.0612 112.775 33.3069 112.874C33.5526 112.974 33.8016 113.024 34.0539 113.024C34.4391 113.024 34.7711 112.921 35.05 112.715C35.3356 112.509 35.6477 111.995 35.9864 111.171L30.6373 99.3873Z" fill="white"/>
<path d="M48.7774 116.191H47.3331V112.635H48.5284L54.2758 99.3475H54.7838L60.85 112.635H61.9956V116.191H60.5512V114H48.7774V116.191ZM50.1819 112.635H59.1168L54.5348 102.376L50.1819 112.635Z" fill="white"/>
</g>
<path id="Vector 359 (Stroke)" fill-rule="evenodd" clip-rule="evenodd" d="M36.6068 23.0744L56.55 37.7202V51.45H135V52.95H55.05V38.4797L36.5932 24.9255L17.55 38.4866V52.95H0V51.45H16.05V37.7133L36.6068 23.0744Z" fill="white"/>
</g>
</svg>
