<svg xmlns="http://www.w3.org/2000/svg" width="293" height="764" fill="none" viewBox="0 0 293 764">
  <path fill="#fff" d="M241.586 83.709c-.381.397-.889.699-1.493.588-.476-.08-.794-.413-1.08-.715-8.038-8.657-12.835-21.46-15.027-31.928-.715-3.4-3.129-18.204 6.497-12.501 5.734 3.399 6.799 13.533 8.625 18.474-1.588-4.29 7.736-21.842 14.63-22.112 13.121-.508-9.022 43.206-11.675 47.543a3.587 3.587 0 0 1-.493.635l.016.016Z"/>
  <path fill="#262A40" d="M259.663 39.963c-.604-5.798-5.29-7.72-10.23-4.718-4.018 2.446-8.546 8.228-10.801 14.026-1.525-5.242-3.669-10.373-8.832-12.438-5.21-2.08-7.926 1.478-8.292 6.418-.635 8.196 2.637 17.25 5.766 24.589 1.938 4.527 7.514 18.823 14.138 17.441.444.08.921 0 1.318-.429 4.781-5.083 7.434-13.597 10.087-19.887 3.097-7.323 7.704-16.79 6.846-25.002Zm-6.338 13.422c-3.24 9.785-7.466 20.046-12.787 28.958-4.273-.509-11.072-18.045-11.802-20.126-1.446-4.082-2.701-8.34-3.368-12.628-.238-1.573-.826-4.099-.413-5.687 1.144-4.368 4.877-4.019 7.53-.223 2.859 4.099 3.367 9.77 4.908 14.44.731 2.192 3.923 1.302 3.463-.953-.906-4.385 8.323-22.572 13.899-19.697 3.907 2.001-.493 13.073-1.43 15.932v-.016Z"/>
  <path fill="#fff" d="M213.566 76.37c-.556.54-1.287.938-2.16.795-.683-.111-1.16-.54-1.557-.953-11.612-11.58-18.537-28.704-21.714-42.698-1.033-4.543-4.527-24.351 9.387-16.727 8.292 4.544 9.817 18.093 12.47 24.701-2.303-5.75 11.183-29.212 21.142-29.577 18.966-.667-13.041 57.788-16.869 63.586a5.74 5.74 0 0 1-.699.858v.016Z"/>
  <path fill="#262A40" d="M225.432 12.006c-5.639 3.304-13.359 12.247-16.314 20.682-2.208-7.482-4.908-15.059-12.437-18.252-7.228-3.065-11.151 1.62-11.437 8.658-.413 10.213 3.558 21.015 7.561 30.164 2.049 4.702 13.009 29.164 21.031 24.67.302-.049.604-.16.858-.414 6.417-6.687 10.293-17.6 14.073-25.86 4.48-9.785 10.468-21.587 10.151-32.627-.239-7.974-6.656-11.008-13.502-7.005l.016-.016Zm7.148 20.269c-4.654 14.455-11.469 30.435-20.221 43.015-5.131 1.35-16.504-23.414-17.823-26.765-2.494-6.37-4.67-13.153-5.512-19.967-.317-2.558-.667-5.56-.016-8.085 1.636-6.338 8.26-2.399 11.072.857 4.892 5.687 5.671 13.804 8.18 20.65.779 2.129 4.067 1.319 3.463-.953-2.128-8.053 10.595-25.78 18.49-27.067 8.991-1.461 3.717 14.137 2.367 18.315Zm29.307-4.273c2.446-2.065 5.035-3.971 7.815-5.56 2.589-1.477 5.655-2.08 8.101-3.669 1.096-.715.604-2.24-.635-2.367-3.05-.286-6.497 1.811-9.055 3.32-2.986 1.763-5.702 3.924-8.275 6.243-1.398 1.255.635 3.24 2.049 2.049v-.016Zm19.681 7.973c-5.941-.905-13.693.032-19.221 2.414-1.064.461-.524 2.272.588 2.177 3.034-.254 6.004-1.049 9.038-1.382 3.066-.334 6.148-.175 9.198-.413 1.477-.111 2.08-2.526.381-2.796h.016Zm-7.069 17.887c-3.24-1.175-6.592-2.287-10.039-2.589-1.7-.159-1.906 2.399-.397 2.875 3.32 1.049 6.671 1.811 9.928 3.05 1.922.73 4.527 2.399 6.608 1.7.969-.318 1.207-1.414.571-2.16-1.366-1.637-4.701-2.16-6.671-2.876Zm-5.544 17.918c-2.573-1.938-5.242-3.829-8.212-5.068-1.191-.508-2.256 1.398-1.271 2.192 2.319 1.89 4.893 3.463 7.275 5.29 2.272 1.747 4.416 4.384 6.99 5.591 1.223.572 2.589-.62 1.89-1.89-1.382-2.525-4.416-4.4-6.672-6.1v-.015Zm-103.98-53.023c2.446 1.604 5.512 2.192 8.101 3.67 2.78 1.603 5.369 3.494 7.815 5.559 1.414 1.191 3.447-.779 2.049-2.05-2.573-2.319-5.289-4.479-8.275-6.242-2.542-1.51-6.005-3.606-9.055-3.32-1.239.111-1.747 1.636-.635 2.367v.016Zm5.814 20.427c3.034.334 6.004 1.128 9.038 1.383 1.112.095 1.652-1.732.588-2.177-5.528-2.367-13.264-3.304-19.221-2.414-1.683.254-1.111 2.669.382 2.796 3.065.254 6.131.079 9.197.413h.016Zm7.91 14.963c1.493-.476 1.335-3.034-.397-2.875-3.447.302-6.799 1.43-10.039 2.59-1.954.714-5.305 1.238-6.672 2.874-.635.763-.397 1.843.572 2.16 2.065.684 4.686-.968 6.608-1.699 3.273-1.239 6.608-2.001 9.928-3.05Zm3.336 12.565c-2.97 1.239-5.639 3.145-8.212 5.067-2.272 1.715-5.29 3.574-6.672 6.1-.699 1.27.667 2.478 1.89 1.89 2.574-1.223 4.718-3.844 6.99-5.592 2.382-1.826 4.956-3.383 7.275-5.29.985-.81-.08-2.7-1.271-2.191v.016Zm-37.138 515.201c-3.479-12.502-19.888-24.113-31.515-13.693-9.753 8.737-4.464 27.242 10.166 24.081 12.247-2.653 5.798-22.731-3.987-15.583-1.588 1.16-.143 3.828 1.573 2.701 4.574-2.987 11.357 8.053.651 9.562-3.654.508-8.53-2.573-9.769-5.845-3.336-8.8 6.592-16.33 14.455-14.852 11.437 2.16 17.378 15.026 14.995 25.621-1.874 8.26-8.069 16.203-16.234 18.982-11.691 3.988-20.682-2.922-25.272-13.279-.81-1.811-3.273-.413-2.987 1.255 2.462 14.582 19.935 20.57 32.278 14.455 11.818-5.862 19.252-20.46 15.646-33.39v-.015Zm129.856-227.912c-3.463 7.196-17.25 7.863-23.842 11.247-8.832 4.543-15.123 12.961-18.331 22.175-.636 1.842 2.335 3.129 3.177 1.334 2.811-5.941 13.724-4.496 19.268-6.275 6.163-1.969 11.611-5.416 15.169-10.865.127-.19.191-.397.223-.587 3.367-4.877 5.464-10.166 7.291-15.774.556-1.715-2.145-2.907-2.955-1.239v-.016Zm-31.388 26.941c-1.572.238-3.129.556-4.574 1.048 4.797-8.435 12.453-13.581 22.095-16.917 3.272-1.128 7.815-2.319 11.453-4.368-1.223 3.065-2.653 6.036-4.384 8.911-.064.048-.127.063-.191.127-7.291 7.577-14.423 9.658-24.399 11.215v-.016Zm39.092 3.668c-.127.255-.254.509-.397.763-5.925 5.353-12.04 10.801-19.331 14.201-8.006 3.733-17.045 3.081-25.05 6.719-11.739 5.321-19.459 16.345-25.845 27.083-1.207 2.033 1.732 3.574 3.082 1.811 4.718-6.147 19.681-3.272 26.559-4.003 9.737-1.032 19.983-2.303 27.798-8.641.492-.397.651-.858.604-1.303 8.689-9.054 12.628-22.731 15.424-34.612a1.648 1.648 0 0 0-.096-1.08c.254-1.462-2.017-2.367-2.748-.938Zm-32.627 21.969c11.247-1.906 19.729-6.592 27.973-13.153-2.367 4.226-4.988 8.276-8.387 11.961-5.734 6.211-12.311 8.562-20.396 9.865-9.88 1.588-18.934 4.225-27.035 9.356 6.957-9.054 15.503-15.932 27.845-18.029Zm-18.537 21.38c-3.082.096-6.783.08-10.277.683 6.052-3.939 12.596-6.925 19.76-8.577 6.545-1.509 13.47-1.541 19.745-4.083 7.243-2.922 13.216-9.038 17.727-15.995-2.367 7.243-5.576 14.264-10.5 19.633a1.86 1.86 0 0 0-1.001.397c-9.673 7.482-23.731 7.561-35.47 7.942h.016Zm-1.398-25.907c.159-.19.238-.397.302-.588 2.446-3.081 3.876-8.18-.381-10.388-2.923-1.509-6.211-.524-9.118 1.414.619-2.319.715-4.639-.381-6.672-1.493-2.764-4.416-3.367-7.101-1.811-3.923 2.272-5.75 8.181-7.322 12.12-3.336 8.34-5.131 17.06-5.894 25.987-.143 1.7 2.065 2.288 3.146 1.303 4.892-4.464 9.975-8.657 15.423-12.454 4.115-2.875 8.165-4.987 11.342-8.927l-.016.016Zm-19.84-6.449c.779-1.89 2.319-7.053 4.242-7.847 6.607-2.716.397 9.991-.763 12.326-.953 1.938 1.827 3.622 2.939 1.716 1.413-2.446 3.637-5.448 6.385-6.529 6.291-2.493 7.45.509 5.226 4.766-.047.032-.079.032-.127.079-7.672 6.306-16.091 11.358-23.763 17.616 1.017-7.608 2.939-14.963 5.877-22.127h-.016Zm.683 53.435c.143-.19.239-.381.302-.571 2.288-2.796 3.463-7.403-.429-9.357-2.525-1.27-5.353-.524-7.91 1.033.46-1.906.46-3.796-.461-5.496-1.382-2.573-4.13-3.145-6.624-1.716-3.51 2.002-5.226 7.276-6.639 10.754-2.971 7.323-4.591 14.995-5.274 22.842-.143 1.7 2.049 2.272 3.145 1.303 4.368-3.908 8.911-7.577 13.756-10.881 3.701-2.542 7.323-4.368 10.15-7.911h-.016Zm-17.663-5.686c.667-1.605 2.081-6.179 3.749-6.799 5.511-2.065.047 8.514-.969 10.532-.985 1.937 1.81 3.605 2.938 1.715 1.35-2.303 3.527-5.051 6.211-5.877 4.448-1.382 5.814.397 3.908 4.114l-.096.048c-6.814 5.337-14.121 9.721-20.888 15.09a76.42 76.42 0 0 1 5.163-18.823h-.016Zm20.618 217.11c13.835-21.953 7.625-52.626-16.599-64.015-10.071-4.733-22.302-5.289-31.5 1.684-8.974 6.814-13.025 19.363-10.467 30.276 2.891 12.31 14.852 18.458 26.431 12.835 10.182-4.941 11.358-20.269 1.065-25.924-2.304-1.271-4.353 2.256-2.049 3.51 6.163 3.384 7.402 13.169 1.207 17.728-2.367 1.747-5.75 2.637-8.784 2.732-.08-.016-.143-.064-.223-.08-17.298-1.985-10.706-24.351-1.112-30.911 8.197-5.623 18.951-4.035 26.369 2.097 15.169 12.549 16.52 39.568-.08 51.355-15.328 10.881-39.187 12.358-51.212-3.972-9.133-12.39-9.959-30.196-1.874-43.237 1.35-2.192-2.065-4.162-3.431-2.002-13.264 20.904-16.043 54.008 10.96 65.476 20.873 8.864 49.052 1.954 61.331-17.552h-.032Zm-77.787-18.855c.953 5.909 3.098 11.627 6.402 16.663 10.69 16.297 31.229 18.934 48.4 11.754 18.887-7.894 27.147-26.384 20.555-45.842-5.147-15.186-21.381-28.354-37.822-20.825-8.101 3.717-14.137 14.137-14.455 23.255a29.825 29.825 0 0 1-.206-1.176c-1.97-14.026 7.482-28.068 22.286-28.496 27.179-.811 41.3 29.291 33.453 52.323-7.625 22.398-32.706 32.5-54.881 26.941-18.268-4.575-24.701-19.141-23.748-34.581l.016-.016Zm-91.32-18.792c-1.033 1.477 1.048 3.638 2.526 2.526 11.786-8.753 28.798-9.293 40.299.413 10.07 8.498 14.089 23.557 9.61 35.947-4.845 13.406-25.987 23.159-37.265 10.88-14.789-16.075 5.845-37.884 24.065-30.307 3.192 2.843 5.29 6.767 5.416 11.214.128 4.591-1.81 9.563-5.972 11.977-6.116 3.527-15.059-.619-13.28-8.641.54-2.43-3.192-3.463-3.733-1.033-1.953 8.832 5.131 16.346 14.201 14.789 10.675-1.827 14.995-14.328 11.437-23.62-8.323-21.699-40.06-14.551-45.414 5.432-6.386 23.859 20.158 39.442 40.474 31.674 21.111-8.085 29.482-35.947 19.061-55.374-12.5-23.302-45.556-28.417-61.393-5.909l-.032.032Zm45.763 55.358c-8.673 5.21-20.395 6.131-29.227.826-9.452-5.687-14.63-18.919-9.547-29.117 4.273-8.561 13.74-13.629 22.858-12.056-12.867.318-24.335 10.817-22.223 25.59 2.653 18.537 23.97 21.794 37.822 12.851 15.805-10.198 15.106-34.295 4.654-47.94-9.213-12.04-25.13-15.853-38.902-11.5 13.931-9.261 33.358-4.559 44.064 9.578 11.818 15.615 7.466 41.538-9.515 51.768h.016Z"/>
  <path fill="#C8BFBC" d="M267.24 641.336c-2.542 1.827-5.179 5.29-6.799 8.991-1.191-3.78-3.002-7.338-6.719-8.403-4.114-1.175-5.782 2.018-6.02 5.655-.413 6.227 6.306 33.421 14.55 31.69.445.079.906-.032 1.319-.445 3.446-3.574 5.162-9.753 6.989-14.248 2.335-5.766 6.401-14.011 5.099-20.444-.922-4.511-4.829-5.337-8.419-2.78v-.016Zm2.51 14.853a140.369 140.369 0 0 1-8.419 20.062c-3.94-1.08-9.499-21.381-9.912-24.431-.334-2.541-1.35-9.816 3.876-4.273 2.366 2.51 2.652 7.847 3.637 11.072.683 2.256 3.844 1.287 3.463-.953-.508-2.986 6.163-16.584 9.531-13.55 1.874 1.7-1.541 10.119-2.176 12.073Zm-31.96 25.463c-4.718 3.177-9.912 10.516-12.358 17.68-1.605-6.418-3.892-12.851-9.849-15.567-6.211-2.828-8.816 2.398-9.102 7.847-.508 9.626 2.733 20.014 6.021 28.846 2.017 5.401 8.466 24.415 16.075 22.556.46.095.937 0 1.334-.461 4.924-5.972 7.482-14.963 10.277-22.063 3.876-9.864 9.023-21.524 8.642-32.357-.223-6.544-4.909-10.579-11.024-6.465l-.016-.016Zm4.924 20.173c-3.622 12.851-8.514 26.512-15.059 38.235-4.844-.445-12.675-22.668-13.485-25.177-1.795-5.655-3.352-11.533-3.988-17.458-.19-1.842-.54-3.971-.238-5.813.953-5.814 4.813-5.671 8.34-.795 3.732 5.179 4.177 12.788 5.972 18.76.667 2.224 3.924 1.303 3.463-.953-1.175-5.687 7.831-26.019 14.836-25.002 5.719.826 1.096 14.868.159 18.219v-.016Zm-73.196-7.179c-2.811-2.065-6.799-1.303-9.006 1.286-2.606 3.066-2.51 8.308 1.524 9.912 2.78 1.589 6.529 1.398 8.769-1.08 2.557-2.827 1.699-7.926-1.287-10.118Zm-1.461 8.117c-1.096 1.159-3.13 1.35-4.559.746-1.366-1.572-1.62-3.907-.048-5.464 1.096-1.08 2.971-1.43 4.194-.349 1.334 1.159 1.652 3.748.413 5.083v-.016Zm38.98 42.729c-2.049-1.43-4.924-.953-6.608.842-2.033 2.176-2.112 6.687 1.319 7.418 2.049 1.112 4.765.937 6.385-.89 1.875-2.128 1.16-5.813-1.096-7.37Zm-1.636 5.337c-.492.572-1.588.731-2.335.509-.508-.858-.762-1.875.064-2.653.54-.493 1.413-.651 2.001-.191.62.509.794 1.716.27 2.319v.016Z"/>
  <path fill="#262A40" d="M185.704 517.485c-2.605 3.066-2.509 8.308 1.525 9.912 2.78 1.589 6.529 1.398 8.769-1.08 2.557-2.827 1.699-7.926-1.287-10.119-2.812-2.065-6.799-1.302-9.007 1.287Zm7.53 6.831c-1.096 1.159-3.13 1.35-4.559.746-1.366-1.572-1.62-3.908-.048-5.464 1.096-1.08 2.971-1.43 4.194-.35 1.334 1.16 1.652 3.749.413 5.083v-.015Zm66.286-82.902c-2.812-2.065-6.799-1.303-9.007 1.286-2.605 3.066-2.509 8.308 1.525 9.912 2.78 1.589 6.529 1.398 8.769-1.08 2.557-2.827 1.699-7.926-1.287-10.118Zm-1.461 8.117c-1.097 1.159-3.13 1.35-4.559.746-1.366-1.572-1.621-3.907-.048-5.464 1.096-1.08 2.97-1.43 4.194-.349 1.334 1.159 1.652 3.748.413 5.083v-.016Zm-3.781 98.213c2.478 0 2.478-3.844 0-3.844s-2.478 3.844 0 3.844Zm-23.636-98.165c-2.161 0-2.161 3.351 0 3.351 2.16 0 2.16-3.351 0-3.351Z"/>
  <path fill="#C8BFBC" d="M229.609 663.686c2.288 0 2.288-3.558 0-3.558-2.287 0-2.287 3.558 0 3.558Z"/>
  <path fill="#262A40" d="M122.246 629.519c-2.224 0-2.224 3.447 0 3.447 2.223 0 2.223-3.447 0-3.447ZM62.265 419.827c2.05 1.112 4.766.937 6.386-.89 1.874-2.128 1.16-5.814-1.096-7.37-2.05-1.43-4.924-.953-6.608.842-2.033 2.176-2.113 6.687 1.318 7.418Zm1.398-5.067c.54-.493 1.414-.652 2.002-.191.62.508.794 1.715.27 2.319-.493.572-1.589.731-2.335.508-.509-.857-.763-1.874.063-2.652v.016ZM35.945 670.533c-2.05-1.43-4.925-.953-6.608.842-2.034 2.176-2.113 6.687 1.318 7.418 2.05 1.112 4.765.937 6.386-.89 1.874-2.128 1.16-5.813-1.096-7.37Zm-1.636 5.337c-.493.572-1.589.731-2.335.509-.509-.858-.763-1.875.063-2.653.54-.493 1.414-.651 2.002-.191.619.509.794 1.716.27 2.319v.016Z"/>
  <path fill="#C8BFBC" d="M245.049 204.893c6.497-10.198 19.808-12.597 30.244-6.926 8.689 4.718 12.104 16.091 9.325 25.32-4.385 14.487-31.198 18.283-31.992-.032-.254-6.02 5.02-10.198 10.722-10.293 10.023-.175 9.483 15.932.747 12.438-1.954-.779-3.114 2.303-1.398 3.319 11.437 6.783 17.076-12.247 7.529-18.044-9.944-6.037-23.271 3.351-21.317 14.55 2.764 15.98 24.017 18.537 34.231 8.053 8.991-9.229 7.815-26.511-1.398-35.2-11.166-10.531-31.943-8.546-38.901 5.544-.715 1.461 1.303 2.668 2.192 1.286l.016-.015Zm-1.747 63.919c4.924-6.02 12.406-4.924 19.331-4.559.207 0 .397-.031.572-.095 5.719 1.303 13.105 1.986 17.727-2.144 4.146-3.686 3.924-9.42.509-13.55-12.692-15.344-34.104 8.292-41.046 18.108-1.191 1.684 1.573 3.86 2.891 2.24h.016Zm24.462-20.825c4.908-.683 10.786.541 12.676 5.798 1.858 5.163-3.781 7.164-7.116 7.784-3.145.603-6.529.063-9.753-.032a1.176 1.176 0 0 0-.541-.222c-4.67-.779-9.435-1.366-13.724-.413 5.067-6.052 11.501-11.961 18.458-12.93v.015Zm15.313 27.131c-6.862-6.576-20.078-3.59-27.878-1.143-1.953.619-1.159 3.574.842 3.081 8.244-2.065 12.152 10.039 20.459 9.737.223 0 .414-.079.588-.174 5.878-.54 11.58-6.148 5.989-11.517v.016Zm-6.116 8.927s-.047-.031-.095-.031c-5.576-1.033-9.166-6.211-13.74-8.832 2.541-.509 5.099-.794 7.704-.699 2.017.063 4.05.318 5.988.905 1.239.334 2.431.826 3.542 1.493 1.065 4.67-.079 7.053-3.399 7.18v-.016Zm-113.4-45.462c4.13-19.252 19.3-34.358 39.489-35.47 22.811-1.271 45.716 18.458 32.691 41.983-4.956 8.959-15.122 16.742-25.797 15.948-9.181-.667-15.535-9.276-15.9-18.045-.366-8.641 5.194-16.075 14.216-16.123 4.782-.031 8.975 1.922 10.214 6.751.842 3.241-.079 7.117-2.637 9.452-4.479 4.098-13.819.174-9.038-5.798 1.271-1.589-.651-3.574-2.256-2.256-6.02 4.988-1.747 13.597 5.417 14.28 8.149.779 14.058-8.752 12.644-16.091-1.493-7.783-9.658-10.96-16.822-10.007-8.101 1.08-13.93 7.037-15.281 15.059-1.397 8.355 2.129 17.759 9.007 22.794 9.086 6.64 21.349 3.542 29.625-2.859 20.046-15.472 17.489-45.319-6.259-55.247-26.813-11.214-57.518 6.465-61.807 34.962-.238 1.589 2.113 2.319 2.462.683l.032-.016Z"/>
  <path fill="#262A40" d="M123.056 191.645c-16.012 3.732-25.718 20.459-19.507 36.169 4.75 12.04 21.73 15.328 30.006 4.575 9.896-12.851-12.517-26.655-18.156-10.611-.444 1.27 1.636 2.176 2.208.937 3.955-8.8 18.029-3.86 14.519 5.432-1.192 3.177-4.337 5.226-7.434 6.307-6.402 2.207-13.264.397-16.711-5.639-1.811-3.177-2.732-6.37-2.923-9.499a.967.967 0 0 0 .048-.382 15.369 15.369 0 0 1-.048-1.89c.08-1.652.35-3.272.811-4.829 2.891-8.657 12.85-14.248 22.19-11.85 11.723 3.018 17.791 14.916 18.077 26.257.334 14.042-7.101 28.815-14.979 41.205-10.659 13.184-15.726 31.737-11.199 46.987.445 1.509 2.701.873 2.351-.652-1.35-5.861-1.461-11.738-.556-17.441.032-.048.08-.079.111-.127 7.482-14.518 20.158-34.136 38.806-33.818 10.548.174 24.32 10.785 16.536 22.159-2.684 3.939-8.371 5.607-12.39 4.225 7.784-.175 17.156-9.054 9.293-18.41-5.306-6.306-14.63-6.227-20.873-1.366-7.735 6.02-9.594 17.505-4.527 25.796 11.771 19.252 37.647 5.957 42.809-11.373 6.703-22.493-18.966-37.186-38.425-31.388-.778.238-1.556.492-2.335.778 8.213-10.595 12.311-26.368 9.928-38.679-3.351-17.298-20.952-26.797-37.63-22.905v.032Zm60.615 71.512c13.121 13.899-.731 39.235-19.22 37.646-11.374-.969-18.442-13.66-12.787-23.811 3.399-6.115 12.993-10.452 18.489-4.384 2.351 2.589 3.495 5.862 1.478 9.134-1.716 2.78-10.452 6.004-11.183-.143-.302-2.43-3.59-2.494-3.828 0-.906 9.531 7.783 13.931 16.234 11.135 10.42-3.447 13.184-16.869 6.512-25.066-7.592-9.324-20.824-10.611-31.244-5.909-7.975 3.606-14.614 9.721-19.872 16.854a60.475 60.475 0 0 1 7.529-10.357c12.247-13.613 33.675-20.205 47.924-5.115l-.032.016Zm-41.077-5.877s-.032.079-.064.127c-.81.54-1.604 1.096-2.398 1.699 2.525-5.083 4.622-10.325 6.337-15.249 4.146-11.897 4.575-26.193-3.272-36.741-5.543-7.45-15.17-11.993-24.287-9.896 3.399-1.715 7.195-2.732 11.119-2.843 16.329-.445 28.179 12.31 27.687 28.322-.429 13.613-7.164 24.16-15.122 34.581Z"/>
  <path fill="#C8BFBC" d="M102.835 83.232c-.477 1.811 2.303 3.145 3.129 1.319 2.573-5.608 15.519-6.72 20.983-8.101.239-.064.413-.175.572-.318 10.325-.81 26.909-.953 31.039-12.692 3.145-8.975-4.384-17.473-12.851-19.172-22.62-4.544-38.044 20.411-42.888 38.964h.016Zm53.245-23.954c-.112 12.55-19.395 13.28-28.751 14.408-.223-.127-.461-.223-.763-.207-4.622.302-12.962 1.493-18.521 4.56 4.416-12.486 12.692-25.432 25.336-29.705 8.371-2.843 22.826-.54 22.715 10.944h-.016Zm-63.634-.142s.095-.112.127-.175c7.99-18.68 34.088-15.408 47.892-27.338 8.26-7.132 7.847-22.508-3.034-26.75-12.676-4.94-28.656 2.653-37.075 12.216-9.101 10.325-15.63 29.26-11.055 42.825.651 1.938 3.526 1.207 3.16-.763l-.015-.016Zm11.151-40.522c7.053-7.466 34.136-21.174 38.806-3.94 6.878 25.416-41.475 21.016-50.672 40.22-1.477-12.596 3.431-27.337 11.866-36.28Z"/>
  <path fill="#262A40" d="M64.6 62.44c-6.623 5.511-7.338 13.438-4.717 21.3 2.033 6.085 5.766 11.438 7.799 17.521 2.923 8.689 2.113 17.728-1.604 26.003-.81 1.795 1.127 3.289 2.668 2.065 12.994-10.404 26.972-28.512 25.702-46.208 0-.174-.064-.333-.127-.476.063-8.8-2.478-20.317-11.628-23.827-6.068-2.335-13.216-.429-18.093 3.637v-.015Zm27.258 20.173s-.047.08-.063.143c-3.288 15.853-9.134 28.862-20.444 39.759 1.335-4.734 1.843-9.61 1.24-14.693-1.017-8.45-5.576-15.25-8.705-22.97-3.86-9.562-2.113-19.919 8.863-23.207 13.264-3.987 18.649 10.23 19.093 20.984l.016-.016Z"/>
  <path fill="#C8BFBC" d="M117.877 67.73c-1.477 1.334.508 4.002 2.16 2.795 7.752-5.655 17.744-1.207 25.654-6.18.175-.11.302-.253.413-.396 6.052-4.32 3.717-12.406-4.003-12.231-11.643.27-16.456 8.958-24.224 16.011Zm15.646-10.421c1.684-.874 3.606-1.43 5.449-1.843 1.128-.254 2.525-.683 3.701-.508 3.638.556 5.544 3.828 1.858 6.799-6.067 1.97-12.644 1.16-18.712 2.414 2.256-2.684 4.607-5.274 7.689-6.878l.015.016Zm-31.848-16.107c6.656-7.339 17.171-9.245 26.146-12.533 4.797-1.763 8.737-4.416 7.291-10.023 0-.048-.048-.08-.064-.111-2.652-7.387-9.562-7.212-15.9-4.178-10.071 4.797-17.044 14.82-20.285 25.225-.492 1.572 1.684 2.875 2.796 1.636l.016-.016Zm13.645-20.57c4.432-3.559 13.946-9.372 17.139-1.398.334 6.131-11.008 7.926-15.567 9.642-4.447 1.667-8.688 3.192-12.485 5.655 2.542-5.37 6.147-10.087 10.913-13.9Z"/>
  <path fill="#262A40" d="M70.652 70.954c-1.747 3.002-1.096 8.1-.206 11.262 2.192 7.783 7.481 13.216 5.528 21.904-.477 2.129 2.382 2.796 3.192.874 3.717-8.911 8.737-19.427 5.1-29.18 0 0 0-.016-.017-.032-1.27-6.195-8.927-12.914-13.597-4.844v.016Zm2.303 3.939c1.954-6.481 7.085-3.336 8.832 1.477.048 4.908.477 9.388-.73 14.28-.445 1.78-1.049 3.543-1.7 5.274-.365-1.89-1-3.78-1.858-5.75-1.398-3.13-3.304-6.163-4.083-9.531-.365-1.588-.953-4.066-.445-5.75h-.016Z"/>
  <path fill="#C8BFBC" d="M71.065 50.002c0 2.16 3.082 2.065 3.304 0 .7-6.513 3.717-12.343 4.146-18.903.382-6.163.572-12.723-1.652-18.537-.047-.111-.11-.19-.174-.286C75.02 7.066 71.733 1.236 65.87.156c-4.845-.89-9.88 2.113-11.373 6.751-1.62 5.035.572 11.087 3.177 15.376 5.845 9.626 13.422 15.424 13.39 27.719ZM69.51 5.382c2.35 1.89 3.717 4.956 4.892 7.688v.159c1.017 6.91 1.7 15.345.27 22.286-.397 1.954-.969 3.844-1.54 5.719-1.668-5.703-4.925-10.564-9.023-15.71-3.256-4.067-6.402-8.292-6.815-13.693-.508-6.64 5.687-11.707 12.232-6.449h-.016ZM31.942 58.166s.127.048.19.08c7.434 6.862 14.44 13.93 19.348 22.874.826 1.509 2.97.714 3.065-.826.81-13.566.318-27.941-3.415-41.11-2.192-7.72-6.544-14.915-15.01-16.44-7.466-1.335-14.678 3.43-16.616 10.785-2.446 9.34 5.242 19.57 12.422 24.637h.016ZM24.238 31.21c6.083-9.705 17.886-4.511 21.777 3.86 5.48 11.786 5.973 26.67 5.496 39.886-4.86-7.18-10.976-13.12-17.759-18.68-.047-.08-.079-.175-.143-.254-5.511-6.386-15.153-15.551-9.356-24.812h-.015Zm29.227 127.013c3.288-22.191 5.306-46.145-3.034-67.51-3.066-7.878-7.068-14.931-15.138-18.362-7.037-3.002-15.884-2.844-22.429 1.287-.27.174-.429.397-.556.65-16.424 9.055-12.993 27.545-2.367 40.078 6.878 8.101 16.346 13.104 23.939 20.427 5.353 5.163 15.932 15.043 15.805 22.922-.032 2.112 3.462 2.7 3.78.508ZM30.48 126.898c-7.307-5.782-15.01-10.61-20.523-18.33-8.037-11.247-8.1-23.62 3.717-31.944.143 0 .27 0 .43-.048 39.79-13.105 39.901 42.237 36.74 71.989-4.75-8.625-14.614-17.124-20.364-21.667Zm-12.294 2.32C9.21 125.898-.685 132.395.84 142.037a1.27 1.27 0 0 0 0 .731c4.288 16.011 28.973 6.592 34.517 21.412.778 2.081 4.082 1.239 3.383-.937-3.717-11.516-7.577-29.243-20.539-34.041l-.015.016Zm6.623 22.938c-7.02-1.938-18.664-1.764-21.19-10.151 0-.031-.031-.063-.047-.095.032-6.274 5.13-11.167 11.707-9.928 4.384.826 8.085 4.527 10.468 8.101 3.034 4.527 5.083 10.023 6.862 15.488-2.272-1.525-4.909-2.605-7.815-3.4l.015-.015Z"/>
  <path fill="#C8BFBC" d="M30.083 84.075c-6.925-2.732-14.344-.445-15.154 7.64-1.16 11.771 12.088 23.065 19.967 29.784.143.127.302.206.46.254 2.574 3.415 5.211 6.751 7.562 10.325.921 1.414 2.875.762 3.018-.826 1.43-14.36.318-40.808-15.869-47.177h.016ZM18.693 96.02c-2.858-13.454 12.375-9.912 17.331-2.526 6.163 9.166 7.466 21.953 6.973 33.167a59.908 59.908 0 0 0-5.623-6.449 1.533 1.533 0 0 0-.222-.461c-5.528-7.624-16.425-14.137-18.458-23.715v-.016Z"/>
  <path fill="#262A40" d="M12.038 17.152c2.05 1.112 4.766.938 6.386-.89 1.874-2.128 1.16-5.813-1.096-7.37-2.05-1.43-4.924-.953-6.608.842-2.033 2.177-2.113 6.688 1.318 7.418Zm1.398-5.067c.54-.492 1.414-.651 2.002-.19.62.508.794 1.715.27 2.319-.493.572-1.589.73-2.335.508-.509-.858-.763-1.874.063-2.653v.016Zm207.373 82.902c1.97 1.064 4.559.921 6.163-.779 1.922-2.033 1.287-5.702-.937-7.275-1.985-1.398-4.829-1-6.481.747-2.001 2.112-2.144 6.608 1.271 7.29l-.016.017Zm1.446-4.94c.492-.43 1.255-.556 1.779-.16.603.461.778 1.59.286 2.177-.445.54-1.478.699-2.176.492-.477-.826-.715-1.795.111-2.51ZM98.72 180.033c-2.811-2.065-6.798-1.302-9.006 1.287-2.605 3.066-2.51 8.308 1.525 9.912 2.78 1.589 6.528 1.398 8.768-1.08 2.557-2.828 1.7-7.927-1.287-10.119Zm-1.461 8.117c-1.096 1.16-3.13 1.351-4.559.747-1.366-1.573-1.62-3.908-.047-5.464 1.096-1.08 2.97-1.43 4.193-.35 1.334 1.16 1.652 3.749.413 5.083v-.016Zm-31.706-39.584c-1.938 0-1.938 3.002 0 3.002s1.938-3.002 0-3.002Zm193.808-55.294c2.065 0 2.081-3.209 0-3.209s-2.081 3.209 0 3.209Zm-57.153 191.773c-2.144 0-2.144 3.32 0 3.32 2.145 0 2.145-3.32 0-3.32ZM99.96 296.88c.317 1.239 1.747 2.018 2.811.953a1.718 1.718 0 0 0 .429-1.636c-.191-.699-.747-1.048-1.398-1.175-.191-.175-.365-.35-.556-.524-1.207-1.16-2.986.635-1.827 1.826.175.191.366.382.54.556Zm192.87 197.159c-1.207-8.307-8.26-10.134-14.503-7.831 2.987-7.72 3.082-17.663-5.432-21.031-7.275-2.875-15.17 2.113-19.443 8.467-1.986-5.099-6.941-8.499-13.041-7.244a1.696 1.696 0 0 0-.794.381c-3.114 1.51-5.099 3.892-6.529 6.736-3.177-7.72-10.007-12.899-19.268-8.562-4.019 1.874-7.259 5.401-8.705 9.578-1.334 3.86-.619 7.434.715 10.945-3.367-2.018-7.116-2.923-11.389-1.382-4.988 1.779-8.8 6.512-9.245 11.834-.89 10.404 9.69 16.297 18.68 14.455-2.7 7.497.493 16.79 8.07 20.3 8.101 3.749 17.266.794 22.381-5.782.953 5.099 4.527 9.626 10.246 10.087 6.592.54 10.245-4.686 11.023-10.341 5.401 5.973 12.931 7.768 21.095 3.018 9.261-5.369 8.943-14.36 4.305-21.968 6.068-.127 12.723-5.576 11.85-11.66h-.016Zm-13.041 26.099c-1.636 2.891-5.004 5.099-8.086 6.099-7.577 2.478-12.691-1.127-16.44-7.449-.953-1.621-3.304-.509-2.939 1.239 3.145 15.153-18.585 14.582-15.201-.239.429-1.842-2.081-2.43-2.764-.762-2.955 7.164-11.278 11.119-18.76 9.006-8.371-2.366-12.167-13.692-5.877-20.252 1.414-1.478-.461-4.194-2.272-2.939-5.861 4.066-16.154 2.462-18.267-5.385-1.128-4.178 1.239-9.07 4.94-11.135 6.068-3.368 11.056.683 15.17 4.781 1.604 1.605 3.733-.413 2.939-2.255-3.289-7.593-7.117-16.52 1.874-21.826 2.653-1.572 5.877-2.271 8.895-1.477 5.878 1.541 7.117 7.164 8.038 12.263.333 1.906 3.082 1.636 3.59 0 1.302-4.226 2.764-7.847 6.894-9.849 6.29-1.207 9.578 4.543 9.117 9.944-.174 2.113 3.114 2.478 3.638.493 1.811-6.672 10.897-15.663 18.378-11.294 7.434 4.336 3.273 15.9-.381 21.078-1.175 1.652 1.366 3.479 2.748 2.113 1.35-1.318 3.956-3.431 5.941-3.495 4.337-.127 10.087 3.479 8.054 8.356-1.398 3.351-8.038 6.512-11.39 4.177-1.668-1.159-3.272 1.303-2.065 2.669 3.797 4.305 7.72 9.912 4.226 16.139Zm-48.56 33.23c1.494-6.894.398-14.201-7.719-16.647-6.64-2.002-13.328 1.763-16.727 7.354-3.018-6.147-9.642-10.087-16.965-7.783-6.893 2.16-10.07 8.72-9.514 15.281-7.434-4.003-17.871-2.923-19.507 7.434-1.525 9.689 8.483 13.819 16.409 12.024-1.334 6.37 1.446 13.121 8.022 15.885 7.561 3.193 14.757-1.239 17.727-7.927 2.573 4.893 8.053 8.229 13.867 7.355 5.766-.874 9.324-5.877 10.293-11.278 5.894 4.178 16.091 1.223 18.426-6.068 2.891-9.054-6.528-18.013-14.296-15.63h-.016Zm7.434 17.917c-3.224 2.431-9.53 2.78-11.627-2.08-.699-1.621-3.606-.842-3.399.921.46 3.765-.286 7.894-3.241 10.579-6.036 5.512-15.376-.048-16.218-7.243-.206-1.716-2.669-1.811-2.748 0v.111c-.063.111-.127.206-.159.349-1.557 5.989-6.878 11.39-13.486 9.261-6.37-2.049-8.8-8.705-5.544-14.598.906-1.652-.969-3.733-2.668-2.669-5.623 3.527-18.109 1.271-14.233-8.164 3.304-8.022 12.93-4.448 16.949.286 1.509 1.779 3.971-.493 3.066-2.367-2.875-5.957-.842-13.391 5.639-15.392 6.83-2.129 13.105 2.827 13.597 9.975.175 2.558 3.59 2.446 3.892 0 .46-3.796 2.986-6.941 6.29-8.689 4.051-2.144 7.148-1.652 10.42 1.494 4.559 4.4 2.987 9.213.715 14.613-.731 1.716 2.049 3.32 3.193 1.859 6.1-7.863 18.918 4.718 9.578 11.739l-.016.015Z"/>
  <path fill="#C8BFBC" d="M157.207 718.727c-2.414-11.692-12.866-15.297-21.634-10.897.905-9.626-7.847-19.443-17.68-20.809-9.277-1.287-17.997 4.225-22.413 12.072-4.813-10.039-19.904-9.562-25.336-.127-4.352-10.309-13.66-18.061-25.685-13.057-9.77 4.066-14.678 14.598-13.026 24.494-5.67-1.954-12.342.651-15.312 7.021-3.75 8.022 1.143 13.915 7.91 15.789-4.972 5.48-4.098 14.439 3.066 19.459 7.752 5.432 17.997 3.447 23.54-3.352 2.336 7.244 7.61 13.645 15.647 14.566 9.165 1.049 16.075-5.305 19.522-13.089 4.988 7.863 17.426 6.99 23.176-1.127 4.034 8.387 14.725 12.882 23.906 8.8 8.419-3.749 11.437-14.233 7.625-21.921 4.193.81 8.45.635 11.993-2.319 4.447-3.701 5.829-10.023 4.685-15.519l.016.016Zm-9.896 14.153c-3.431 1.112-7.116-.048-10.404-1.128-.175-.127-.35-.254-.588-.334-.159-.063-.318-.127-.476-.174-1.907-.731-3.368 2.049-1.954 3.367 6.354 5.957 4.797 17.425-3.797 20.301-8.339 2.795-18.076-2.955-18.362-12.025-.08-2.367-3.828-3.113-4.305-.588-.858 4.496-3.097 8.181-7.752 9.499-6.067 1.716-11.516-2.208-11.627-8.768-.032-2.351-3.892-3.082-4.273-.572-1.239 7.974-6.243 17.06-15.487 17.187-8.737.127-13.804-8.752-14.535-16.393-.238-2.414-3.494-3.018-4.289-.587-1.938 5.877-8.514 9.88-14.502 8.577-3.304-.715-6.481-2.398-8.18-5.432-2.447-4.4-.78-10.5 4.542-12.12 2.812-.858 1.573-4.654-1.175-4.273-6.56.905-12.184-2.939-10.452-9.261 1.445-5.226 9.467-9.324 14.01-3.018 1.62 2.256 5.083.334 3.764-2.208-4.447-8.562-1.27-19.792 7.276-24.383 12.898-6.909 21.825 6.608 23.54 17.886.366 2.431 4.432 1.859 4.29-.587-.858-14.948 20.999-16.806 20.061-.334-.142 2.383 3.86 2.986 4.226.572 1.207-7.927 6.878-14.709 14.884-16.536 10.865-2.478 24.939 10.007 17.87 20.952-1.255 1.938 1.636 4.193 3.209 2.478 7.1-7.704 18.314-6.433 20.522 4.781.953 4.797-.492 11.278-6.052 13.089l.016.032Z"/>
  <path fill="#262A40" d="M262.379 139.75c11.262-6.513 13.486-23.335 1.144-31.102-9.721-6.1-25.479-3.495-32.341 5.798-1.493-5.21-5.083-9.626-10.865-11.231-6.973-1.938-13.597 1.081-17.759 6.291-4.988-31.912-61.283-27.846-66.906 2.97-7.084-8.117-19.633-9.689-29.227-3.701-6.64 4.146-9.515 14.947-7.355 23.049-8.816-2.669-18.521 3.113-19.11 13.74-.333 5.972 3.162 11.087 8.579 13.47 4.987 2.192 9.212 1.429 13.311-.572-1.414 8.657 6.687 19.3 14.121 22.143 10.77 4.098 24.256.683 31.229-8.419 5.194 16.917 29.371 20.38 38.568 5.512 3.733 6.672 15.757 6.243 20.173-.905 3.844 7.64 12.756 12.024 21.381 10.563.413.349.969.508 1.652.318 10.182-2.891 15.472-10.77 14.407-20.237 8.705 4.638 20.984 4.066 26.941-4.718 5.925-8.721 0-18.267-7.943-22.969Zm2.605 22.731c-6.655 5.861-17.028 4.781-23.255-1.001-1.382-1.287-4.019-.048-3.351 1.954 3.208 9.515-.683 17.505-10.436 20.554a1.904 1.904 0 0 0-1.017.731c-9.07.747-18.124-5.067-19.427-14.423-.27-1.97-3.399-1.446-3.415.461-.048 10.277-17.426 11.357-15.869 1.366.35-2.208-2.78-3.209-3.431-.953-5.448 18.839-33.516 15.328-34.787-4.099-.111-1.683-2.653-2.779-3.511-.953-4.114 8.88-13.994 13.28-23.525 12.295-5.385-.556-10.69-2.986-13.787-7.577-2.86-4.225-5.354-12.358-.922-16.282 1.605-1.429-.508-4.225-2.319-3.002-2.335 1.589-4.988 3.86-7.767 4.654-6.005 1.716-12.311-1.572-13.868-7.45-2.605-9.88 8.864-18.346 17.569-11.15 1.54 1.286 4.479-.461 3.049-2.351-4.527-5.973-2.938-18.998 3.447-23.081 9.484-6.068 22.255-3.081 27.068 7.18.842 1.795 3.701.874 3.653-.985-.81-33.373 62.633-38.393 59.774-1.445-.175 2.255 3.24 2.573 3.844.524 4.797-16.059 27.591-12.311 25.256 4.892-.333 2.494 3.479 3.574 3.813 1.049 1.541-11.294 15.424-16.091 25.367-13.216 14.169 4.098 14.09 23.509-.206 27.591-1.97.556-1.843 3.241 0 3.86 8.307 2.796 16.679 13.264 8.022 20.873l.031-.016ZM45.248 567.924c.248 1.967-2.677 2.484-3.047.524-1.455-7.616-1.058-15.669.84-23.566.548-2.493 4.526-2.095 3.71.976-1.863 7.077-2.465 14.503-1.503 22.066Z"/>
  <path fill="#262A40" d="M182.162 373.539c5.099-7.911 14.169-23.859 4.924-25.638-8.53-1.636-16.726 10.198-20.713 15.885-7.53 10.722-12.597 22.762-15.488 35.502-.016.079 0 .143 0 .222-11.071 11.66-20.554 26.019-25.526 41.507.032-.413.079-.826.111-1.255 1.35-16.87-.365-34.009 3.955-50.18.366-.19.683-.54.842-1.064 5.29-16.774 21.508-24.605 34.835-34.183 8.832-6.338 19.57-13.264 18.22-25.432 0-.111-.048-.19-.08-.27v-.063c-1.112-7.117-6.242-10.039-13.041-7.752-4.956 1.684-9.229 4.765-12.898 8.514 1.318-4.273 2.017-8.673 1.445-12.723-.937-6.735-7.624-10.579-13.454-6.227-7.037 5.242-10.039 17.727-12.39 25.654-5.051 17.028-1.97 34.405-6.131 51.529-.128.54-.032 1.001.174 1.35-1.525 5.369-2.398 10.865-2.938 16.441-.874-4.305-2.113-8.451-3.686-12.215.525-10.389 3.622-20.063 3.003-30.578-.366-6.116-1.255-14.408-6.37-18.665-3.304-2.748-7.053-2.303-9.579 1.16-2.589 3.558-2.605 8.451-1.906 13.168-5.242-5.226-13.01-8.752-18.76-4.336-7.91 6.068 2.638 18.219 8.038 22.032.064.047.127.047.175.079 7.275 6.449 16.012 11.564 22.763 18.522.063.063.142.111.222.158 3.542 11.914 4.511 24.526 3.987 36.9-1.731-9.149-5.02-17.965-9.976-26.066-4.32-7.069-10.086-13.582-15.598-19.729-6.084-6.783-14.407-11.183-22.016-16.012-1.652-1.048-3.082.953-2.43 2.431 1 2.303.11 6.465.158 8.943.048 3.002.397 5.909.922 8.863 1.54 8.88 4.527 16.997 9.53 24.526 4.75 7.132 10.945 12.708 17.426 18.236 7.068 6.02 20.221 15.868 19.49 26.543-1.97 8.895-4.908 17.536-9.34 25.51-7.656 13.772-20.221 22.715-32.77 31.595 6.99-9.039 11.103-18.76 13.788-30.244.095-.096.206-.207.286-.334 4.876-8.609 9.912-18.649 12.151-28.338.016-.08 0-.159 0-.238 1.859-4.639 7.577-20.92-2.779-20.19-4.464.318-7.244 5.703-9.023 10.881-2.001-7.72-6.719-16.615-12.882-12.739-.254.159-.46.333-.683.508.333-1.112.699-2.224 1.048-3.336.445-.54.89-1.096 1.35-1.636.572-.667.27-1.477-.27-1.874 0-1.223-1.556-2.351-2.652-1.525-16.886 12.851-29.625 27.83-33.58 49.147-2.129 11.437-1.446 22.492-.572 33.993 1.048 13.851.445 27.639-1.493 41.379-.207 1.477 1.16 2.415 2.271 2.288.207.301.556.524 1.048.508h.445c2.415 2.668 4.59 9.356 5.401 11.532 2.637 7.021 3.383 14.455 7.625 20.809 6.385 9.578 18.267 15.583 29.481 11.294.207.016.413 0 .652-.064 5.194-1.556 9.34-4.797 13.533-8.133 1.112-.889.509-3.018-.857-3.256-15.25-2.796-16.552-19.109-27.322-27.56-5.861-4.606-12.978-7.577-20.348-8.752 10.674-4.766 21.54-2.018 32.881 2.446 10.833 4.257 21.015 7.545 32.77 7.641 14.852.111 35.835-3.527 39.251-21.318.222-1.175-.509-2.303-1.779-2.335-17.791-.428-34.438-3.367-51.848-6.592-14.677-2.716-28.354-2.478-42.078 3.352-.222-.016-.46 0-.715.095a57.398 57.398 0 0 0-3.669 1.684c4.765-4.479 10.007-8.498 15.376-12.39a71.457 71.457 0 0 1 4.114-2.446c12.756-7.069 25.575-9.102 39.474-7.529.111.031.238.031.365.047 1.747.207 3.526.461 5.321.779 3.05 1.159 6.243 3.176 8.387 4.241 2.812 1.398 5.639 2.827 8.292 4.495 7.688 4.861 17.664 16.171 27.671 14.741 5.607-.794 8.578-5.877 6.624-11.119-1.366-3.67-4.464-6.688-7.974-9.039 3.749-.556 7.307-2.144 9.642-4.971.286-.175.508-.461.635-.858.207-.381.254-.763.175-1.112.969-8.61-8.419-12.279-15.932-12.104-14.217.349-29.212 6.115-42.365 11.262-9.61-2.446-19.22-1.366-28.417 1.906 6.195-4.797 12.04-9.959 16.933-16.091 5.242-5.448 10.992-8.689 17.822-11.183.239.524.699.906 1.414.826 13.057-1.62 25.05 3.241 37.869 4.559 5.607.572 14.503 1.859 18.553-3.383 3.272-4.226.906-9.07-2.827-12.041-3.511-2.795-7.688-3.987-12.009-4.146 3.78-2.398 6.878-5.432 7.323-9.197.031-.111.047-.222.047-.333v-.143c0-.143-.016-.286-.063-.429v-.016a1.85 1.85 0 0 0-.143-.413c-2.446-8.038-13.534-4.432-19.236-2.367-12.565 4.559-21.206 13.915-29.673 23.795-4.702.794-9.229 2.859-13.2 5.687 0-.016.016-.032.032-.048 4.114-7.466 6.989-15.535 8.991-23.827.349-.206.619-.54.714-1.08 0-.047 0-.079.016-.127.318-.19.588-.492.747-.921 2.653-7.021 9.134-9.658 15.821-11.564.063-.016.111-.064.175-.08 14.852-.969 28.338 1.16 40.839-8.72 12.723-10.071 17.965-25.797 19.395-41.443.143-1.573-1.874-2.049-2.875-1.191-8.228 7.1-16.758 14.407-27.401 17.473-8.371 2.414-16.488 3.161-24.303 7.386-4.718 2.541-8.483 5.671-11.596 9.245 4.988-10.961 11.198-21.095 19.681-30.467.175-.079.365-.175.524-.318 2.764-2.414 9.928-3.478 13.375-4.431 7.291-2.034 14.487-4.083 21.555-6.831 6.195-2.398 17.696-6.687 18.188-14.709.683-11.23-15.281-6.274-24.621-1.398l-.016.048Zm-93.814-14.932c3.463-9.149 17.234 3.432 18.95 8.594.731 2.192 3.971 1.303 3.463-.953-.763-3.352-1.668-6.862-1.859-10.293-.158-2.939-.746-13.645 7.577-7.164 3.352 2.605 3.384 11.58 3.543 14.995.428 8.959-1.843 17.489-2.606 26.289-6.496-5.877-14.248-10.579-20.999-16.107-.032-.048-.048-.111-.08-.159-3.017-3.876-10.038-9.833-7.99-15.217v.015Zm84.807 151.444c-3.129 4.082-10.61 4.416-14.915 3.098-2.303-.699-3.129 2.7-.969 3.542a33.004 33.004 0 0 1 8.911 5.273c1.287 1.081 2.589 2.224 3.463 3.67 4.082 6.751-2.383 8.577-8.054 7.609-3.669-.62-8.291-4.925-11.262-7.085-3.081-2.24-6.052-4.67-9.292-6.703-3.892-2.431-10.166-6.592-16.012-8.578 15.44-5.242 50.513-15.471 48.146-.842l-.016.016Zm-93.973-68.319c1.382-4.861 4.003-3.479 6.195-.159 2.351 3.574 4.83 9.53 4.13 13.946-.317 2.018 2.59 2.939 3.145.858 1.08-4.098 2.304-8.482 4.464-12.136.429-.715 1.382-2.795 2.16-3.034 3.384-1.032 4.623 4.813 4.257 6.878-.508 2.812-1.509 5.544-2.493 8.229-.032.047-.08.079-.112.142-3.876 6.894-6.401 14.471-9.705 21.699-1.493-9.706-6.862-17.298-10.198-26.988-.89-2.605-2.59-6.719-1.827-9.435h-.016Zm-1.89 9.403c3.717 11.755 11.278 20.698 10.674 33.834-.015.429.112.779.334 1.049-1.509 5.782-2.923 11.58-5.687 16.949-3.478 6.75-8.53 12.548-13.104 18.569a.967.967 0 0 0-.207.619c-6.417 4.718-12.517 9.706-17.664 15.63-.54.541-1.08 1.097-1.62 1.637 7.1-13.169 18.22-24.256 20.936-39.68 1.795-10.198.73-20.189 1.16-30.451.35-8.403 1.636-16.726 3.605-24.875.286 2.462.985 4.892 1.573 6.735v-.016Zm-8.07 10.786c-1.254 12.326.636 24.669-1.492 36.916-1.843 10.579-7.816 19.14-13.534 27.813 3.876-12.675 3.24-26.018 3.892-39.457.826-17.139 5.845-32.754 15.01-46.621a142.175 142.175 0 0 0-3.875 21.349Zm-23.127 26.082c.73-11.103 3.288-22.874 9.086-32.5 4.892-8.132 11.707-14.947 19.03-20.999-9.515 12.12-16.108 26.178-18.284 41.618-1.286 9.101-1.175 18.251-1.493 27.416-.397 10.945-2.526 20.952-6.322 31.214-.19.492 0 .937.318 1.239-.46.841-.922 1.683-1.35 2.557.444-5.83.635-11.659.492-17.537-.286-11.039-2.176-21.936-1.461-32.992l-.016-.016Zm18.839 101.169c-6.274-6.481-7.18-14.534-9.944-22.667-.969-2.844-2.383-7.609-4.511-11.31 12.771 3.066 12.898 19.808 20.062 29.625 5.64 7.736 14.519 8.959 23.144 6.782-1.986 1.287-4.019 2.494-6.1 3.733-.047.032-.08.08-.127.112-8.578 1.922-16.25.206-22.54-6.259l.016-.016Zm14.407-18.156c3.892 7.053 7.53 13.486 14.01 17.108-8.323 1.016-15.98 1.413-21.126-7.069-2.812-4.638-4.098-9.96-6.29-14.868-2.113-4.733-4.956-8.625-8.69-11.119 9.119 2.367 17.553 7.736 22.096 15.964v-.016Zm17.727-17.902c-14.963-5.289-29.132-12.247-43.54-6.449 16.632-9.721 37.663-2.859 55.771 1.207 13.629 3.066 31.849 5.226 43.89-3.733-9.166 17.362-41.237 14.233-56.105 8.975h-.016Zm17.537-17.06c12.263 2.78 24.78 3.939 37.313 4.448-9.07 4.94-17.886 7.068-28.608 6.163-11.834-1.001-23.16-5.035-34.82-7.1-11.293-2.018-23.89-2.081-34.12 3.002 2.876-2.272 6.418-4.003 9.293-5.576.159-.079.254-.206.365-.317 16.838-6.735 33.2-4.559 50.577-.62Zm35.121-72.481c3.335-1.875 19.744-9.626 21.889-2.955-.652 5.226-11.93 9.642-16.091 11.215-2.145.81-1.319 4.225.969 3.51 6.719-2.081 16.758-3.383 22.127 2.621 9.006 10.071-13.518 8.753-16.838 8.228-10.722-1.715-20.856-5.162-31.674-4.813 5.782-6.719 11.85-13.454 19.634-17.806h-.016Zm-9.849-137.1c1.287-3.447 2.542-7.085 4.67-10.118 4.194-5.941 11.008-4.543 10.865 3.272-.127 7.291-3.558 15.249-7.068 21.507-1.065 1.891 1.779 3.543 2.907 1.7 3.32-5.512 23.985-30.737 29.354-13.819-.111 15.868-22.778 25.621-34.104 33.754-5.083 3.654-9.689 7.736-13.343 12.533-.381-.032-.746.111-.985.556.509-6.29.477-12.596.62-19.061.222-10.437 3.431-20.634 7.068-30.324h.016ZM93.86 388.216c5.353 5.941 10.96 12.168 15.201 18.951 6.815 10.912 10.738 23.541 11.644 36.375-4.607-10.865-12.565-20.634-19.586-29.736-9.07-11.786-17.95-23.556-23.08-37.535 5.686 3.447 11.42 7.053 15.837 11.945h-.016Zm-2.462 31.992c-8.102-8.848-12.994-19.332-15.043-31.118-.556-3.161-.223-7.085-.254-10.817 4.162 12.739 12.072 23.747 20.157 34.421 7.45 9.833 14.122 19.443 19.808 29.991-7.291-8.594-18.585-15.806-24.684-22.461l.016-.016Zm85.014 18.807c-11.469 8.101-24.049 5.576-37.122 7.117-.143-.032-.286-.064-.461-.064a22.612 22.612 0 0 0-10.198 3.288c9.022-13.391 29.625-14.423 43.841-19.061 9.531-3.114 16.743-10.309 21.651-18.855-2.811 10.849-8.228 20.904-17.695 27.575h-.016Zm-19.363-17.743c7.497-2.112 14.915-2.796 21.936-6.433 5.274-2.732 10.007-6.322 14.566-10.119-3.478 6.529-7.116 12.867-13.184 17.521-8.546 6.56-19.268 6.306-29.164 9.356-8.101 2.51-16.488 6.576-22.238 12.851 1.032-2.319 2.192-4.559 3.526-6.608 5.417-8.292 15.217-13.931 24.558-16.568Zm41.76-40.712c-3.669 3.002-8.101 4.638-12.485 6.306-8.292 3.161-16.822 5.242-25.257 7.879-1.35.413-2.891.778-4.416 1.239-.301-.445-.826-.715-1.382-.62 1.843-6.83 4.321-13.438 7.657-19.744 3.907-7.386 9.372-17.616 16.837-21.937 1.271-.73 7.069-3.224 7.959-1.954.524.731-.143 2.812-.286 3.559-.54 2.716-1.875 5.369-3.05 7.862-2.097 4.432-4.575 8.689-7.164 12.835-.048.08-.064.159-.095.238-.398.509-.779 1.017-1.176 1.525-1.016 1.319 1.064 2.653 2.176 1.684 4.496-3.907 12.406-6.544 18.442-7.481 1.112-.175 3.638-.779 4.686-.175 5.083 2.907-.54 7.259-2.462 8.816l.016-.032Zm60.536-66.843c-7.148-1.398-16.361-.031-24.129 2.748.445-.635.826-1.239 1.128-1.779.159-.286.27-.54.382-.794 11.341-4.686 23.239-10.388 33.484-17.06 1.271-.826.493-2.986-1.064-2.51-9.96 2.987-19.014 9.134-28.449 13.868 5.861-7.959 11.881-16.203 15.694-25.146.619-1.461-1.224-2.621-2.161-1.255-6.608 9.579-12.866 19.3-19.649 28.767-1.509.048-3.415.54-4.972 1.065 8.451-13.185 20.73-40.903-1.541-40.141-14.836.509-16.774 22.874-12.31 36.837-8.244-5.957-19.999-8.943-28.815-5.862-.429.143-.699.413-.905.699-7.498 3.654-6.465 12.882-.715 18.331 3.479 3.288 7.498 3.812 12.12 3.177 5.671-.763 11.357-1.795 16.822-3.479l-.842.699c-2.907 2.462-8.626 5.988-8.498 10.389.206 7.227 6.893 4.177 12.739.079-8.816 12.231-16.599 30.308-.477 34.74 20.476 5.623 17.934-25.32 13.471-39.521 7.036 5.512 14.852 11.151 23.842 11.516 6.862.286 16.06-3.336 17.203-11.04 1.128-7.545-5.67-13.009-12.342-14.328h-.016Zm-40.744-27.686c1.223-5.512 2.669-8.197 8.212-9.595 15.027-3.764 8.816 15.488 5.989 22.286-2.208 5.274-5.067 10.071-7.879 14.995a43.46 43.46 0 0 0-2.049 1.176 44.652 44.652 0 0 1-4.972-18.887c-.127-3.272 0-6.767.699-9.975Zm-25.463 35.2c-6.91-.842-13.343-11.199-5.814-15.424.175 0 .334.032.525 0 10.261-2.113 23.779 1.429 30.625 9.928-3.447 1.493-6.973 2.573-10.69 3.351-4.432.938-10.198 2.685-14.646 2.145Zm17.473 11.421c-3.526-1.239.779-4.241 1.446-4.829 5.226-4.718 10.69-9.309 17.139-12.263.683-.302 1.573-.54 2.478-.81-.937 1.032-1.842 2.43-2.637 3.256-1.429 1.477-3.526 2.986-4.781 4.781-.143.048-.27.096-.413.191-2.891 2.224-5.591 4.702-8.593 6.783-.445.302-4.099 3.081-4.639 2.891Zm18.506 24.113c-2.081 7.592-10.865 9.371-15.202 3.272-7.656-10.786 6.291-24.399 13.216-33.564 1.827 6.592 3.368 13.025 3.193 19.998-.079 3.368-.302 7.021-1.191 10.294h-.016Zm36.328-24.955c-5.465 5.957-15.376 3.606-21.524.445-5.131-2.637-9.546-6.386-14.423-9.42 5.178-1.795 10.15-3.637 15.615-4.638 3.637-.667 7.481-1.335 11.214-1.049 6.433.477 16.774 6.322 9.134 14.662h-.016Z"/>
</svg>
