<svg xmlns="http://www.w3.org/2000/svg" width="78" height="84" fill="none" viewBox="0 0 78 84">
  <path fill="#fff" d="M78 0H0v84h78V0Z"/>
  <path fill="#262A40" d="M11.149 59.88c0 .375.48.522 2.243.522 1.94 0 2.184-.125 2.184-.359 0-.249-.132-.374-2.465-.447-3.145-.102-3.98-.617-3.98-1.755 0-1.211 1.11-1.843 4.114-1.843 3.199 0 4.205.397 4.205 1.675 0 .11 0 .22-.008.345a18.723 18.723 0 0 0-.992-.022c-.392 0-.785.008-1.006.022v-.14c0-.374-.267-.5-2.228-.5-1.807 0-2.072.11-2.072.332 0 .22.14.316 2.621.44 2.94.148 3.84.573 3.84 1.807 0 1.284-1.027 1.901-4.188 1.901-3.227 0-4.329-.535-4.329-1.652 0-.132.008-.273.03-.418.259.03.65.051 1.022.051.377 0 .733-.008 1.014-.022v.064h-.005Zm16.163 1.8c.03-.786.051-1.549.059-2.459 0-.374.03-.778.052-1.166l-.052-.014c-.186.367-.391.749-.644 1.072l-1.955 2.57h-1.014l-2.19-2.892a7.757 7.757 0 0 1-.644-1.057l-.052.014c.022.383.052.763.06 1.183a62.81 62.81 0 0 0 .073 2.752H19.02c.044-.792.06-1.593.06-2.76 0-1.204-.014-2.027-.038-2.747h2.975c.407.594 1.014 1.49 1.777 2.584.2.279.415.595.622.918h.044c.2-.331.392-.647.577-.918.71-1.049 1.376-2.003 1.777-2.584h2.627c-.022.72-.044 1.541-.044 2.747 0 1.166.008 1.968.06 2.76h-2.145v-.003Zm10.693 0a12.747 12.747 0 0 0-.489-.969c-.769-.008-1.547-.008-2.138-.008-.54 0-1.333 0-2.08.008-.251.418-.45.77-.547.969h-2.436c1.058-1.453 3.11-4.537 3.59-5.506h3.08c.503.969 2.553 4.016 3.656 5.506h-2.636Zm-3.086-3.605a93.9 93.9 0 0 0-.822 1.32c.466.009.933.009 1.288.009.386 0 .888 0 1.392-.008a33.34 33.34 0 0 0-.822-1.337 11.56 11.56 0 0 1-.518-.859l-.518.874ZM47.8 59.426c1.296.125 1.889.331 2.126 1.167.132.476.25.874.347 1.086h-1.842c-.332 0-.392-.073-.577-.792-.162-.647-.407-.765-1.754-.765h-2.648c.014.624.043 1.16.089 1.557h-2.117c.014-.8.03-1.57.03-2.753 0-1.167-.009-1.96-.03-2.753h5.506c2.007 0 2.946.522 2.946 1.637 0 .947-.623 1.432-2.072 1.587v.029h-.003Zm-1.517-.675c1.192 0 1.62-.198 1.62-.602 0-.418-.42-.558-1.598-.558-.563 0-2.139.008-2.886.03 0 .374 0 .748.008 1.107.533.023 1.664.023 2.856.023Zm12.3-2.578c-.014.214-.014.536-.014.822 0 .279 0 .624.014.859-1.028-.03-2.05-.03-2.94-.03 0 1.843.009 3.436.03 3.863-.273-.022-.733-.022-1.043-.022-.31 0-.747 0-1.044.022.022-.426.038-2.012.038-3.863-.888 0-1.91 0-2.94.03.008-.235.008-.573.008-.859 0-.286 0-.602-.007-.822h7.898ZM13.775 70.737c-3.449 0-4.862-1.22-4.862-3.017 0-1.872 1.561-2.988 4.862-2.988s4.863 1.116 4.863 2.988c0 1.8-1.414 3.017-4.863 3.017Zm2.783-3.01c0-.903-.717-1.401-2.783-1.401-2.065 0-2.783.5-2.783 1.402 0 .888.71 1.417 2.783 1.417 2.081 0 2.783-.53 2.783-1.417Zm9.793.507c1.295.126 1.888.332 2.125 1.167.133.477.251.874.348 1.086h-1.842c-.333 0-.392-.072-.578-.792-.162-.647-.407-.764-1.753-.764h-2.649a18.2 18.2 0 0 0 .089 1.556h-2.117c.014-.8.03-1.57.03-2.752 0-1.167-.008-1.96-.03-2.753h5.507c2.006 0 2.945.521 2.945 1.637 0 .947-.622 1.431-2.071 1.586v.03h-.004Zm-1.517-.674c1.191 0 1.62-.198 1.62-.602 0-.418-.42-.559-1.599-.559-.563 0-2.138.008-2.886.03 0 .374 0 .749.008 1.108.534.023 1.666.023 2.857.023Zm11.875 2.928a13.26 13.26 0 0 0-.488-.968c-.77-.008-1.548-.008-2.139-.008-.54 0-1.332 0-2.08.008-.25.418-.45.77-.547.968H29.02c1.058-1.453 3.109-4.536 3.59-5.505h3.079c.504.969 2.553 4.015 3.656 5.505H36.71Zm-3.086-3.605c-.25.396-.54.859-.822 1.322.467.007.933.007 1.289.007.385 0 .887 0 1.391-.008a32.16 32.16 0 0 0-.822-1.336c-.23-.346-.391-.632-.518-.86l-.518.875Zm15.413-1.9c-.022.676-.03 1.578-.03 2.746 0 1.212 0 2.026.015 2.761h-2.11c-.436-.492-2.737-2.049-4.01-2.93-.31-.219-.629-.44-.888-.674.03.441.038.88.052 1.33.008 1.137.014 1.937.037 2.276H40.2c0-.742.022-1.579.022-2.753 0-1.167 0-2.004-.022-2.753h2.413c.273.353 2.813 2.143 3.945 2.915.267.177.534.316.734.506a15.37 15.37 0 0 1-.044-1.094c0-1.02-.022-1.937-.051-2.327h1.84v-.003Zm6.262 5.682c-3.116 0-4.93-.888-4.93-2.966 0-2.188 1.888-2.892 4.819-2.892 2.797 0 4.529.455 4.529 2.1 0 .051 0 .11-.008.16a17.14 17.14 0 0 0-.992-.02c-.407 0-.793.007-1.022.02 0-.029.008-.058.008-.087 0-.514-.704-.677-2.524-.677-1.925 0-2.724.39-2.724 1.432 0 .947.747 1.453 2.842 1.453 1.562 0 2.25-.236 2.45-.734-1.029 0-2.414.008-3.331.03.008-.11.008-.345.008-.455 0-.198 0-.375-.008-.514 1.2.022 2.427.016 3.323.016.547 0 1.25.007 1.984-.016.136 1.982-.368 3.15-4.424 3.15Zm13.787-5.682c-.008.16-.014.418-.014.647 0 .235 0 .5.014.653-1.54-.008-4.323-.014-5.707-.014v.845c1.599 0 4.388 0 5.625-.022-.007.286-.014.874-.007 1.182a657.19 657.19 0 0 0-5.618-.03v.86c1.384 0 4.263-.008 5.707-.014-.014.176-.014.454-.014.711 0 .236 0 .506.014.69H61.26c.03-.748.03-1.578.03-2.752 0-1.167 0-2.012-.03-2.753h7.824v-.003ZM18.407 41.422c-.43 0-.833-.048-1.21-.147-1.292-.34-2.191-1.27-2.604-2.692-3.278-2.5-5.225-6.032-5.485-9.951-.286-4.28 1.424-8.481 4.814-11.83l.224-.22.085.3c1.302 4.692 8.057 12.818 15.055 18.114l.169.127-.15.149c-3.948 3.902-7.981 6.15-10.898 6.15Zm-4.443-24.141c-3.167 3.236-4.76 7.247-4.488 11.326.254 3.833 2.168 7.285 5.39 9.722l.05.037.015.06c.373 1.34 1.167 2.18 2.359 2.493.352.093.733.138 1.135.138 2.771 0 6.637-2.155 10.468-5.9-6.847-5.225-13.427-13.12-14.93-17.876Z"/>
  <path fill="#262A40" d="M17.488 41.32c-3.574-2.704-7.028-6.87-7.699-9.287l.356-.097c.654 2.352 4.048 6.43 7.566 9.094l-.223.29Zm5.174-1.196c-6.095-4.612-11.983-11.709-13.123-15.821l.356-.098c1.123 4.046 6.95 11.058 12.991 15.628l-.224.291Z"/>
  <path fill="#262A40" d="M14.683 38.645c-1.897-.775-3.098-2.172-3.474-4.045-.69-3.433 1.424-7.978 5.653-12.157l.26.258c-4.14 4.093-6.216 8.514-5.551 11.827.35 1.745 1.476 3.051 3.252 3.777l-.14.34Z"/>
  <path fill="#262A40" d="M14.097 38.927a.29.29 0 0 1-.244-.11c-.126-.164-.338-.436 2.048-3.167 1.528-1.749 3.737-4.056 6.386-6.672l.26.258c-5.898 5.829-8.185 8.687-8.373 9.314.079-.022.225-.081.486-.231l.185.316c-.273.156-.544.292-.748.292Z"/>
  <path fill="#262A40" d="M25.447 42.067c-1.903 0-3.789-.267-5.577-.81-.987.212-1.889.224-2.672.018-1.31-.345-2.215-1.297-2.62-2.751L14.435 38l.435.33a16.263 16.263 0 0 0 5.03 2.553c2.628-.595 5.906-2.666 9.149-5.871l.114-.113.128.097c2.94 2.225 5.05 3.338 6.538 3.861a18.797 18.797 0 0 0 3.583-2.768l.224-.221.085.301c.541 1.952.012 2.793-.527 3.154-.71.475-1.855.44-3.326-.065a20.785 20.785 0 0 1-10.42 2.808Zm-4.878-.988c4.832 1.287 10.312.578 14.847-1.983-1.727-.671-3.853-1.928-6.225-3.71-3.009 2.947-6.06 4.933-8.622 5.693Zm-5.454-2.114c.422 1.03 1.152 1.688 2.177 1.957.553.146 1.171.175 1.844.095a16.54 16.54 0 0 1-4.02-2.052Zm21.17.042c1.736.513 2.49.154 2.698.015.715-.478.667-1.541.456-2.45-.97.927-2.03 1.74-3.154 2.435Z"/>
  <path fill="#262A40" d="M22.01 43.541c-1.011 0-2.621-.78-4.524-2.22l.223-.291c2.708 2.05 4.271 2.373 4.787 2.028.358-.24.281-.834.155-1.29l.355-.098c.289 1.037-.006 1.492-.302 1.692-.181.12-.415.18-.694.18Zm8.295.363c-1.686 0-4.408-1.33-7.647-3.78l.223-.29c3.86 2.92 7.136 4.285 8.343 3.474.676-.452.545-1.527.317-2.35l.355-.098c.472 1.699.008 2.434-.464 2.751-.294.197-.673.293-1.127.293Z"/>
  <path fill="#262A40" d="M24.5 43.848c-.381 0-.762-.017-1.14-.053-3.546-.328-6.655-2.18-8.754-5.216l.304-.207c2.037 2.944 5.051 4.74 8.486 5.058 4.06.376 8.345-1.345 11.76-4.72l.26.259c-3.178 3.14-7.1 4.879-10.917 4.879Z"/>
  <path fill="#262A40" d="M27.44 44.127c-.069 0-.138 0-.206-.002-4.752-.056-9.232-2.018-12.613-5.524l.267-.252c3.312 3.433 7.699 5.355 12.352 5.41l.203.002c4.329 0 8.38-1.65 11.428-4.663l.26.258c-3.12 3.082-7.264 4.77-11.691 4.77Z"/>
  <path fill="#262A40" d="M25.447 42.067c-3.906 0-7.74-1.128-10.804-3.446l-.05-.037-.016-.06c-1.328-4.78 3.028-14.041 9.711-20.644l.114-.113.128.098c7.054 5.338 13.867 13.55 15.188 18.306l.028.102-.076.076c-3.81 3.764-9.08 5.718-14.223 5.718Zm-10.531-3.698c6.93 5.202 17.846 4.213 24.417-2.202-1.364-4.678-7.997-12.655-14.898-17.914-6.507 6.483-10.755 15.458-9.52 20.116Z"/>
  <path fill="#262A40" d="M22.653 41.767c-.654-2.352-4.047-6.43-7.566-9.094l.223-.29c3.574 2.704 7.026 6.87 7.698 9.287l-.355.097Zm8.891-.81c-1.123-4.047-6.95-11.058-12.991-15.629l.223-.29c6.095 4.612 11.98 11.708 13.122 15.821l-.354.098Z"/>
  <path fill="#262A40" d="M18.483 39.311c-1.406 0-2.694-.215-3.8-.666l.14-.338c5.345 2.182 15.052-1.343 21.645-7.857l.26.258c-5.335 5.272-12.706 8.603-18.245 8.603Z"/>
  <path fill="#262A40" d="m14.849 38.634-.186-.316c2.402-1.388 9.752-7.85 16.383-14.401l.26.258c-6.65 6.572-14.032 13.059-16.457 14.459Z"/>
  <path fill="#262A40" d="m15.076 38.95-.435-.329c-3.306-2.502-5.272-6.05-5.534-9.988-.282-4.247 1.4-8.418 4.738-11.755-.495-1.879.025-2.696.555-3.052 1.592-1.066 5.378.443 10.126 4.037l.169.127-.15.149c-6.597 6.52-10.91 15.622-9.616 20.289l.147.523Zm.625-25.073c-.635 0-.965.167-1.093.253-.797.533-.646 1.791-.38 2.754l.029.102-.076.076c-3.312 3.274-4.985 7.374-4.707 11.546.243 3.668 2.008 6.988 4.983 9.403-.897-4.867 3.311-13.62 9.678-19.984-4.61-3.461-7.147-4.15-8.434-4.15Z"/>
  <path fill="#262A40" d="M15.084 32.673c-2.708-2.049-4.271-2.374-4.788-2.029-.357.24-.28.835-.154 1.291l-.356.098c-.289-1.037.006-1.492.303-1.692.839-.562 2.789.201 5.218 2.041l-.223.291Zm3.466-7.343c-3.859-2.92-7.131-4.284-8.342-3.474-.675.452-.544 1.528-.317 2.35l-.355.098c-.471-1.699-.008-2.434.466-2.75 1.384-.928 4.664.375 8.774 3.485l-.225.291Z"/>
  <path fill="#262A40" d="M14.601 38.58c-4.727-6.832-3.122-17.777 3.577-24.398l.26.258c-6.58 6.502-8.164 17.238-3.533 23.932l-.304.207Z"/>
  <path fill="#262A40" d="M14.622 38.603c-6.798-7.047-6.869-18.176-.159-24.808l.26.259c-6.569 6.491-6.495 17.39.166 24.295l-.267.254Z"/>
  <path fill="#262A40" d="m29.191 35.385-.128-.097c-7.054-5.339-13.867-13.55-15.188-18.307l-.028-.102.076-.076c6.702-6.623 17.93-7.643 25.026-2.272l.05.037.015.06c1.328 4.78-3.028 14.041-9.71 20.642l-.113.115ZM14.259 16.987c1.363 4.678 7.996 12.654 14.9 17.914 6.504-6.484 10.752-15.459 9.515-20.116-6.93-5.202-17.845-4.213-24.415 2.202Z"/>
  <path fill="#262A40" d="M34.815 28.113C28.72 23.5 22.834 16.404 21.692 12.291l.355-.097C23.171 16.24 29 23.25 35.04 27.82l-.224.292Zm3.466-7.343c-3.574-2.704-7.028-6.871-7.699-9.287l.356-.097c.654 2.352 4.047 6.43 7.566 9.094l-.223.29Z"/>
  <path fill="#262A40" d="m17.124 22.703-.26-.259c6.687-6.608 16.576-10.167 22.044-7.934l-.14.338c-5.343-2.183-15.053 1.34-21.644 7.855Z"/>
  <path fill="#262A40" d="m22.547 29.237-.26-.258c6.648-6.57 14.03-13.057 16.456-14.457l.186.315c-2.404 1.388-9.752 7.847-16.382 14.4Z"/>
  <path fill="#262A40" d="M37.895 39.661c-1.943 0-5.09-1.538-8.835-4.371l-.169-.127.15-.148c6.597-6.52 10.91-15.621 9.614-20.288l-.145-.523.435.33c3.306 2.502 5.272 6.05 5.534 9.988.282 4.247-1.4 8.418-4.738 11.754.495 1.878-.025 2.695-.555 3.051-.336.224-.77.334-1.29.334Zm-8.442-4.537c6.887 5.169 9.143 4.155 9.528 3.898.797-.534.646-1.792.38-2.754l-.029-.102.077-.076c3.312-3.273 4.982-7.373 4.705-11.545-.244-3.667-2.008-6.988-4.983-9.403.897 4.87-3.312 13.621-9.678 19.982Z"/>
  <path fill="#262A40" d="M42.462 31.893c-1.686 0-4.408-1.33-7.647-3.779l.223-.29c3.86 2.92 7.134 4.284 8.343 3.473.675-.452.544-1.527.317-2.35l.355-.098c.472 1.7.008 2.434-.464 2.751-.294.195-.673.293-1.127.293Zm.34-8.9c-1.011 0-2.621-.78-4.524-2.22l.223-.291c2.708 2.049 4.271 2.374 4.788 2.029.357-.24.28-.834.154-1.291l.356-.098c.288 1.037-.007 1.492-.303 1.692-.183.119-.415.18-.694.18Z"/>
  <path fill="#262A40" d="m35.408 38.97-.26-.258c6.58-6.502 8.165-17.238 3.533-23.93l.304-.207c4.727 6.831 3.123 17.774-3.577 24.395Z"/>
  <path fill="#262A40" d="m39.128 39.355-.26-.258c6.567-6.491 6.493-17.39-.168-24.294l.267-.252c6.799 7.047 6.87 18.174.16 24.805Z"/>
  <path fill="#262A40" d="m39.446 36.57-.085-.302c-1.302-4.691-8.057-12.816-15.055-18.113l-.169-.127.15-.148c4.529-4.475 9.168-6.776 12.107-6.003 1.292.34 2.192 1.27 2.604 2.693 3.277 2.5 5.224 6.031 5.485 9.95.284 4.28-1.424 8.48-4.813 11.829l-.224.221ZM24.697 17.991c6.847 5.229 13.429 13.122 14.931 17.88 3.167-3.236 4.758-7.247 4.487-11.325-.256-3.833-2.169-7.285-5.39-9.723l-.05-.037-.016-.058c-.373-1.342-1.167-2.182-2.358-2.495-2.784-.735-7.216 1.47-11.604 5.758Z"/>
  <path fill="#262A40" d="M43.7 28.945c-1.124-4.047-6.952-11.058-12.993-15.629l.224-.29c6.095 4.612 11.98 11.708 13.122 15.821l-.354.098Zm-.255-7.727c-.654-2.352-4.048-6.431-7.566-9.094l.223-.291c3.574 2.705 7.028 6.87 7.699 9.287l-.356.098Z"/>
  <path fill="#262A40" d="m36.73 30.708-.261-.258c4.14-4.091 6.215-8.512 5.55-11.825-.349-1.746-1.474-3.052-3.252-3.777l.14-.34c1.897.776 3.098 2.173 3.474 4.046.69 3.432-1.424 7.976-5.651 12.154Z"/>
  <path fill="#262A40" d="m31.304 24.174-.26-.258c5.896-5.827 8.183-8.685 8.37-9.312-.078.022-.225.08-.485.23l-.186-.315c.407-.235.808-.42.992-.183.127.164.339.437-2.048 3.168-1.527 1.747-3.734 4.054-6.383 6.67Z"/>
  <path fill="#262A40" d="m24.434 18.25-.128-.097c-2.94-2.225-5.05-3.338-6.538-3.86a18.853 18.853 0 0 0-3.585 2.767l-.225.222-.084-.302c-.541-1.951-.012-2.793.527-3.154.71-.475 1.855-.44 3.326.065 4.857-2.838 10.833-3.562 15.993-1.996.99-.212 1.891-.224 2.673-.018 1.31.345 2.216 1.296 2.62 2.75l.146.524-.436-.33a16.26 16.26 0 0 0-5.03-2.553c-2.628.594-5.905 2.666-9.147 5.87l-.112.112Zm-6.257-4.195c1.727.672 3.853 1.928 6.224 3.71 3.008-2.947 6.059-4.932 8.62-5.69-4.83-1.288-10.31-.579-14.844 1.98Zm-2.475-.18c-.634 0-.965.168-1.093.253-.715.478-.666 1.541-.456 2.45a19.179 19.179 0 0 1 3.156-2.434c-.675-.2-1.203-.268-1.607-.268Zm18.755-1.74a16.594 16.594 0 0 1 4.02 2.052c-.421-1.03-1.151-1.688-2.176-1.957-.554-.146-1.174-.175-1.844-.095Z"/>
  <path fill="#262A40" d="M30.708 13.319c-3.86-2.92-7.135-4.285-8.343-3.474-.675.451-.544 1.527-.316 2.35l-.356.098c-.471-1.7-.008-2.434.465-2.752 1.383-.926 4.664.376 8.773 3.487l-.223.29Zm5.173-1.197c-2.708-2.049-4.273-2.374-4.788-2.027-.357.24-.28.834-.154 1.29l-.356.098c-.288-1.037.007-1.492.303-1.691.838-.56 2.788.201 5.218 2.04l-.223.29Z"/>
  <path fill="#262A40" d="M38.686 14.781c-2.037-2.945-5.051-4.741-8.486-5.058-4.06-.375-8.345 1.344-11.758 4.72l-.26-.26c3.492-3.45 7.885-5.208 12.052-4.824 3.546.328 6.655 2.18 8.756 5.216l-.304.206Z"/>
  <path fill="#262A40" d="M38.708 14.804c-3.314-3.433-7.7-5.355-12.353-5.41-4.413-.05-8.534 1.602-11.63 4.661l-.26-.258c3.117-3.08 7.26-4.77 11.688-4.77h.206c4.751.057 9.232 2.019 12.614 5.525l-.265.252Z"/>
  <path fill="#262A40" d="M26.742 44.315c-.32 0-.657-.014-.911-.032a35.855 35.855 0 0 1-1.826-.19 12.942 12.942 0 0 1-1.416-.279 28.138 28.138 0 0 1-1.966-.591 18.124 18.124 0 0 1-5.395-3.12 17.81 17.81 0 0 1-3.091-3.368c-.253-.364-.253-.364-.638-.972-.298-.47-.612-1.088-.746-1.35-.2-.395-.41-.863-.538-1.197a25.752 25.752 0 0 1-.289-.8 13.124 13.124 0 0 1-.363-1.115c-.142-.548-.328-1.27-.404-1.823-.072-.514-.151-1.1-.189-1.552a13.49 13.49 0 0 1-.051-1.294l.001-.077c.011-.45.025-1.01.058-1.442.03-.378.092-.898.16-1.323.253-1.591.664-2.74.68-2.789.122-.335.347-.962.536-1.405.137-.322.36-.789.597-1.248a16.93 16.93 0 0 1 1.342-2.148c.577-.77 1.315-1.63 1.881-2.185.858-.842 1.194-1.094 2.31-1.93.39-.29.938-.619 1.316-.838.345-.201.831-.458 1.238-.653a20.19 20.19 0 0 1 1.426-.607c.269-.102.593-.206.908-.305.137-.043.27-.085.389-.125.441-.145 1.024-.27 1.536-.373.278-.056.612-.105.935-.152.137-.02.268-.038.388-.057.491-.077 1.14-.107 1.652-.122.438-.016.952-.01 1.306.01a28.67 28.67 0 0 1 1.813.17c.834.105 1.58.3 2.368.507a14.95 14.95 0 0 1 1.94.676c.53.232.927.413 1.21.557.356.181.834.446 1.186.66.367.22.787.493 1.069.694.421.302.563.402 1.195.92.069.058.429.36.902.813.36.347.661.673.806.83.175.19.565.639.81.954.396.508.466.613.86 1.189a17.461 17.461 0 0 1 1.986 4.04c.325.98.548 1.844.665 2.565.119.73.253 1.556.278 2.74a17.49 17.49 0 0 1-.16 2.817c-.074.506-.21 1.45-.614 2.776-.243.8-.683 1.827-1.01 2.548-.149.332-.39.773-.734 1.348-.15.252-.348.543-.538.823-.083.124-.164.242-.236.352a12.18 12.18 0 0 1-.97 1.233l-.053.06c-.352.396-.79.888-1.172 1.229-.085.077-.179.16-.276.249-.262.237-.558.504-.808.706-.344.278-.853.677-1.268.939l-.285.18a21.12 21.12 0 0 1-.912.56 17.832 17.832 0 0 1-4.203 1.708c-.843.209-1.948.396-2.639.492-.376.052-.847.071-1.263.088-.137.006-.269.01-.39.017-.12.01-.256.012-.393.012Zm-14.106-7.518a17.568 17.568 0 0 0 2.833 3.028c1.18 1.003 2.334 1.657 2.767 1.903a17.07 17.07 0 0 0 2.509 1.148c.577.198 1.356.432 1.938.582.458.118.995.224 1.37.27.792.1 1.383.162 1.804.19.353.025.869.043 1.262.023.123-.006.256-.013.393-.017.407-.017.87-.036 1.228-.085a28.29 28.29 0 0 0 2.602-.484 17.223 17.223 0 0 0 4.112-1.673c.27-.15.6-.362.894-.548l.287-.183c.4-.25.896-.642 1.234-.913.242-.193.534-.457.792-.691.099-.088.192-.174.28-.25.366-.327.797-.81 1.142-1.2l.053-.06c.284-.32.68-.802.937-1.193.072-.11.155-.231.239-.355.187-.277.38-.563.526-.806.337-.563.57-.992.714-1.31.322-.712.754-1.724.992-2.506a17.146 17.146 0 0 0 .759-5.48c-.025-1.158-.156-1.97-.273-2.687-.114-.704-.334-1.547-.653-2.511a17.4 17.4 0 0 0-.864-2.078 17.705 17.705 0 0 0-1.073-1.865c-.393-.574-.462-.676-.852-1.176-.24-.308-.62-.746-.79-.931a19.056 19.056 0 0 0-.79-.816 16.577 16.577 0 0 0-.88-.792 16.816 16.816 0 0 0-2.22-1.586 19.661 19.661 0 0 0-1.164-.645 23.27 23.27 0 0 0-1.188-.548 14.355 14.355 0 0 0-1.888-.658c-.775-.204-1.508-.396-2.32-.498a29.878 29.878 0 0 0-1.787-.169c-.345-.02-.844-.023-1.272-.009-.5.017-1.136.045-1.607.12l-.391.058c-.318.047-.648.094-.914.149-.362.074-1.036.21-1.495.362l-.393.127c-.31.099-.632.2-.89.298a20.43 20.43 0 0 0-1.397.594c-.393.19-.881.444-1.212.638-.371.217-.906.537-1.28.815-1.1.825-1.433 1.074-2.272 1.898a20.495 20.495 0 0 0-1.846 2.143c-.44.588-.965 1.43-1.308 2.096-.234.454-.453.912-.587 1.226-.184.433-.407 1.052-.527 1.385a16.513 16.513 0 0 0-.665 2.721c-.065.41-.128.93-.156 1.294-.033.422-.045.978-.056 1.424l-.002.077c-.007.317.011.786.05 1.253.041.479.133 1.14.188 1.532.073.532.255 1.243.39 1.763a43.207 43.207 0 0 0 .35 1.075c.874 2.338 2.42 4.393 4.518 6.004l.083.063-.223.291a15.096 15.096 0 0 1-2.01-1.827Z"/>
</svg>
