<svg xmlns="http://www.w3.org/2000/svg" width="600" height="123" fill="none" viewBox="0 0 600 123">
  <g clip-path="url(#a)">
    <path fill="#EEF3F8" d="M554.646 74.073c-.338.352-.789.619-1.325.52-.423-.07-.705-.365-.959-.632-7.133-7.66-11.391-18.99-13.337-28.253-.634-3.008-2.777-16.108 5.766-11.062 5.09 3.008 6.035 11.976 7.656 16.347-1.41-3.795 6.866-19.327 12.985-19.566 11.646-.45-8.008 38.233-10.363 42.07a3.113 3.113 0 0 1-.437.563l.014.013Z"/>
    <path fill="#262A40" d="M570.691 35.362c-.536-5.13-4.695-6.83-9.08-4.174-3.567 2.164-7.585 7.28-9.587 12.411-1.353-4.638-3.257-9.178-7.839-11.006-4.624-1.841-7.035 1.308-7.359 5.679-.564 7.253 2.34 15.265 5.118 21.759 1.72 4.006 6.668 16.656 12.547 15.434.395.07.818 0 1.171-.38 4.243-4.498 6.598-12.032 8.952-17.598 2.75-6.48 6.838-14.858 6.077-22.125Zm-5.626 11.878c-2.876 8.658-6.626 17.739-11.349 25.624-3.793-.45-9.827-15.968-10.475-17.809-1.283-3.612-2.397-7.38-2.989-11.175-.212-1.391-.733-3.626-.367-5.032 1.015-3.865 4.328-3.556 6.683-.197 2.538 3.627 2.989 8.645 4.356 12.778.649 1.94 3.483 1.152 3.074-.844-.804-3.88 7.388-19.974 12.336-17.43 3.469 1.772-.437 11.569-1.269 14.099v-.014Z"/>
    <path fill="#EEF3F8" d="M529.776 67.58c-.493.477-1.142.829-1.917.702-.606-.098-1.029-.478-1.382-.843-10.306-10.247-16.453-25.4-19.273-37.783-.916-4.02-4.018-21.548 8.333-14.801 7.359 4.02 8.713 16.01 11.067 21.857-2.044-5.088 9.926-25.849 18.766-26.172 16.834-.59-11.575 51.136-14.973 56.266-.169.253-.381.52-.621.76v.013Z"/>
    <path fill="#262A40" d="M540.308 10.624c-5.005 2.924-11.857 10.838-14.479 18.301-1.96-6.62-4.357-13.325-11.039-16.15-6.415-2.713-9.898 1.434-10.151 7.66-.367 9.039 3.158 18.597 6.711 26.693 1.818 4.16 11.546 25.807 18.666 21.83a1.34 1.34 0 0 0 .762-.366c5.696-5.918 9.136-15.574 12.491-22.883 3.976-8.66 9.291-19.103 9.009-28.872-.211-7.056-5.907-9.74-11.984-6.199l.014-.014Zm6.345 17.936c-4.131 12.791-10.179 26.932-17.948 38.064-4.554 1.195-14.648-20.719-15.819-23.685-2.213-5.636-4.145-11.638-4.892-17.668-.282-2.263-.592-4.92-.014-7.155 1.452-5.608 7.331-2.122 9.827.76 4.342 5.031 5.033 12.214 7.261 18.272.691 1.884 3.609 1.167 3.073-.843-1.889-7.127 9.404-22.813 16.411-23.952 7.98-1.293 3.299 12.51 2.101 16.207Zm26.012-3.781c2.171-1.827 4.469-3.514 6.936-4.92 2.298-1.307 5.019-1.841 7.191-3.247.973-.632.535-1.981-.564-2.094-2.707-.253-5.767 1.602-8.037 2.938-2.65 1.56-5.061 3.472-7.345 5.524-1.241 1.11.564 2.867 1.819 1.813v-.014Zm17.468 7.055c-5.273-.8-12.153.029-17.06 2.137-.944.408-.465 2.01.522 1.926 2.693-.225 5.329-.928 8.022-1.223 2.721-.295 5.456-.155 8.163-.366 1.311-.098 1.847-2.235.339-2.474h.014Zm-6.274 15.828c-2.876-1.04-5.851-2.024-8.911-2.291-1.508-.14-1.691 2.122-.352 2.544 2.947.928 5.921 1.603 8.812 2.699 1.706.647 4.018 2.122 5.865 1.504.86-.281 1.071-1.251.507-1.912-1.212-1.448-4.173-1.911-5.921-2.544Zm-4.92 15.856c-2.284-1.715-4.653-3.388-7.289-4.484-1.058-.45-2.002 1.237-1.128 1.94 2.058 1.672 4.342 3.064 6.457 4.68 2.016 1.546 3.919 3.88 6.203 4.948 1.086.506 2.298-.548 1.678-1.673-1.226-2.235-3.919-3.893-5.921-5.397v-.014Zm-92.291-46.92c2.171 1.42 4.892 1.94 7.19 3.247 2.468 1.42 4.766 3.092 6.937 4.92 1.255 1.054 3.059-.689 1.819-1.814-2.284-2.052-4.695-3.963-7.346-5.524-2.256-1.335-5.329-3.19-8.036-2.937-1.1.098-1.551 1.447-.564 2.094v.014Zm5.161 18.077c2.692.295 5.329.998 8.022 1.223.987.084 1.466-1.533.521-1.926-4.906-2.095-11.772-2.924-17.059-2.137-1.495.225-.987 2.362.338 2.474 2.721.225 5.442.07 8.163.366h.015Zm7.02 13.24c1.326-.422 1.185-2.685-.352-2.544-3.059.267-6.034 1.265-8.91 2.29-1.735.633-4.709 1.097-5.922 2.545-.564.674-.352 1.63.508 1.911 1.832.605 4.159-.857 5.865-1.503 2.904-1.097 5.865-1.772 8.811-2.7Zm2.961 11.118c-2.636 1.096-5.005 2.783-7.289 4.484-2.016 1.518-4.695 3.163-5.921 5.398-.621 1.124.592 2.192 1.677 1.672 2.284-1.082 4.188-3.401 6.204-4.948 2.115-1.616 4.399-2.993 6.457-4.68.874-.717-.07-2.39-1.128-1.94v.014ZM42.388 74.871c.112.225.225.45.352.675 5.259 4.737 10.687 9.558 17.158 12.566 7.106 3.303 15.128 2.727 22.234 5.946 10.419 4.709 17.27 14.464 22.939 23.966 1.071 1.799-1.537 3.162-2.736 1.602-4.187-5.44-17.468-2.895-23.573-3.542-8.642-.914-17.736-2.038-24.672-7.647-.438-.351-.579-.759-.536-1.152-7.712-8.012-11.209-20.114-13.69-30.629a1.454 1.454 0 0 1 .085-.955c-.226-1.293 1.79-2.095 2.439-.83Zm28.958 19.44c-9.982-1.687-17.51-5.833-24.828-11.639 2.101 3.74 4.428 7.324 7.445 10.585 5.09 5.496 10.926 7.576 18.102 8.729 8.77 1.405 16.806 3.739 23.996 8.279-6.175-8.012-13.76-14.099-24.715-15.954Zm16.454 18.92c2.735.084 6.02.07 9.121.604-5.371-3.486-11.18-6.128-17.538-7.59-5.809-1.336-11.956-1.364-17.525-3.613-6.43-2.586-11.73-7.998-15.734-14.154 2.1 6.41 4.948 12.622 9.319 17.373.296.028.606.127.888.352 8.586 6.62 21.064 6.69 31.483 7.028H87.8Zm72.277-77.4c-1.818-1.265-4.37-.843-5.865.745-1.804 1.926-1.875 5.918 1.171 6.564 1.818.984 4.229.83 5.667-.787 1.664-1.883 1.029-5.144-.973-6.522Zm-1.452 4.723c-.437.506-1.41.646-2.072.45-.451-.76-.677-1.659.056-2.348.48-.435 1.255-.576 1.777-.168.549.45.705 1.518.239 2.052v.014Zm136.792 66.884c-2.495-1.827-6.034-1.153-7.994 1.139-2.312 2.712-2.227 7.351 1.354 8.771 2.467 1.405 5.794 1.237 7.782-.956 2.27-2.502 1.509-7.014-1.142-8.954Zm-1.297 7.183c-.973 1.026-2.777 1.194-4.046.66-1.213-1.391-1.438-3.458-.042-4.835.972-.956 2.636-1.265 3.722-.309 1.184 1.026 1.466 3.317.366 4.498v-.014ZM75.407 78.382c-1.918 0-1.918 2.966 0 2.966 1.917 0 1.917-2.966 0-2.966Zm18.305 9.954c1.819.984 4.23.829 5.668-.787 1.663-1.884 1.029-5.145-.973-6.523-1.819-1.265-4.37-.843-5.865.745-1.805 1.926-1.875 5.918 1.17 6.565Zm1.24-4.484c.48-.436 1.256-.577 1.777-.169.55.45.705 1.518.24 2.052-.437.506-1.41.647-2.073.45-.45-.759-.676-1.659.057-2.347v.014ZM298.55 39.725c5.766-9.024 17.581-11.147 26.844-6.129 7.712 4.175 10.743 14.24 8.276 22.406-3.892 12.82-27.69 16.178-28.395-.028-.226-5.327 4.455-9.024 9.516-9.109 8.897-.154 8.417 14.099.663 11.006-1.734-.688-2.763 2.038-1.241 2.938 10.152 6.002 15.157-10.837 6.683-15.968-8.826-5.341-20.654 2.966-18.92 12.876 2.453 14.14 21.317 16.403 30.383 7.126 7.979-8.166 6.936-23.46-1.241-31.148-9.912-9.32-28.353-7.562-34.528 4.905-.634 1.294 1.156 2.362 1.946 1.139l.014-.014Zm-1.551 56.562c4.371-5.327 11.011-4.357 17.158-4.034.184 0 .353-.028.508-.084 5.075 1.152 11.631 1.757 15.734-1.898 3.68-3.26 3.482-8.335.451-11.99-11.265-13.578-30.27 7.337-36.431 16.024-1.057 1.49 1.396 3.416 2.566 1.982h.014Zm21.712-18.427c4.357-.605 9.573.478 11.251 5.13 1.65 4.568-3.356 6.34-6.316 6.888-2.792.534-5.795.056-8.657-.029a1.052 1.052 0 0 0-.479-.196c-4.145-.69-8.375-1.21-12.182-.366 4.498-5.355 10.208-10.584 16.383-11.442v.015Zm13.591 24.008c-6.091-5.82-17.821-3.177-24.743-1.013-1.734.549-1.029 3.163.747 2.727 7.317-1.827 10.786 8.884 18.159 8.617.198 0 .367-.071.522-.155 5.216-.478 10.278-5.44 5.315-10.191v.015Zm-5.428 7.899s-.042-.028-.085-.028c-4.948-.914-8.135-5.496-12.195-7.815 2.256-.45 4.526-.703 6.838-.619 1.79.056 3.595.281 5.315.801 1.1.296 2.157.731 3.144 1.322.945 4.132-.07 6.241-3.017 6.353v-.014ZM226.223 69.538c3.666-17.036 17.13-30.404 35.05-31.387 20.245-1.125 40.576 16.333 29.015 37.15-4.399 7.927-13.422 14.815-22.897 14.112-8.149-.59-13.788-8.209-14.112-15.968-.325-7.646 4.61-14.224 12.618-14.266 4.244-.029 7.966 1.7 9.065 5.973.748 2.868-.07 6.297-2.34 8.364-3.976 3.626-12.266.154-8.022-5.13 1.128-1.406-.578-3.163-2.002-1.997-5.344 4.414-1.551 12.032 4.808 12.637 7.232.689 12.477-7.745 11.222-14.24-1.325-6.887-8.572-9.698-14.93-8.855-7.191.956-12.365 6.227-13.563 13.326-1.241 7.393 1.889 15.715 7.994 20.17 8.064 5.876 18.948 3.135 26.294-2.53 17.792-13.69 15.522-40.102-5.555-48.887-23.799-9.924-51.052 5.72-54.858 30.938-.212 1.405 1.875 2.052 2.185.604l.028-.014Z"/>
    <path fill="#262A40" d="M190.271 28.002c-14.211 3.303-22.826 18.104-17.313 32.006 4.215 10.655 19.287 13.564 26.632 4.048 8.784-11.371-11.109-23.586-16.114-9.39-.395 1.125 1.452 1.926 1.959.83 3.511-7.787 16.002-3.416 12.887 4.807-1.058 2.811-3.849 4.625-6.599 5.58-5.681 1.954-11.772.352-14.832-4.99-1.607-2.81-2.424-5.636-2.594-8.405a.841.841 0 0 0 .043-.337 13.227 13.227 0 0 1-.043-1.673 18.13 18.13 0 0 1 .719-4.273c2.566-7.66 11.406-12.608 19.696-10.486 10.405 2.67 15.791 13.199 16.045 23.235.296 12.425-6.302 25.498-13.295 36.461-9.461 11.667-13.958 28.085-9.94 41.578.395 1.336 2.397.774 2.087-.576-1.199-5.187-1.298-10.387-.494-15.433.028-.043.071-.071.099-.113 6.64-12.847 17.891-30.207 34.443-29.925 9.362.154 21.585 9.544 14.677 19.608-2.383 3.486-7.43 4.962-10.997 3.739 6.908-.155 15.226-8.012 8.248-16.291-4.709-5.58-12.985-5.51-18.526-1.21-6.866 5.328-8.516 15.491-4.018 22.828 10.447 17.036 33.414 5.271 37.996-10.064 5.949-19.904-16.834-32.906-34.105-27.775a38.99 38.99 0 0 0-2.073.689c7.289-9.376 10.927-23.334 8.812-34.227-2.975-15.307-18.596-23.713-33.4-20.269v.028Zm53.801 63.28c11.646 12.3-.649 34.72-17.059 33.314-10.095-.857-16.369-12.088-11.35-21.07 3.017-5.412 11.533-9.25 16.411-3.88 2.087 2.291 3.102 5.187 1.311 8.083-1.523 2.459-9.277 5.313-9.925-.127-.268-2.151-3.187-2.207-3.398 0-.804 8.434 6.908 12.327 14.409 9.853 9.248-3.05 11.702-14.927 5.78-22.18-6.739-8.251-18.483-9.39-27.732-5.229-7.078 3.19-12.971 8.602-17.638 14.914a53.525 53.525 0 0 1 6.683-9.165c10.87-12.046 29.89-17.88 42.536-4.526l-.028.014Zm-36.459-5.2s-.029.07-.057.113c-.719.478-1.424.97-2.129 1.504 2.242-4.498 4.103-9.137 5.626-13.494 3.68-10.528 4.06-23.179-2.905-32.512-4.92-6.593-13.464-10.612-21.557-8.757 3.018-1.518 6.387-2.418 9.87-2.516 14.493-.394 25.011 10.893 24.574 25.062-.381 12.046-6.359 21.38-13.422 30.6Zm223.882-12.43c-.423 1.602 2.045 2.783 2.778 1.167 2.284-4.962 13.774-5.946 18.624-7.169a1.18 1.18 0 0 0 .508-.281c9.164-.717 23.883-.843 27.549-11.23 2.791-7.943-3.892-15.463-11.406-16.967-20.077-4.02-33.767 18.063-38.067 34.48h.014Zm47.259-21.197c-.099 11.105-17.214 11.751-25.519 12.75-.197-.113-.408-.198-.676-.183-4.103.267-11.505 1.32-16.439 4.034 3.919-11.048 11.264-22.504 22.487-26.285 7.43-2.516 20.26-.478 20.161 9.684h-.014Zm-56.479-.127s.084-.098.112-.154c7.092-16.53 30.256-13.635 42.508-24.19 7.332-6.312 6.965-19.918-2.693-23.671-11.25-4.372-25.434 2.347-32.906 10.809-8.079 9.136-13.873 25.891-9.813 37.895.578 1.715 3.13 1.068 2.806-.675l-.014-.014Zm9.897-35.857c6.26-6.606 30.298-18.737 34.443-3.486 6.105 22.49-36.812 18.596-44.975 35.59-1.311-11.146 3.046-24.19 10.532-32.104ZM397.56 55.252c-5.879 4.878-6.514 11.892-4.188 18.85 1.805 5.383 5.118 10.12 6.923 15.504 2.594 7.688 1.875 15.686-1.424 23.009-.719 1.589 1.001 2.91 2.369 1.828 11.532-9.207 23.939-25.231 22.811-40.89 0-.154-.056-.295-.112-.421.056-7.787-2.2-17.978-10.321-21.085-5.385-2.066-11.73-.379-16.058 3.22v-.015Zm24.193 17.852s-.042.07-.056.126c-2.919 14.028-8.107 25.54-18.145 35.183 1.184-4.189 1.635-8.504 1.099-13.002-.902-7.478-4.948-13.494-7.726-20.326-3.426-8.461-1.875-17.626 7.867-20.535 11.773-3.529 16.552 9.052 16.947 18.568l.014-.014Z"/>
    <path fill="#262A40" d="M444.847 59.933c-1.312 1.181.451 3.542 1.917 2.474 6.88-5.004 15.748-1.068 22.769-5.468a1.45 1.45 0 0 0 .367-.351c5.372-3.823 3.299-10.978-3.553-10.823-10.334.239-14.606 7.927-21.5 14.168Zm13.887-9.22c1.494-.774 3.2-1.266 4.836-1.631 1.001-.225 2.241-.605 3.285-.45 3.228.492 4.92 3.388 1.649 6.016-5.385 1.743-11.222 1.026-16.608 2.137 2.002-2.376 4.089-4.667 6.824-6.087l.014.014ZM430.466 36.46c5.907-6.494 15.241-8.181 23.207-11.09 4.257-1.56 7.754-3.908 6.471-8.87 0-.042-.042-.07-.056-.098-2.355-6.537-8.488-6.382-14.113-3.697-8.939 4.245-15.128 13.114-18.004 22.321-.437 1.391 1.494 2.544 2.481 1.448l.014-.014Zm12.111-18.203c3.933-3.149 12.379-8.293 15.212-1.237.296 5.426-9.77 7.014-13.816 8.532-3.948 1.476-7.712 2.825-11.082 5.004 2.256-4.75 5.456-8.925 9.686-12.299Zm-39.646 44.529c-1.551 2.657-.973 7.169-.183 9.966 1.945 6.887 6.64 11.695 4.906 19.383-.423 1.884 2.115 2.474 2.834.773 3.299-7.885 7.754-17.19 4.526-25.82 0 0 0-.015-.015-.029-1.127-5.482-7.923-11.427-12.068-4.287v.014Zm2.044 3.486c1.734-5.735 6.288-2.952 7.839 1.307.042 4.344.423 8.307-.648 12.637-.395 1.574-.931 3.134-1.509 4.666-.324-1.672-.888-3.345-1.65-5.088-1.24-2.769-2.932-5.454-3.623-8.434-.324-1.405-.846-3.598-.395-5.088h-.014Zm-1.677-22.026c0 1.912 2.735 1.828 2.933 0 .62-5.763 3.299-10.921 3.679-16.727.339-5.453.508-11.258-1.466-16.403-.042-.098-.099-.169-.155-.253-1.48-4.61-4.399-9.77-9.601-10.725-4.3-.787-8.77 1.87-10.095 5.974-1.438 4.456.508 9.811 2.82 13.606 5.188 8.518 11.913 13.649 11.885 24.528Zm-1.382-39.483c2.087 1.672 3.299 4.385 4.343 6.803v.14c.902 6.115 1.508 13.579.239 19.721-.352 1.729-.86 3.402-1.367 5.06-1.481-5.046-4.371-9.347-8.008-13.901-2.89-3.599-5.682-7.338-6.049-12.117-.451-5.875 5.048-10.359 10.856-5.706h-.014ZM368.573 51.47s.113.043.169.071c6.598 6.072 12.816 12.327 17.172 20.241.733 1.335 2.637.633 2.721-.73.719-12.005.282-24.726-3.031-36.378-1.945-6.831-5.809-13.199-13.323-14.548-6.627-1.181-13.027 3.036-14.747 9.544-2.172 8.265 4.652 17.317 11.025 21.8h.014Zm-6.838-23.852c5.4-8.589 15.875-3.992 19.329 3.415 4.864 10.43 5.301 23.6 4.878 35.295-4.314-6.353-9.742-11.61-15.762-16.53-.042-.07-.07-.154-.127-.225-4.892-5.65-13.45-13.76-8.304-21.955h-.014Zm25.941 112.392c2.919-19.636 4.709-40.833-2.693-59.738-2.721-6.972-6.273-13.213-13.436-16.249-6.245-2.657-14.098-2.516-19.907 1.139-.24.154-.381.35-.493.576-14.579 8.012-11.533 24.373-2.101 35.463 6.105 7.169 14.507 11.597 21.247 18.077 4.751 4.568 14.141 13.311 14.028 20.283-.028 1.869 3.073 2.389 3.355.449Zm-20.401-27.718c-6.485-5.117-13.323-9.39-18.215-16.221-7.134-9.952-7.19-20.901 3.299-28.267.127 0 .24 0 .381-.042 35.317-11.596 35.416 37.375 32.61 63.702-4.216-7.632-12.971-15.152-18.075-19.172Zm-10.912 2.052c-7.965-2.938-16.749 2.811-15.395 11.343a1.112 1.112 0 0 0 0 .647c3.806 14.168 25.716 5.833 30.636 18.947.691 1.842 3.624 1.097 3.003-.829-3.299-10.191-6.725-25.877-18.229-30.122l-.015.014Zm5.88 20.297c-6.232-1.715-16.566-1.56-18.808-8.982 0-.028-.028-.056-.042-.084.028-5.552 4.553-9.882 10.39-8.785 3.892.731 7.177 4.006 9.291 7.168 2.693 4.006 4.512 8.87 6.091 13.705-2.016-1.349-4.356-2.305-6.937-3.008l.015-.014Z"/>
    <path fill="#262A40" d="M366.923 74.397c-6.147-2.418-12.731-.394-13.45 6.76-1.029 10.416 10.729 20.41 17.722 26.356.127.113.268.183.409.225 2.284 3.022 4.624 5.974 6.711 9.136.818 1.251 2.552.675 2.679-.73 1.269-12.707.282-36.11-14.085-41.747h.014Zm-10.109 10.57c-2.537-11.906 10.983-8.771 15.382-2.235 5.47 8.11 6.626 19.426 6.189 29.349a53.017 53.017 0 0 0-4.99-5.706 1.357 1.357 0 0 0-.198-.408c-4.906-6.747-14.578-12.51-16.383-20.986v-.014Zm-5.907-69.789c1.819.984 4.23.83 5.668-.787 1.663-1.884 1.029-5.145-.973-6.522-1.819-1.265-4.371-.844-5.865.745-1.805 1.925-1.875 5.917 1.17 6.564Zm1.241-4.484c.479-.436 1.254-.576 1.776-.169.55.45.705 1.518.24 2.053-.437.506-1.41.646-2.073.45-.451-.76-.676-1.66.057-2.348v.014Zm184.058 73.359c1.749.942 4.047.816 5.471-.688 1.706-1.8 1.142-5.047-.832-6.438-1.762-1.237-4.286-.886-5.752.66-1.777 1.87-1.904 5.848 1.128 6.452l-.015.014Zm1.283-4.371c.437-.38 1.114-.492 1.579-.14.536.407.691 1.405.254 1.925-.394.478-1.311.618-1.931.436-.423-.731-.635-1.589.098-2.221Zm32.935 2.853c1.833 0 1.847-2.84 0-2.84s-1.847 2.84 0 2.84Zm-299.247 19.268c-1.904 0-1.904 2.937 0 2.937 1.903 0 1.903-2.937 0-2.937Z"/>
    <path fill="#262A40" d="M573.103 123.663c9.996-5.763 11.97-20.648 1.015-27.522-8.628-5.397-22.614-3.092-28.705 5.131-1.325-4.61-4.511-8.518-9.643-9.938-6.19-1.715-12.069.956-15.763 5.566-4.427-28.238-54.393-24.64-59.384 2.629-6.288-7.183-17.426-8.574-25.941-3.275-5.893 3.668-8.445 13.227-6.528 20.395-7.825-2.361-16.439 2.755-16.961 12.159-.296 5.285 2.806 9.811 7.614 11.919 4.427 1.94 8.177 1.266 11.814-.506-1.254 7.661 5.936 17.079 12.534 19.595 9.559 3.626 21.529.604 27.718-7.45 4.611 14.97 26.069 18.034 34.232 4.877 3.313 5.904 13.986 5.524 17.905-.801 3.412 6.761 11.322 10.641 18.977 9.348.367.309.86.449 1.467.281 9.037-2.559 13.732-9.53 12.787-17.908 7.726 4.105 18.625 3.599 23.912-4.175 5.258-7.716 0-16.164-7.05-20.325Zm2.312 20.115c-5.907 5.186-15.113 4.231-20.64-.886-1.227-1.138-3.567-.042-2.975 1.729 2.848 8.42-.606 15.49-9.263 18.189a1.687 1.687 0 0 0-.902.646c-8.051.661-16.087-4.484-17.243-12.763-.24-1.743-3.017-1.279-3.031.408-.042 9.094-15.466 10.05-14.085 1.209.31-1.954-2.467-2.84-3.045-.844-4.836 16.671-29.748 13.565-30.876-3.626-.099-1.49-2.355-2.46-3.116-.844-3.652 7.858-12.421 11.751-20.88 10.88-4.78-.492-9.489-2.643-12.238-6.705-2.538-3.739-4.751-10.936-.818-14.407 1.424-1.265-.451-3.739-2.058-2.657-2.073 1.406-4.427 3.416-6.895 4.118-5.329 1.519-10.926-1.391-12.308-6.592-2.312-8.743 7.867-16.235 15.593-9.867 1.368 1.138 3.976-.408 2.707-2.081-4.018-5.285-2.608-16.811 3.06-20.423 8.417-5.37 19.752-2.727 24.024 6.353.747 1.589 3.285.773 3.243-.871-.719-29.532 55.591-33.974 53.053-1.279-.155 1.996 2.876 2.277 3.412.463 4.258-14.21 24.49-10.893 22.417 4.33-.296 2.207 3.088 3.162 3.384.927 1.368-9.993 13.69-14.238 22.516-11.694 12.576 3.626 12.505 20.803-.184 24.415-1.748.492-1.635 2.868 0 3.416 7.374 2.474 14.804 11.737 7.12 18.47l.028-.014ZM119.384 88.24c6.344-1.237 14.522-.029 21.416 2.431a18.7 18.7 0 0 1-1.001-1.574c-.141-.253-.24-.478-.339-.703-10.066-4.147-20.626-9.193-29.72-15.096-1.128-.731-.437-2.643.945-2.221 8.84 2.642 16.876 8.082 25.251 12.271-5.203-7.042-10.546-14.337-13.93-22.25-.55-1.294 1.086-2.32 1.918-1.111 5.865 8.476 11.42 17.078 17.44 25.455 1.339.043 3.031.478 4.413.942-7.501-11.666-18.399-36.194 1.367-35.52 13.168.45 14.889 20.241 10.927 32.596 7.317-5.27 17.75-7.913 25.575-5.186.381.126.62.365.804.618 6.654 3.233 5.738 11.4.634 16.22-3.088 2.91-6.655 3.374-10.757 2.812-5.034-.675-10.081-1.588-14.931-3.078.254.21.494.407.747.618 2.58 2.179 7.656 5.299 7.543 9.193-.183 6.396-6.119 3.697-11.307.07 7.825 10.824 14.733 26.819.423 30.741-18.173 4.976-15.918-22.405-11.956-34.972-6.246 4.878-13.182 9.868-21.162 10.191-6.091.253-14.254-2.952-15.269-9.769-1.001-6.677 5.033-11.512 10.955-12.678h.014Zm36.163-24.5c-1.085-4.878-2.368-7.253-7.289-8.49-13.337-3.332-7.825 13.704-5.315 19.72 1.96 4.667 4.497 8.912 6.993 13.27.62.337 1.226.674 1.819 1.04a39.421 39.421 0 0 0 4.412-16.713c.113-2.896 0-5.988-.62-8.827Zm22.6 31.148c6.133-.745 11.843-9.91 5.161-13.648-.156 0-.297.028-.466 0-9.108-1.87-21.106 1.265-27.182 8.785 3.059 1.32 6.189 2.277 9.488 2.965 3.934.83 9.052 2.376 12.999 1.898Zm-15.508 10.106c3.13-1.096-.691-3.753-1.283-4.273-4.639-4.174-9.489-8.237-15.213-10.851-.606-.267-1.396-.478-2.199-.717.832.914 1.635 2.15 2.34 2.882 1.269 1.307 3.13 2.642 4.244 4.23.127.043.24.085.367.17 2.566 1.967 4.962 4.16 7.627 6.001.395.267 3.637 2.727 4.117 2.558Zm-16.425 21.338c1.847 6.718 9.643 8.293 13.492 2.895 6.796-9.544-5.583-21.59-11.73-29.7-1.621 5.833-2.989 11.526-2.834 17.696.071 2.98.268 6.213 1.058 9.109h.014Zm-32.244-22.083c4.85 5.271 13.648 3.191 19.104.394 4.554-2.333 8.473-5.65 12.801-8.335-4.596-1.589-9.009-3.22-13.859-4.105-3.228-.59-6.64-1.18-9.953-.927-5.71.421-14.889 5.594-8.107 12.973h.014Z"/>
  </g>
  <defs>
    <clipPath id="a">
      <path fill="#fff" d="M0 0h600v123H0z"/>
    </clipPath>
  </defs>
</svg>
