<svg xmlns="http://www.w3.org/2000/svg" width="154" height="51" fill="none" viewBox="0 0 154 51">
  <g clip-path="url(#a)">
    <path fill="#fff" d="M4.335 26.915c.057.113.113.225.177.338 2.647 2.37 5.38 4.783 8.637 6.288 3.576 1.653 7.614 1.365 11.19 2.976 5.245 2.356 8.694 7.238 11.546 11.992.54.9-.773 1.583-1.376.802-2.108-2.722-8.793-1.449-11.866-1.772-4.35-.457-8.927-1.02-12.418-3.827-.22-.176-.291-.38-.27-.576-3.882-4.01-5.641-10.066-6.89-15.328a.724.724 0 0 1 .042-.478c-.113-.647.901-1.048 1.228-.415Zm14.576 9.728c-5.025-.844-8.814-2.919-12.497-5.824 1.057 1.871 2.228 3.665 3.747 5.297 2.562 2.75 5.5 3.791 9.112 4.368 4.414.703 8.459 1.87 12.078 4.143-3.108-4.01-6.926-7.055-12.44-7.984Zm8.281 9.468c1.377.042 3.03.035 4.592.302-2.704-1.744-5.628-3.066-8.828-3.798-2.924-.668-6.018-.682-8.821-1.808-3.236-1.294-5.904-4.002-7.92-7.083 1.058 3.208 2.491 6.317 4.691 8.694.15.014.305.063.447.176 4.322 3.313 10.602 3.348 15.846 3.517h-.007Zm36.38-38.732c-.915-.633-2.2-.422-2.952.373-.908.963-.944 2.961.59 3.285.915.492 2.128.415 2.852-.394.837-.943.518-2.575-.49-3.264Zm-.73 2.363c-.22.254-.71.324-1.044.225-.227-.38-.34-.83.029-1.174.24-.218.631-.289.894-.085.276.226.355.76.12 1.027v.007Zm68.851 33.471c-1.256-.915-3.037-.577-4.023.57-1.164 1.357-1.122 3.678.681 4.389 1.242.703 2.916.619 3.917-.478 1.142-1.253.759-3.51-.575-4.481Zm-.653 3.594c-.489.514-1.398.598-2.036.33-.611-.696-.724-1.73-.022-2.419.49-.478 1.327-.633 1.874-.155.596.514.738 1.66.184 2.251v-.007ZM20.955 28.672c-.965 0-.965 1.485 0 1.485s.965-1.485 0-1.485Zm9.213 4.981c.916.493 2.13.415 2.853-.393.837-.943.518-2.575-.49-3.264-.915-.633-2.2-.422-2.952.373-.908.963-.944 2.96.59 3.284Zm.625-2.243c.241-.218.631-.289.894-.085.277.225.355.76.12 1.027-.22.253-.71.324-1.043.225-.227-.38-.34-.83.029-1.174v.007ZM133.27 9.328c2.902-4.516 8.849-5.578 13.511-3.067 3.882 2.089 5.408 7.125 4.166 11.212-1.959 6.415-13.937 8.096-14.292-.014-.114-2.666 2.242-4.516 4.79-4.558 4.478-.077 4.237 7.055.334 5.508-.873-.345-1.391 1.02-.625 1.47 5.109 3.003 7.629-5.424 3.364-7.991-4.443-2.673-10.396 1.484-9.524 6.443 1.235 7.076 10.73 8.209 15.293 3.566 4.017-4.086 3.491-11.74-.624-15.587-4.989-4.663-14.271-3.784-17.379 2.455-.32.647.581 1.182.979.57l.007-.007Zm-.781 28.304c2.2-2.666 5.543-2.18 8.637-2.018a.745.745 0 0 0 .255-.043c2.555.577 5.855.88 7.92-.95 1.852-1.631 1.752-4.17.227-6-5.67-6.794-15.236 3.673-18.337 8.02-.532.745.702 1.709 1.291.991h.007Zm10.929-9.221c2.193-.303 4.818.239 5.663 2.567.83 2.286-1.689 3.172-3.179 3.447-1.406.267-2.917.028-4.358-.014a.532.532 0 0 0-.241-.099c-2.086-.344-4.215-.605-6.131-.183 2.264-2.68 5.138-5.296 8.246-5.725v.007Zm6.841 12.014c-3.066-2.912-8.97-1.59-12.454-.507-.873.275-.518 1.583.376 1.365 3.683-.915 5.428 4.445 9.14 4.312a.544.544 0 0 0 .262-.078c2.626-.239 5.174-2.722 2.676-5.1v.008Zm-2.732 3.953s-.022-.014-.043-.014c-2.491-.457-4.095-2.75-6.138-3.911 1.135-.225 2.278-.352 3.441-.31.902.029 1.81.141 2.676.401a6.237 6.237 0 0 1 1.582.662c.476 2.067-.035 3.123-1.518 3.179v-.007ZM96.865 24.246c1.846-8.525 8.623-15.214 17.642-15.707 10.19-.562 20.423 8.174 14.604 18.591-2.214 3.967-6.755 7.414-11.524 7.062-4.102-.295-6.94-4.108-7.104-7.99-.163-3.827 2.321-7.119 6.352-7.14 2.136-.014 4.009.851 4.563 2.99.376 1.435-.036 3.151-1.178 4.185-2.002 1.815-6.174.077-4.038-2.567a.71.71 0 0 0-1.008-1c-2.689 2.21-.781 6.022 2.42 6.324 3.64.345 6.28-3.875 5.649-7.125-.667-3.447-4.315-4.854-7.515-4.431-3.62.478-6.224 3.116-6.827 6.668-.625 3.7.951 7.864 4.024 10.093 4.059 2.94 9.537 1.569 13.234-1.266 8.956-6.85 7.813-20.068-2.796-24.464-11.978-4.966-25.696 2.863-27.612 15.482-.106.703.944 1.027 1.1.302l.014-.007Z"/>
    <path fill="#fff" d="M78.77 3.461c-7.153 1.653-11.49 9.06-8.715 16.017 2.122 5.331 9.708 6.787 13.405 2.025 4.422-5.69-5.591-11.803-8.11-4.698-.2.562.73.963.986.415 1.767-3.897 8.054-1.71 6.486 2.405-.532 1.407-1.938 2.314-3.321 2.793-2.86.977-5.926.176-7.466-2.497-.809-1.407-1.22-2.821-1.305-4.207a.425.425 0 0 0 .02-.168 6.624 6.624 0 0 1-.02-.837 8.995 8.995 0 0 1 .361-2.139c1.292-3.833 5.741-6.31 9.914-5.247 5.237 1.336 7.948 6.605 8.076 11.627.149 6.218-3.172 12.76-6.692 18.246-4.762 5.838-7.025 14.054-5.003 20.807.199.668 1.206.386 1.05-.289a19.993 19.993 0 0 1-.248-7.723c.014-.021.035-.035.05-.056 3.342-6.43 9.005-15.116 17.336-14.976 4.712.078 10.864 4.776 7.387 9.813-1.199 1.744-3.74 2.483-5.535 1.87 3.477-.077 7.664-4.009 4.151-8.152-2.37-2.792-6.535-2.757-9.324-.605-3.456 2.666-4.286 7.752-2.023 11.424 5.259 8.525 16.819 2.637 19.125-5.037 2.995-9.96-8.473-16.466-17.166-13.899a20.15 20.15 0 0 0-1.043.345c3.669-4.692 5.5-11.677 4.435-17.128-1.497-7.66-9.36-11.866-16.811-10.143v.014Zm27.079 31.667c5.862 6.155-.326 17.374-8.586 16.67-5.081-.428-8.239-6.049-5.713-10.543 1.519-2.708 5.805-4.629 8.26-1.942 1.051 1.147 1.562 2.596.66 4.045-.766 1.23-4.669 2.659-4.995-.063-.135-1.077-1.604-1.105-1.71 0-.405 4.22 3.477 6.168 7.252 4.93 4.655-1.526 5.89-7.47 2.909-11.1-3.392-4.128-9.303-4.698-13.958-2.616-3.563 1.597-6.529 4.305-8.878 7.463a26.789 26.789 0 0 1 3.364-4.586c5.471-6.028 15.044-8.947 21.41-2.265l-.015.007Zm-18.35-2.602s-.015.035-.03.056c-.361.239-.716.485-1.07.752 1.128-2.25 2.064-4.572 2.83-6.752 1.853-5.269 2.044-11.6-1.461-16.27-2.477-3.299-6.777-5.31-10.85-4.382a11.87 11.87 0 0 1 4.967-1.259c7.295-.197 12.589 5.451 12.369 12.542-.192 6.028-3.2 10.698-6.756 15.313Zm31.993 7.867c-.958 0-.958 1.47 0 1.47s.958-1.47 0-1.47Z"/>
    <path fill="#fff" d="M43.09 33.605c3.193-.619 7.309-.014 10.78 1.217a9.394 9.394 0 0 1-.505-.788c-.07-.126-.12-.239-.17-.351-5.067-2.075-10.382-4.6-14.96-7.555-.567-.366-.22-1.322.476-1.111 4.45 1.322 8.495 4.044 12.71 6.14-2.619-3.524-5.308-7.174-7.011-11.134-.277-.648.546-1.161.965-.556 2.952 4.241 5.748 8.546 8.778 12.738.674.022 1.526.24 2.221.472-3.775-5.838-9.26-18.113.688-17.775 6.629.225 7.494 10.129 5.5 16.312 3.683-2.638 8.934-3.96 12.873-2.596a.8.8 0 0 1 .404.31c3.35 1.617 2.889 5.704.32 8.117-1.554 1.456-3.35 1.688-5.415 1.407-2.533-.338-5.074-.795-7.515-1.54.128.105.249.203.376.309 1.299 1.09 3.854 2.652 3.797 4.6-.092 3.2-3.08 1.85-5.691.035 3.938 5.416 7.415 13.42.212 15.383-9.147 2.49-8.011-11.212-6.017-17.5-3.144 2.44-6.635 4.938-10.652 5.1-3.066.126-7.174-1.478-7.685-4.89-.504-3.34 2.533-5.76 5.514-6.344h.007Zm18.202-12.26c-.547-2.44-1.192-3.63-3.669-4.249-6.713-1.667-3.938 6.859-2.675 9.87.986 2.334 2.264 4.459 3.52 6.64.312.168.617.337.915.52a19.638 19.638 0 0 0 2.221-8.364c.057-1.449 0-2.996-.312-4.417Zm11.375 15.587c3.087-.373 5.961-4.959 2.598-6.83-.078 0-.15.014-.234 0-4.585-.935-10.624.633-13.682 4.396 1.54.662 3.115 1.14 4.776 1.485 1.98.415 4.555 1.188 6.542.95Zm-7.806 5.058c1.576-.549-.347-1.878-.645-2.139-2.335-2.089-4.776-4.121-7.657-5.43-.305-.133-.703-.239-1.107-.359.418.458.823 1.077 1.178 1.442.638.654 1.575 1.323 2.136 2.118.064.02.12.042.184.084 1.292.985 2.498 2.082 3.84 3.003.198.134 1.83 1.365 2.071 1.28Zm-8.267 10.677c.93 3.362 4.854 4.15 6.791 1.45 3.42-4.777-2.81-10.805-5.904-14.863-.816 2.919-1.504 5.767-1.426 8.855.035 1.491.135 3.11.532 4.558h.007Zm-16.23-11.05c2.442 2.638 6.87 1.597 9.616.197 2.293-1.168 4.265-2.828 6.444-4.171-2.314-.795-4.535-1.611-6.976-2.054-1.625-.296-3.342-.591-5.01-.465-2.874.212-7.494 2.8-4.08 6.493h.007Z"/>
  </g>
  <defs>
    <clipPath id="a">
      <path fill="#fff" d="M0 0h154v51H0z"/>
    </clipPath>
  </defs>
</svg>
